<svg width="14" height="12" viewBox="0 0 14 12" version="1.1" xmlns="http://www.w3.org/2000/svg" xmlns:xlink="http://www.w3.org/1999/xlink">
<title>Vector</title>
<desc>Created using Figma</desc>
<g id="Canvas" transform="translate(-979 -1428)">
<g id="Vector">
<use xlink:href="#path0_fill" transform="translate(979 1428)" fill="#299A3B"/>
</g>
</g>
<defs>
<path id="path0_fill" d="M 0.167767 6.64671C 0.00313081 6.89681 -0.0863335 7.11597 0.119154 7.2855C 2.07794 8.90793 3.67569 10.3331 4.80026 11.6887C 5.16519 12.1283 5.40565 12.0845 5.73235 11.6694C 8.19217 8.54696 10.9365 5.99373 13.7639 3.83628C 14.0769 3.59714 14.0426 3.28903 13.8695 2.85199C 13.5545 2.04883 13.2162 1.17348 12.6471 0.302632C 12.4066 -0.0654298 12.1629 -0.0815446 11.8609 0.166623C 9.42045 2.1713 7.30482 4.14376 5.56771 6.15488C 5.28446 6.48169 4.99667 6.43916 4.64536 6.10589C 3.82347 5.32724 3.06381 4.75934 2.47073 4.28105C 2.12462 4.00323 1.85045 4.02451 1.60543 4.38677C 1.07586 5.16543 0.634453 5.94152 0.167767 6.64671Z"/>
</defs>
</svg>
