<svg width="77" height="57" viewBox="0 0 77 57" version="1.1" xmlns="http://www.w3.org/2000/svg" xmlns:xlink="http://www.w3.org/1999/xlink">
<title>Group</title>
<desc>Created using Figma</desc>
<g id="Canvas" transform="translate(719 -490)">
<g id="Group">
<g id="Vector 9">
<use xlink:href="#path0_fill" transform="translate(-705.5 510)" fill="#EB3441"/>
</g>
<g id="Vector">
<use xlink:href="#path1_fill" transform="translate(-698.628 514.926)" fill="#002543"/>
</g>
<g id="Vector">
<use xlink:href="#path2_fill" transform="translate(-690.04 519.889)" fill="#002543"/>
</g>
<g id="Vector">
<use xlink:href="#path3_fill" transform="translate(-681.484 510.659)" fill="#002543"/>
</g>
<g id="Vector">
<use xlink:href="#path4_fill" transform="translate(-673.098 514.332)" fill="#002543"/>
</g>
<g id="Vector">
<use xlink:href="#path5_fill" transform="translate(-664.809 503.817)" fill="#002543"/>
</g>
<g id="Vector">
<use xlink:href="#path6_fill" transform="translate(-719 490)" fill="#002543"/>
</g>
<g id="Vector">
<use xlink:href="#path7_fill" transform="translate(-707.087 496.351)" fill="#002543"/>
</g>
<g id="Vector">
<use xlink:href="#path8_fill" transform="translate(-650.424 529.111)" fill="#002543"/>
</g>
</g>
</g>
<defs>
<path id="path0_fill" d="M 0 18.5L 8.5 18.5L 38 20.5L 51 18.5L 42.5 0L 34 12L 25 7.5L 17 18.5L 8.5 12L 0 18.5Z"/>
<path id="path1_fill" d="M 3.0078 1.48896C 3.0078 2.31124 2.33443 2.97792 1.5039 2.97792C 0.673372 2.97792 8.26116e-07 2.31124 8.26116e-07 1.48896C 8.26116e-07 0.666687 0.673372 4.7257e-06 1.5039 4.7257e-06C 2.33443 4.7257e-06 3.0078 0.666687 3.0078 1.48896Z"/>
<path id="path2_fill" d="M 3.0078 1.48897C 3.0078 2.31124 2.33443 2.97793 1.5039 2.97793C 0.673369 2.97793 -1.37686e-06 2.31124 -1.37686e-06 1.48897C -1.37686e-06 0.666687 0.673369 4.99834e-06 1.5039 4.99834e-06C 2.33443 4.99834e-06 3.0078 0.666687 3.0078 1.48897Z"/>
<path id="path3_fill" d="M 3.00779 1.48896C 3.00779 2.31124 2.33442 2.97792 1.50389 2.97792C 0.673367 2.97792 -3.947e-06 2.31124 -3.947e-06 1.48896C -3.947e-06 0.665937 0.673367 0 1.50389 0C 2.33442 0 3.00779 0.665937 3.00779 1.48896Z"/>
<path id="path4_fill" d="M 3.0078 1.48896C 3.0078 2.31124 2.33443 2.97792 1.5039 2.97792C 0.673375 2.97792 4.77312e-06 2.31124 4.77312e-06 1.48896C 4.77312e-06 0.666683 0.673375 1.63582e-06 1.5039 1.63582e-06C 2.33443 1.63582e-06 3.0078 0.666683 3.0078 1.48896Z"/>
<path id="path5_fill" d="M 3.0078 1.48896C 3.0078 2.31123 2.33518 2.97792 1.5039 2.97792C 0.673374 2.97792 3.67163e-06 2.31123 3.67163e-06 1.48896C 3.67163e-06 0.666677 0.673374 -4.45307e-06 1.5039 -4.45307e-06C 2.33499 -4.45307e-06 3.0078 0.666677 3.0078 1.48896Z"/>
<path id="path6_fill" d="M 75.4954 44.6876L 45.0391 44.6876C 44.2094 44.6876 43.5352 45.3543 43.5352 46.1766C 43.5352 47.5617 42.397 48.6884 40.9982 48.6884L 35.9614 48.6884C 34.5624 48.6884 33.4243 47.5617 33.4243 46.1766C 33.4243 45.3543 32.751 44.6876 31.9204 44.6876L 8.24644 44.6876L 8.24644 6.11646C 8.24644 4.38536 9.66894 2.97792 11.4165 2.97792L 65.5826 2.97792C 67.3303 2.97792 68.7526 4.38611 68.7526 6.11646L 68.7526 34.7819C 68.7526 35.6042 69.426 36.2709 70.2565 36.2709C 71.087 36.2709 71.7604 35.6042 71.7604 34.7819L 71.7604 6.11646C 71.7604 2.74378 68.9891 0 65.5826 0L 11.4165 0C 8.00996 0 5.23864 2.74378 5.23864 6.11646L 5.23864 44.6876L 1.5039 44.6876C 0.673371 44.6876 0 45.3543 0 46.1766L 0 48.5155C 0 53.1939 3.84415 57 8.56884 57L 68.4304 57C 73.1558 57 77 53.1939 77 48.5155L 77 46.1766C 76.9992 45.3543 76.3259 44.6876 75.4954 44.6876ZM 73.9915 48.5155C 73.9915 51.5515 71.4969 54.0221 68.4304 54.0221L 8.56884 54.0221C 5.50239 54.0221 3.0078 51.5515 3.0078 48.5155L 3.0078 47.6655L 30.6235 47.6655C 31.2807 49.9712 33.4251 51.6664 35.9614 51.6664L 40.9982 51.6664C 43.5345 51.6664 45.6787 49.9712 46.3361 47.6655L 73.9915 47.6655L 73.9915 48.5155Z"/>
<path id="path7_fill" d="M 52.1783 0L 1.5039 0C 0.673371 0 4.13058e-07 0.665937 4.13058e-07 1.48896L 4.13058e-07 33.5627C 4.13058e-07 34.3849 0.673371 35.0516 1.5039 35.0516L 52.1783 35.0516C 53.0089 35.0516 53.6822 34.3849 53.6822 33.5627L 53.6822 1.48896C 53.6822 0.665937 53.0089 0 52.1783 0ZM 50.6744 32.0737L 45.2867 32.0737L 45.2867 14.2294C 45.2867 13.4072 44.6133 12.7405 43.7828 12.7405C 42.9523 12.7405 42.2789 13.4072 42.2789 14.2294L 42.2789 32.0737L 36.8316 32.0737L 36.8316 25.448C 36.8316 24.6257 36.1582 23.959 35.3277 23.959C 34.4972 23.959 33.8238 24.6257 33.8238 25.448L 33.8238 32.0737L 28.3765 32.0737L 28.3765 22.0087C 28.3765 21.1864 27.7031 20.5197 26.8726 20.5197C 26.0421 20.5197 25.3687 21.1864 25.3687 22.0087L 25.3687 32.0737L 19.9223 32.0737L 19.9223 30.6363C 19.9223 29.8138 19.249 29.1471 18.4184 29.1471C 17.5879 29.1471 16.9145 29.8138 16.9145 30.6363L 16.9145 32.0737L 11.4672 32.0737L 11.4672 26.1694C 11.4672 25.3469 10.7939 24.6803 9.96333 24.6803C 9.1328 24.6803 8.45943 25.3469 8.45943 26.1694L 8.45943 32.0737L 3.0078 32.0737L 3.0078 2.97792L 50.6744 2.97792L 50.6744 32.0737Z"/>
<path id="path8_fill" d="M 3.0078 1.48896C 3.0078 2.31124 2.33443 2.97792 1.5039 2.97792C 0.672624 2.97792 5.59923e-06 2.31124 5.59923e-06 1.48896C 5.59923e-06 0.666685 0.672624 2.72637e-06 1.5039 2.72637e-06C 2.33443 2.72637e-06 3.0078 0.666685 3.0078 1.48896Z"/>
</defs>
</svg>
