<svg width="74" height="68" viewBox="0 0 74 68" version="1.1" xmlns="http://www.w3.org/2000/svg" xmlns:xlink="http://www.w3.org/1999/xlink">
<title>6</title>
<desc>Created using Figma</desc>
<g id="Canvas" transform="translate(-117 -489)">
<g id="6">
<g id="Vector">
<use xlink:href="#path0_fill" transform="translate(150.283 490)" fill="#002543"/>
<use xlink:href="#path1_stroke" transform="translate(150.283 490)" fill="#002543"/>
</g>
<g id="Vector">
<use xlink:href="#path2_fill" transform="translate(169.797 496.656)" fill="#002543"/>
<use xlink:href="#path3_stroke" transform="translate(169.797 496.656)" fill="#002543"/>
</g>
<g id="Vector">
<use xlink:href="#path4_fill" transform="translate(162.681 492.127)" fill="#002543"/>
<use xlink:href="#path5_stroke" transform="translate(162.681 492.127)" fill="#002543"/>
</g>
<g id="Vector">
<use xlink:href="#path6_fill" transform="translate(172.743 499.703)" fill="#002543"/>
<use xlink:href="#path7_stroke" transform="translate(172.743 499.703)" fill="#002543"/>
</g>
<g id="Vector">
<use xlink:href="#path8_fill" transform="translate(154.518 490.051)" fill="#002543"/>
<use xlink:href="#path9_stroke" transform="translate(154.518 490.051)" fill="#002543"/>
</g>
<g id="Vector">
<use xlink:href="#path10_fill" transform="translate(158.678 490.763)" fill="#002543"/>
<use xlink:href="#path11_stroke" transform="translate(158.678 490.763)" fill="#002543"/>
</g>
<g id="Vector">
<use xlink:href="#path12_fill" transform="translate(166.419 494.11)" fill="#002543"/>
<use xlink:href="#path13_stroke" transform="translate(166.419 494.11)" fill="#002543"/>
</g>
<g id="Vector">
<use xlink:href="#path14_fill" transform="translate(178.713 519.451)" fill="#002543"/>
<use xlink:href="#path15_stroke" transform="translate(178.713 519.451)" fill="#002543"/>
</g>
<g id="Vector">
<use xlink:href="#path16_fill" transform="translate(176.555 527.614)" fill="#002543"/>
<use xlink:href="#path17_stroke" transform="translate(176.555 527.614)" fill="#002543"/>
</g>
<g id="Vector">
<use xlink:href="#path18_fill" transform="translate(175.161 503.167)" fill="#002543"/>
<use xlink:href="#path19_stroke" transform="translate(175.161 503.167)" fill="#002543"/>
</g>
<g id="Vector">
<use xlink:href="#path20_fill" transform="translate(178.805 515.224)" fill="#002543"/>
<use xlink:href="#path21_stroke" transform="translate(178.805 515.224)" fill="#002543"/>
</g>
<g id="Vector">
<use xlink:href="#path22_fill" transform="translate(177.009 506.97)" fill="#002543"/>
<use xlink:href="#path23_stroke" transform="translate(177.009 506.97)" fill="#002543"/>
</g>
<g id="Vector">
<use xlink:href="#path24_fill" transform="translate(178.235 511.024)" fill="#002543"/>
<use xlink:href="#path25_stroke" transform="translate(178.235 511.024)" fill="#002543"/>
</g>
<g id="Vector">
<use xlink:href="#path26_fill" transform="translate(177.959 523.615)" fill="#002543"/>
<use xlink:href="#path27_stroke" transform="translate(177.959 523.615)" fill="#002543"/>
</g>
<g id="Vector">
<use xlink:href="#path28_fill" transform="translate(126.062 510.381)" fill="#002543"/>
<use xlink:href="#path29_stroke" transform="translate(126.062 510.381)" fill="#002543"/>
</g>
<g id="Vector">
<use xlink:href="#path30_fill" transform="translate(127.386 506.358)" fill="#002543"/>
<use xlink:href="#path31_stroke" transform="translate(127.386 506.358)" fill="#002543"/>
</g>
<g id="Vector">
<use xlink:href="#path32_fill" transform="translate(126.03 522.978)" fill="#002543"/>
<use xlink:href="#path33_stroke" transform="translate(126.03 522.978)" fill="#002543"/>
</g>
<g id="Vector">
<use xlink:href="#path34_fill" transform="translate(129.254 530.778)" fill="#002543"/>
<use xlink:href="#path35_stroke" transform="translate(129.254 530.778)" fill="#002543"/>
</g>
<g id="Vector">
<use xlink:href="#path36_fill" transform="translate(125.381 518.795)" fill="#002543"/>
<use xlink:href="#path37_stroke" transform="translate(125.381 518.795)" fill="#002543"/>
</g>
<g id="Vector">
<use xlink:href="#path38_fill" transform="translate(125.392 514.561)" fill="#002543"/>
<use xlink:href="#path39_stroke" transform="translate(125.392 514.561)" fill="#002543"/>
</g>
<g id="Vector">
<use xlink:href="#path40_fill" transform="translate(146.102 490.609)" fill="#002543"/>
<use xlink:href="#path41_stroke" transform="translate(146.102 490.609)" fill="#002543"/>
</g>
<g id="Vector">
<use xlink:href="#path42_fill" transform="translate(138.288 493.759)" fill="#002543"/>
<use xlink:href="#path43_stroke" transform="translate(138.288 493.759)" fill="#002543"/>
</g>
<g id="Vector">
<use xlink:href="#path44_fill" transform="translate(142.068 491.873)" fill="#002543"/>
<use xlink:href="#path45_stroke" transform="translate(142.068 491.873)" fill="#002543"/>
</g>
<g id="Vector">
<use xlink:href="#path46_fill" transform="translate(134.85 496.221)" fill="#002543"/>
<use xlink:href="#path47_stroke" transform="translate(134.85 496.221)" fill="#002543"/>
</g>
<g id="Vector">
<use xlink:href="#path48_fill" transform="translate(131.841 499.191)" fill="#002543"/>
<use xlink:href="#path49_stroke" transform="translate(131.841 499.191)" fill="#002543"/>
</g>
<g id="Vector">
<use xlink:href="#path50_fill" transform="translate(127.331 527.007)" fill="#002543"/>
<use xlink:href="#path51_stroke" transform="translate(127.331 527.007)" fill="#002543"/>
</g>
<g id="Vector">
<use xlink:href="#path52_fill" transform="translate(129.33 502.597)" fill="#002543"/>
<use xlink:href="#path53_stroke" transform="translate(129.33 502.597)" fill="#002543"/>
</g>
<g id="Vector 7">
<use xlink:href="#path54_fill" transform="translate(158 499)" fill="#EB3441"/>
</g>
<g id="Vector">
<use xlink:href="#path55_fill" transform="translate(118 499.493)" fill="#002543"/>
<use xlink:href="#path56_stroke" transform="translate(118 499.493)" fill="#002543"/>
</g>
<g id="Vector">
<use xlink:href="#path57_fill" transform="translate(136.281 547.256)" fill="#002543"/>
<use xlink:href="#path58_stroke" transform="translate(136.281 547.256)" fill="#002543"/>
</g>
</g>
</g>
<defs>
<path id="path0_fill" d="M 2.82119 1.28494C 2.75363 0.516355 2.08307 -0.0533156 1.31568 0.00396711C 0.545138 0.053131 -0.043014 0.717972 0.00247094 1.49242C 0.0466049 2.24025 0.666731 2.81804 1.4053 2.81804C 1.43277 2.81804 1.46069 2.81669 1.48951 2.81488C 1.50257 2.81443 1.53049 2.81263 1.54445 2.81082C 2.31815 2.74316 2.89054 2.05938 2.82119 1.28494Z"/>
<path id="path1_stroke" d="M 2.82119 1.28494L 2.57215 1.30682L 2.57218 1.30723L 2.82119 1.28494ZM 1.31568 0.00396711L 1.3316 0.253474L 1.33429 0.253273L 1.31568 0.00396711ZM 0.00247094 1.49242L -0.247099 1.50707L -0.247095 1.50714L 0.00247094 1.49242ZM 1.48951 2.81488L 1.48088 2.56493L 1.47389 2.56537L 1.48951 2.81488ZM 1.54445 2.81082L 1.52266 2.56156L 1.51241 2.56288L 1.54445 2.81082ZM 3.07023 1.26305C 2.99072 0.35841 2.20108 -0.31282 1.29707 -0.245339L 1.33429 0.253273C 1.96506 0.206189 2.51655 0.674298 2.57215 1.30682L 3.07023 1.26305ZM 1.29976 -0.245526C 0.391516 -0.187576 -0.300627 0.595693 -0.247099 1.50707L 0.252041 1.47776C 0.214599 0.840251 0.69876 0.293838 1.3316 0.25346L 1.29976 -0.245526ZM -0.247095 1.50714C -0.195138 2.38754 0.534821 3.06804 1.4053 3.06804L 1.4053 2.56804C 0.79864 2.56804 0.288347 2.09296 0.252037 1.47769L -0.247095 1.50714ZM 1.4053 3.06804C 1.43882 3.06797 1.47455 3.0663 1.50513 3.06439L 1.47389 2.56537C 1.44683 2.56707 1.42672 2.56811 1.4053 2.56804L 1.4053 3.06804ZM 1.49814 3.06473C 1.51495 3.06412 1.55459 3.06146 1.5765 3.05876L 1.51241 2.56288C 1.51411 2.56261 1.50745 2.56339 1.499 2.56398C 1.4905 2.56458 1.48344 2.56494 1.48088 2.56503L 1.49814 3.06473ZM 1.56623 3.05987C 2.47783 2.98015 3.15186 2.17465 3.07019 1.26264L 2.57218 1.30723C 2.62922 1.94411 2.15847 2.50617 1.52268 2.56177L 1.56623 3.05987Z"/>
<path id="path2_fill" d="M 2.34504 0.359915C 1.76815 -0.157885 0.880965 -0.111879 0.361266 0.465008C -0.157984 1.0428 -0.11205 1.93316 0.463943 2.45457C 0.4725 2.46133 0.490065 2.47712 0.498621 2.48389C 0.763425 2.71347 1.09083 2.82578 1.41598 2.82578C 1.81048 2.82578 2.20273 2.6607 2.48105 2.3373C 2.98543 1.75229 2.92419 0.869145 2.34504 0.359915Z"/>
<path id="path3_stroke" d="M 2.34504 0.359915L 2.17804 0.545973L 2.17996 0.54766L 2.34504 0.359915ZM 0.361266 0.465008L 0.175522 0.297678L 0.17532 0.297902L 0.361266 0.465008ZM 0.463943 2.45457L 0.296167 2.63991L 0.302346 2.6455L 0.308884 2.65067L 0.463943 2.45457ZM 0.498621 2.48389L 0.662556 2.2948L 0.65368 2.28778L 0.498621 2.48389ZM 2.48105 2.3373L 2.2917 2.17405L 2.29155 2.17422L 2.48105 2.3373ZM 2.51203 0.173866C 1.83267 -0.435904 0.787653 -0.381812 0.175522 0.297678L 0.547009 0.632339C 0.974277 0.158054 1.70362 0.120134 2.17805 0.545963L 2.51203 0.173866ZM 0.17532 0.297902C -0.436 0.978142 -0.381907 2.02609 0.296167 2.63991L 0.631719 2.26923C 0.157808 1.84023 0.120032 1.10745 0.547211 0.632114L 0.17532 0.297902ZM 0.308884 2.65067C 0.307391 2.64949 0.307323 2.64938 0.309818 2.6515C 0.312088 2.65343 0.314641 2.65564 0.317907 2.65846C 0.321172 2.66128 0.325149 2.66471 0.328847 2.66786C 0.332319 2.67081 0.337791 2.67543 0.343562 2.67999L 0.65368 2.28778C 0.655174 2.28896 0.655241 2.28907 0.652746 2.28695C 0.650476 2.28502 0.647923 2.28281 0.644658 2.28C 0.641392 2.27718 0.637415 2.27375 0.633718 2.2706C 0.630246 2.26765 0.624774 2.26303 0.619002 2.25846L 0.308884 2.65067ZM 0.334854 2.67278C 0.638692 2.93013 1.04971 3.07237 1.41598 3.07578L 1.41598 2.57578C 1.13195 2.57918 0.888158 2.49681 0.662389 2.29499L 0.334854 2.67278ZM 1.41598 3.07578C 1.88014 3.07578 2.34271 2.8813 2.67054 2.50037L 2.29155 2.17422C 2.06275 2.44009 1.74082 2.57578 1.41598 2.57578L 1.41598 3.07578ZM 2.67039 2.50054C 3.26427 1.81174 3.1923 0.771995 2.51012 0.172169L 2.17996 0.54766C 2.65607 0.966295 2.7066 1.69284 2.2917 2.17405L 2.67039 2.50054Z"/>
<path id="path4_fill" d="M 1.97127 0.119233C 1.26333 -0.192439 0.435591 0.127803 0.1217 0.836395C -0.193993 1.54724 0.125753 2.37987 0.835048 2.69605L 0.882786 2.7159C 1.05797 2.78897 1.23991 2.8228 1.4178 2.8228C 1.97127 2.8228 2.49502 2.49489 2.71885 1.95183C 3.01247 1.23828 2.67832 0.420983 1.97127 0.119233Z"/>
<path id="path5_stroke" d="M 1.97127 0.119233L 1.87053 0.348056L 1.87314 0.349169L 1.97127 0.119233ZM 0.1217 0.836395L 0.350181 0.937866L 0.350277 0.93765L 0.1217 0.836395ZM 0.835048 2.69605L 0.733228 2.92447L 0.73908 2.9269L 0.835048 2.69605ZM 0.882786 2.7159L 0.979025 2.48517L 0.978755 2.48505L 0.882786 2.7159ZM 2.71885 1.95183L 2.94998 2.04709L 2.95004 2.04696L 2.71885 1.95183ZM 2.07201 -0.109574C 1.23784 -0.476814 0.262821 -0.0994329 -0.106877 0.73514L 0.350277 0.93765C 0.608361 0.355039 1.28881 0.091936 1.87054 0.348041L 2.07201 -0.109574ZM -0.106782 0.734925C -0.47839 1.57168 -0.102177 2.55198 0.733261 2.9244L 0.936835 2.46771C 0.353682 2.20776 0.0904043 1.52281 0.350181 0.937866L -0.106782 0.734925ZM 0.73908 2.9269L 0.786817 2.94675L 0.978755 2.48505L 0.931017 2.46521L 0.73908 2.9269ZM 0.786547 2.94663C 0.986603 3.02857 1.21696 3.07174 1.4178 3.0728L 1.4178 2.5728C 1.26286 2.57385 1.12934 2.54937 0.979025 2.48517L 0.786547 2.94663ZM 1.4178 3.0728C 2.06905 3.0728 2.68626 2.68698 2.94998 2.04709L 2.48771 1.85657C 2.30379 2.3028 1.87349 2.5728 1.4178 2.5728L 1.4178 3.0728ZM 2.95004 2.04696C 3.29555 1.20731 2.90268 0.244921 2.0694 -0.110702L 1.87314 0.349169C 2.45395 0.597044 2.72939 1.26924 2.48765 1.8567L 2.95004 2.04696Z"/>
<path id="path6_fill" d="M 2.49801 0.526282C 2.49576 0.523575 2.48495 0.510044 2.48315 0.507789C 1.98867 -0.0902972 1.11004 -0.170133 0.511084 0.321958C -0.0869755 0.814499 -0.171641 1.70441 0.317885 2.30566C 0.595299 2.6471 1.00016 2.82436 1.40907 2.82436C 1.72116 2.82436 2.03505 2.72062 2.29626 2.50772C 2.89792 2.01608 2.98844 1.12933 2.49801 0.526282Z"/>
<path id="path7_stroke" d="M 2.49801 0.526282L 2.69198 0.368536L 2.69019 0.366382L 2.49801 0.526282ZM 2.48315 0.507789L 2.67851 0.35174L 2.67582 0.34849L 2.48315 0.507789ZM 0.511084 0.321958L 0.352383 0.12879L 0.352153 0.128979L 0.511084 0.321958ZM 0.317885 2.30566L 0.511916 2.14801L 0.511753 2.14781L 0.317885 2.30566ZM 2.29626 2.50772L 2.4542 2.70151L 2.45444 2.70131L 2.29626 2.50772ZM 2.69019 0.366382C 2.6909 0.367237 2.69126 0.367683 2.69085 0.367177C 2.69052 0.366772 2.69019 0.366371 2.68962 0.365659C 2.68842 0.364172 2.68703 0.362436 2.68549 0.360516C 2.68241 0.35668 2.67939 0.352896 2.67848 0.351763L 2.28781 0.663815C 2.28961 0.666064 2.30199 0.68154 2.30583 0.686181L 2.69019 0.366382ZM 2.67582 0.34849C 2.09261 -0.356922 1.05664 -0.449809 0.352383 0.12879L 0.669786 0.515126C 1.16345 0.109544 1.88473 0.176328 2.29047 0.667087L 2.67582 0.34849ZM 0.352153 0.128979C -0.3531 0.709801 -0.451488 1.75666 0.124017 2.4635L 0.511753 2.14781C 0.108206 1.65217 0.17915 0.919197 0.670015 0.514937L 0.352153 0.128979ZM 0.123855 2.4633C 0.450775 2.86568 0.928163 3.07436 1.40907 3.07436L 1.40907 2.57436C 1.07215 2.57436 0.739822 2.42852 0.511916 2.14801L 0.123855 2.4633ZM 1.40907 3.07436C 1.76089 3.07118 2.15525 2.93983 2.4542 2.70151L 2.13831 2.31394C 1.91486 2.5014 1.68143 2.57753 1.40907 2.57436L 1.40907 3.07436ZM 2.45444 2.70131C 3.16281 2.12248 3.26939 1.07857 2.69197 0.368546L 2.30405 0.684017C 2.70748 1.18009 2.63302 1.90969 2.13807 2.31413L 2.45444 2.70131Z"/>
<path id="path8_fill" d="M 1.53661 0.00588137L 1.5222 0.00543032C 0.749407 -0.0622265 0.0734358 0.51015 0.00543351 1.28505C -0.0625688 2.05994 0.515678 2.74373 1.28982 2.81183C 1.33171 2.8168 1.37403 2.8186 1.41457 2.8186C 2.13602 2.8186 2.74984 2.26607 2.81424 1.53312C 2.88179 0.758676 2.30986 0.0748913 1.53661 0.00588137Z"/>
<path id="path9_stroke" d="M 1.53661 0.00588137L 1.55883 -0.243129L 1.55165 -0.24377L 1.54443 -0.243996L 1.53661 0.00588137ZM 1.5222 0.00543032L 1.50036 0.254869L 1.51438 0.255308L 1.5222 0.00543032ZM 1.28982 2.81183L 1.31925 2.56346L 1.31173 2.5628L 1.28982 2.81183ZM 2.81424 1.53312L 3.06328 1.555L 3.0633 1.55484L 2.81424 1.53312ZM 1.54443 -0.243996L 1.53002 -0.244447L 1.51438 0.255308L 1.52879 0.255759L 1.54443 -0.243996ZM 1.54401 -0.243617C 0.6321 -0.323453 -0.163678 0.352363 -0.243609 1.26319L 0.254476 1.3069C 0.31055 0.667937 0.866714 0.199 1.5004 0.254478L 1.54401 -0.243617ZM -0.243609 1.26319C -0.32378 2.17675 0.357391 2.98077 1.26791 3.06087L 1.31173 2.5628C 0.673965 2.50669 0.198642 1.94314 0.254476 1.3069L -0.243609 1.26319ZM 1.26041 3.0601C 1.31166 3.06599 1.36871 3.06854 1.41457 3.0686L 1.41457 2.5686C 1.37936 2.56866 1.35175 2.5676 1.31923 2.56357L 1.26041 3.0601ZM 1.41457 3.0686C 2.26484 3.0686 2.98747 2.41781 3.06328 1.555L 2.5652 1.51124C 2.51221 2.11432 2.00721 2.5686 1.41457 2.5686L 1.41457 3.0686ZM 3.0633 1.55484C 3.1428 0.643408 2.46977 -0.16183 1.55883 -0.243129L 1.51439 0.254892C 2.14994 0.311613 2.62079 0.873943 2.56519 1.5114L 3.0633 1.55484Z"/>
<path id="path10_fill" d="M 1.78924 0.0534621C 1.77663 0.0498538 1.74961 0.0435392 1.73655 0.0399308C 0.982671 -0.143194 0.223838 0.320932 0.0400969 1.07598C -0.142744 1.82968 0.317059 2.58834 1.06644 2.77597C 1.18443 2.80664 1.30287 2.82153 1.41996 2.82153C 2.03783 2.82153 2.60482 2.40927 2.7755 1.78277C 2.97996 1.03178 2.53862 0.257786 1.78924 0.0534621Z"/>
<path id="path11_stroke" d="M 1.78924 0.0534621L 1.72046 0.293834L 1.72348 0.294657L 1.78924 0.0534621ZM 1.73655 0.0399308L 1.80316 -0.201159L 1.79556 -0.203005L 1.73655 0.0399308ZM 0.0400969 1.07598L -0.202814 1.01687L -0.202856 1.01704L 0.0400969 1.07598ZM 1.06644 2.77597L 1.12933 2.534L 1.12716 2.53346L 1.06644 2.77597ZM 2.7755 1.78277L 3.01671 1.84848L 3.01672 1.84844L 2.7755 1.78277ZM 1.85802 -0.186891C 1.84659 -0.190163 1.8318 -0.193822 1.82346 -0.195898C 1.8184 -0.197159 1.81387 -0.198282 1.80986 -0.199299C 1.80595 -0.200287 1.80182 -0.201411 1.80313 -0.201041L 1.66997 0.280902C 1.68042 0.283789 1.69452 0.287263 1.70267 0.289291C 1.71247 0.291732 1.72275 0.294505 1.72046 0.293815L 1.85802 -0.186891ZM 1.79556 -0.203005C 0.906833 -0.418885 0.0133892 0.128423 -0.202814 1.01687L 0.283008 1.13509C 0.434287 0.513441 1.05851 0.132498 1.67754 0.282866L 1.79556 -0.203005ZM -0.202856 1.01704C -0.418074 1.9042 0.123078 2.79748 1.00571 3.01848L 1.12716 2.53346C 0.511041 2.37919 0.132587 1.75515 0.28305 1.13492L -0.202856 1.01704ZM 1.00354 3.01793C 1.13729 3.05216 1.28725 3.07104 1.41996 3.07153L 1.41996 2.57153C 1.31848 2.57201 1.23156 2.56113 1.12933 2.53401L 1.00354 3.01793ZM 1.41996 3.07153C 2.14812 3.07153 2.81574 2.58615 3.01671 1.84848L 2.53429 1.71706C 2.39389 2.23239 1.92754 2.57153 1.41996 2.57153L 1.41996 3.07153ZM 3.01672 1.84844C 3.2573 0.964774 2.73806 0.0530395 1.85501 -0.187733L 1.72348 0.294657C 2.33917 0.462532 2.70261 1.09879 2.53428 1.7171L 3.01672 1.84844Z"/>
<path id="path12_fill" d="M 2.19723 0.243967C 2.18102 0.232691 2.16436 0.221866 2.14679 0.212394C 1.48749 -0.198508 0.62102 0.00491296 0.212106 0.666145C -0.196358 1.32332 0.00314548 2.18707 0.655697 2.59978C 0.890328 2.75178 1.15468 2.82485 1.41588 2.82485C 1.87028 2.82485 2.31567 2.60474 2.58723 2.19744C 3.01731 1.55065 2.84303 0.675166 2.19723 0.243967Z"/>
<path id="path13_stroke" d="M 2.19723 0.243967L 2.05446 0.449243L 2.05841 0.45188L 2.19723 0.243967ZM 2.14679 0.212394L 2.01456 0.424562L 2.02122 0.428711L 2.02812 0.432435L 2.14679 0.212394ZM 0.212106 0.666145L 0.424435 0.798118L 0.424733 0.797636L 0.212106 0.666145ZM 0.655697 2.59978L 0.791633 2.38995L 0.789327 2.38849L 0.655697 2.59978ZM 2.58723 2.19744L 2.79524 2.33613L 2.79541 2.33587L 2.58723 2.19744ZM 2.33998 0.0387282C 2.32051 0.0252236 2.29189 0.00684474 2.26546 -0.00764702L 2.02812 0.432435C 2.03682 0.436887 2.04153 0.440158 2.05448 0.449206L 2.33998 0.0387282ZM 2.27902 0.000226103C 1.502 -0.484042 0.481036 -0.244044 -0.000520841 0.534654L 0.424733 0.797636C 0.761004 0.25387 1.47297 0.0870255 2.01456 0.424562L 2.27902 0.000226103ZM -0.000222556 0.534173C -0.481317 1.3082 -0.246295 2.32511 0.522067 2.81107L 0.789327 2.38849C 0.252586 2.04903 0.0886004 1.33844 0.424434 0.798117L -0.000222556 0.534173ZM 0.519769 2.80959C 0.787871 2.97982 1.12108 3.07258 1.41588 3.07485L 1.41588 2.57485C 1.18829 2.57712 0.992784 2.52374 0.791625 2.38996L 0.519769 2.80959ZM 1.41588 3.07485C 1.95061 3.07485 2.47553 2.81563 2.79524 2.33613L 2.37923 2.05876C 2.15581 2.39384 1.78995 2.57485 1.41588 2.57485L 1.41588 3.07485ZM 2.79541 2.33587C 3.30164 1.57455 3.09682 0.544016 2.33605 0.0360537L 2.05841 0.45188C 2.58924 0.806316 2.73298 1.52674 2.37905 2.05902L 2.79541 2.33587Z"/>
<path id="path14_fill" d="M 1.55153 0.00747244C 0.780992 -0.0719115 0.0883584 0.490092 0.00909744 1.26409L 0.00549665 1.29882C -0.0625056 2.07326 0.508529 2.76156 1.28222 2.83011C 1.32411 2.83417 1.36689 2.83553 1.40787 2.83553C 2.12843 2.83553 2.74135 2.28706 2.80575 1.55546L 1.40697 1.40842L 2.80575 1.55275C 2.88591 0.778761 2.32388 0.0868564 1.55153 0.00747244Z"/>
<path id="path15_stroke" d="M 1.55153 0.00747244L 1.52591 0.256156L 1.52597 0.256162L 1.55153 0.00747244ZM 0.00909744 1.26409L 0.257765 1.28987L 0.257797 1.28955L 0.00909744 1.26409ZM 0.00549665 1.29882L -0.243201 1.27303L -0.243545 1.27695L 0.00549665 1.29882ZM 1.28222 2.83011L 1.30634 2.58127L 1.30429 2.58109L 1.28222 2.83011ZM 2.80575 1.55546L 3.05479 1.57738L 3.07634 1.33253L 2.83189 1.30683L 2.80575 1.55546ZM 1.40697 1.40842L 1.43263 1.15974L 1.38084 1.65705L 1.40697 1.40842ZM 2.80575 1.55275L 2.78009 1.80143L 3.02868 1.82708L 3.05442 1.57851L 2.80575 1.55275ZM 1.57715 -0.241211C 0.669218 -0.33475 -0.146268 0.327202 -0.239602 1.23862L 0.257797 1.28955C 0.322985 0.652982 0.892766 0.190927 1.52591 0.256156L 1.57715 -0.241211ZM -0.23957 1.23831L -0.243171 1.27304L 0.254164 1.3246L 0.257765 1.28987L -0.23957 1.23831ZM -0.243545 1.27695C -0.323486 2.18736 0.347517 2.99827 1.26016 3.07914L 1.30429 2.58109C 0.669542 2.52484 0.198475 1.95916 0.254538 1.32069L -0.243545 1.27695ZM 1.25811 3.07895C 1.30809 3.08366 1.36294 3.0855 1.40787 3.08553L 1.40787 2.58553C 1.37085 2.58556 1.34013 2.58469 1.30634 2.58128L 1.25811 3.07895ZM 1.40787 3.08553C 2.2564 3.08553 2.97889 2.43965 3.05479 1.57738L 2.55671 1.53354C 2.50382 2.13447 2.00045 2.58553 1.40787 2.58553L 1.40787 3.08553ZM 2.83189 1.30683L 1.43311 1.15979L 1.38084 1.65705L 2.77961 1.80409L 2.83189 1.30683ZM 1.38131 1.6571L 2.78009 1.80143L 2.83141 1.30407L 1.43263 1.15974L 1.38131 1.6571ZM 3.05442 1.57851C 3.14878 0.667415 2.48717 -0.147677 1.5771 -0.241217L 1.52597 0.256162C 2.16058 0.321389 2.62304 0.890107 2.55708 1.527L 3.05442 1.57851Z"/>
<path id="path16_fill" d="M 1.99092 0.125C 1.28342 -0.194791 0.450282 0.12004 0.130085 0.829534L 0.111174 0.874187C -0.191008 1.5909 0.144048 2.41766 0.859197 2.71941C 1.03844 2.79519 1.22308 2.83127 1.40592 2.83127C 1.94904 2.83127 2.46603 2.51328 2.69616 1.98466C 3.0123 1.27562 2.69706 0.443889 1.99092 0.125Z"/>
<path id="path17_stroke" d="M 1.99092 0.125L 1.88795 0.352809L 1.88802 0.352844L 1.99092 0.125ZM 0.130085 0.829534L -0.0978459 0.726669L -0.100121 0.73204L 0.130085 0.829534ZM 0.111174 0.874187L -0.119032 0.776693L -0.119187 0.777061L 0.111174 0.874187ZM 0.859197 2.71941L 0.956547 2.48914L 0.956385 2.48908L 0.859197 2.71941ZM 2.69616 1.98466L 2.46782 1.88285L 2.46694 1.88487L 2.69616 1.98466ZM 2.09389 -0.102809C 1.26028 -0.479603 0.279121 -0.108454 -0.0977839 0.726697L 0.357955 0.932372C 0.621442 0.348535 1.30656 0.0900209 1.88795 0.352809L 2.09389 -0.102809ZM -0.100121 0.73204L -0.119032 0.776693L 0.34138 0.971682L 0.360291 0.927029L -0.100121 0.73204ZM -0.119187 0.777061C -0.47479 1.62047 -0.0808264 2.59412 0.76201 2.94975L 0.956385 2.48908C 0.368921 2.2412 0.0927739 1.56132 0.341536 0.971313L -0.119187 0.777061ZM 0.761848 2.94968C 0.965395 3.03428 1.19899 3.08011 1.40592 3.08127L 1.40592 2.58127C 1.24717 2.58243 1.11148 2.55609 0.956547 2.48914L 0.761848 2.94968ZM 1.40592 3.08127C 2.04545 3.08127 2.65433 2.70708 2.92538 2.08445L 2.46694 1.88487C 2.27773 2.31949 1.85262 2.58127 1.40592 2.58127L 1.40592 3.08127ZM 2.92449 2.08647C 3.29644 1.25225 2.92587 0.272909 2.09381 -0.102844L 1.88802 0.352844C 2.46825 0.614869 2.72816 1.29898 2.46783 1.88285L 2.92449 2.08647Z"/>
<path id="path18_fill" d="M 2.63552 0.726114C 2.62921 0.714838 2.6157 0.691384 2.60939 0.680108C 2.20813 0.0134633 1.34437 -0.198077 0.68011 0.202451C 0.0172004 0.602528 -0.196713 1.46402 0.197339 2.12886C 0.45854 2.5763 0.929154 2.82844 1.41418 2.82844C 1.64881 2.82844 1.88704 2.76935 2.10546 2.64486C 2.78188 2.26147 3.01876 1.40313 2.63552 0.726114Z"/>
<path id="path19_stroke" d="M 2.63552 0.726114L 2.41731 0.848123L 2.41796 0.84927L 2.63552 0.726114ZM 2.60939 0.680108L 2.82771 0.558039L 2.82358 0.551184L 2.60939 0.680108ZM 0.68011 0.202451L 0.551019 -0.0116411L 0.550933 -0.0115892L 0.68011 0.202451ZM 0.197339 2.12886L 0.413248 2.00282L 0.412402 2.0014L 0.197339 2.12886ZM 2.10546 2.64486L 1.98219 2.42737L 1.98167 2.42766L 2.10546 2.64486ZM 2.85372 0.604108C 2.84662 0.591417 2.83311 0.567963 2.8276 0.558101L 2.39118 0.802115C 2.39829 0.814805 2.4118 0.838259 2.41731 0.848121L 2.85372 0.604108ZM 2.82358 0.551184C 2.35078 -0.234333 1.33307 -0.483195 0.551019 -0.0116411L 0.809201 0.416544C 1.35567 0.0870411 2.06549 0.261259 2.3952 0.809032L 2.82358 0.551184ZM 0.550933 -0.0115892C -0.230125 0.459792 -0.481419 1.47399 -0.017723 2.25633L 0.412402 2.0014C 0.0879924 1.45406 0.264526 0.745264 0.809287 0.416492L 0.550933 -0.0115892ZM -0.0185641 2.2549C 0.288927 2.78164 0.843236 3.07844 1.41418 3.07844L 1.41418 2.57844C 1.01507 2.57844 0.628153 2.37097 0.413243 2.00283L -0.0185641 2.2549ZM 1.41418 3.07844C 1.67912 3.07659 1.97991 3.00146 2.22925 2.86206L 1.98167 2.42766C 1.79418 2.53724 1.61849 2.58028 1.41418 2.57844L 1.41418 3.07844ZM 2.22873 2.86235C 3.02546 2.41078 3.30418 1.39985 2.85308 0.602958L 2.41796 0.84927C 2.73334 1.40642 2.5383 2.11217 1.98219 2.42737L 2.22873 2.86235Z"/>
<path id="path20_fill" d="M 2.81117 1.33272L 2.80937 1.31873C 2.76434 0.542032 2.10098 -0.0438754 1.32368 0.00258227C 0.548188 0.0481378 -0.0422189 0.721547 0.00236537 1.49825C 0.0464993 2.24608 0.667082 2.82342 1.40565 2.82342C 1.43267 2.82342 1.46104 2.82252 1.48896 2.82071C 2.26446 2.77516 2.85621 2.10941 2.81117 1.33272Z"/>
<path id="path21_stroke" d="M 2.81117 1.33272L 3.06076 1.31824L 3.06025 1.30949L 3.05913 1.30079L 2.81117 1.33272ZM 2.80937 1.31873L 2.55979 1.3332L 2.5603 1.34196L 2.56142 1.35066L 2.80937 1.31873ZM 1.32368 0.00258227L 1.33834 0.252152L 1.3386 0.252137L 1.32368 0.00258227ZM 0.00236537 1.49825L -0.247224 1.51257L -0.2472 1.51298L 0.00236537 1.49825ZM 1.48896 2.82071L 1.4743 2.57114L 1.47284 2.57123L 1.48896 2.82071ZM 3.05913 1.30079L 3.05733 1.28681L 2.56142 1.35066L 2.56322 1.36464L 3.05913 1.30079ZM 3.05895 1.30426C 3.00586 0.388566 2.22308 -0.301619 1.30877 -0.246972L 1.3386 0.252137C 1.97888 0.213868 2.52282 0.695498 2.55979 1.3332L 3.05895 1.30426ZM 1.30902 -0.246987C 0.393491 -0.193206 -0.299579 0.600505 -0.247224 1.51257L 0.251955 1.48392C 0.215141 0.84259 0.702884 0.289481 1.33834 0.252152L 1.30902 -0.246987ZM -0.2472 1.51298C -0.195231 2.39358 0.535385 3.07342 1.40565 3.07342L 1.40565 2.57342C 0.798779 2.57342 0.288229 2.09858 0.251931 1.48352L -0.2472 1.51298ZM 1.40565 3.07342C 1.43664 3.07339 1.47307 3.07223 1.50508 3.07019L 1.47284 2.57123C 1.44901 2.57281 1.4287 2.57345 1.40565 2.57342L 1.40565 3.07342ZM 1.50362 3.07028C 2.41715 3.01662 3.11376 2.23244 3.06076 1.31824L 2.56159 1.34719C 2.59866 1.98639 2.11176 2.5337 1.4743 2.57114L 1.50362 3.07028Z"/>
<path id="path22_fill" d="M 2.71782 0.899617L 1.40731 1.40885L 2.71647 0.896009C 2.4341 0.172081 1.61853 -0.1865 0.895271 0.0972075C 0.172015 0.380464 -0.186015 1.19686 0.0968023 1.92123C 0.0995044 1.92665 0.106261 1.94424 0.107612 1.94965C 0.328281 2.49632 0.853385 2.82784 1.40911 2.82784C 1.58295 2.82784 1.75903 2.79581 1.93106 2.7268C 2.65071 2.43994 3.00154 1.62129 2.71782 0.899617Z"/>
<path id="path23_stroke" d="M 2.71782 0.899617L 2.95049 0.808147L 2.85938 0.576401L 2.62727 0.666591L 2.71782 0.899617ZM 1.40731 1.40885L 1.31613 1.17607L 1.49786 1.64187L 1.40731 1.40885ZM 2.71647 0.896009L 2.80765 1.12879L 3.04009 1.03773L 2.94938 0.805162L 2.71647 0.896009ZM 0.895271 0.0972075L 0.986439 0.329992L 0.986564 0.329942L 0.895271 0.0972075ZM 0.0968023 1.92123L -0.136078 2.01216L -0.131947 2.02274L -0.126874 2.0329L 0.0968023 1.92123ZM 0.107612 1.94965L -0.134946 2.01019L -0.13073 2.02709L -0.124214 2.04323L 0.107612 1.94965ZM 1.93106 2.7268L 1.83849 2.49457L 1.83798 2.49477L 1.93106 2.7268ZM 2.62727 0.666591L 1.31676 1.17582L 1.49786 1.64187L 2.80837 1.13264L 2.62727 0.666591ZM 1.4985 1.64162L 2.80765 1.12879L 2.62528 0.663232L 1.31613 1.17607L 1.4985 1.64162ZM 2.94938 0.805162C 2.61695 -0.0470979 1.65642 -0.469909 0.803977 -0.135527L 0.986564 0.329942C 1.58064 0.0969093 2.25125 0.39126 2.48356 0.986855L 2.94938 0.805162ZM 0.804103 -0.135577C -0.0475398 0.197961 -0.469104 1.15918 -0.136078 2.01216L 0.329682 1.83031C 0.0970742 1.23453 0.391569 0.562967 0.986439 0.329992L 0.804103 -0.135577ZM -0.126874 2.0329C -0.128985 2.02867 -0.130345 2.0256 -0.130694 2.02481C -0.131207 2.02365 -0.131482 2.02298 -0.131493 2.02295C -0.131508 2.02292 -0.131244 2.02356 -0.130842 2.02461C -0.130314 2.02598 -0.130332 2.02602 -0.130455 2.02563C -0.130538 2.02539 -0.130927 2.02427 -0.131491 2.02249C -0.131862 2.02132 -0.13333 2.01667 -0.134946 2.01019L 0.350169 1.8891C 0.343565 1.86264 0.329604 1.82785 0.320478 1.80957L -0.126874 2.0329ZM -0.124214 2.04323C 0.135902 2.68762 0.754932 3.07784 1.40911 3.07784L 1.40911 2.57784C 0.951837 2.57784 0.520661 2.30502 0.339437 1.85607L -0.124214 2.04323ZM 1.40911 3.07784C 1.6054 3.07682 1.82829 3.03603 2.02414 2.95883L 1.83798 2.49477C 1.68977 2.55559 1.56049 2.57885 1.40911 2.57784L 1.40911 3.07784ZM 2.02363 2.95903C 2.87216 2.62079 3.28414 1.65684 2.95049 0.808147L 2.48516 0.991087C 2.71894 1.58574 2.42927 2.25908 1.83849 2.49457L 2.02363 2.95903Z"/>
<path id="path24_fill" d="M 2.78604 1.13712C 2.78424 1.1272 2.77883 1.10465 2.77658 1.09517C 2.60455 0.336968 1.85202 -0.136631 1.09498 0.0352177C 0.339754 0.206164 -0.134462 0.958959 0.0339676 1.71536C 0.174926 2.37524 0.756778 2.82944 1.40708 2.82944C 1.5012 2.82944 1.59667 2.81997 1.69305 2.80103C 2.45233 2.64361 2.94321 1.89894 2.78604 1.13712Z"/>
<path id="path25_stroke" d="M 2.78604 1.13712L 2.53999 1.18179L 2.54119 1.18764L 2.78604 1.13712ZM 2.77658 1.09517L 2.53277 1.1505L 2.53336 1.153L 2.77658 1.09517ZM 1.09498 0.0352177L 1.15018 0.279049L 1.15033 0.279015L 1.09498 0.0352177ZM 0.0339676 1.71536L 0.278461 1.66314L 0.277991 1.66102L 0.0339676 1.71536ZM 1.69305 2.80103L 1.74127 3.04635L 1.7438 3.04582L 1.69305 2.80103ZM 3.03202 1.09247C 3.02888 1.07573 3.022 1.04662 3.0198 1.03735L 2.53336 1.153C 2.53452 1.15788 2.53623 1.16504 2.53786 1.1721C 2.53867 1.17563 2.53925 1.17817 2.53982 1.18081C 2.54043 1.1836 2.54038 1.18356 2.54006 1.18178L 3.03202 1.09247ZM 3.02038 1.03986C 2.8178 0.146979 1.93132 -0.410992 1.03964 -0.20858L 1.15033 0.279015C 1.77272 0.137731 2.3913 0.526957 2.53278 1.15049L 3.02038 1.03986ZM 1.03979 -0.208614C 0.149482 -0.00709253 -0.408253 0.879611 -0.210056 1.7697L 0.277991 1.66102C 0.13933 1.03831 0.530026 0.41942 1.15018 0.279049L 1.03979 -0.208614ZM -0.210517 1.76759C -0.0445544 2.54452 0.640591 3.07944 1.40708 3.07944L 1.40708 2.57944C 0.872966 2.57944 0.394406 2.20596 0.278452 1.66314L -0.210517 1.76759ZM 1.40708 3.07944C 1.51356 3.07914 1.63316 3.06729 1.74126 3.04633L 1.64483 2.55572C 1.56018 2.57265 1.48884 2.57975 1.40708 2.57944L 1.40708 3.07944ZM 1.7438 3.04582C 2.63807 2.86042 3.21595 1.98366 3.03088 1.08661L 2.54119 1.18764C 2.67046 1.81421 2.26658 2.4268 1.64229 2.55623L 1.7438 3.04582Z"/>
<path id="path26_fill" d="M 1.76193 0.0451617C 1.0094 -0.149239 0.243367 0.301806 0.0501684 1.05505C -0.154739 1.80559 0.286594 2.57958 1.03642 2.78436C 1.15982 2.81774 1.28457 2.83442 1.40706 2.83442C 2.02494 2.83442 2.59237 2.42262 2.76305 1.79567C 2.76485 1.78936 2.77071 1.76906 2.77161 1.76364C 2.96571 1.0104 2.51401 0.240013 1.76193 0.0451617Z"/>
<path id="path27_stroke" d="M 1.76193 0.0451617L 1.82463 -0.196848L 1.82446 -0.196892L 1.76193 0.0451617ZM 0.0501684 1.05505L 0.291371 1.1209L 0.29233 1.11716L 0.0501684 1.05505ZM 1.03642 2.78436L 0.970559 3.02553L 0.971144 3.02569L 1.03642 2.78436ZM 2.76305 1.79567L 2.52262 1.72708L 2.52183 1.73L 2.76305 1.79567ZM 2.77161 1.76364L 2.52952 1.70126L 2.52679 1.71183L 2.525 1.7226L 2.77161 1.76364ZM 1.82446 -0.196892C 0.938414 -0.425785 0.0356344 0.105462 -0.191993 0.99294L 0.29233 1.11716C 0.451099 0.498149 1.08039 0.127307 1.6994 0.287216L 1.82446 -0.196892ZM -0.191005 0.989207C -0.432206 1.87268 0.0872913 2.78431 0.970559 3.02553L 1.10228 2.54319C 0.485898 2.37486 0.122727 1.7385 0.291342 1.12089L -0.191005 0.989207ZM 0.971144 3.02569C 1.1105 3.06282 1.26796 3.08387 1.40706 3.08442L 1.40706 2.58442C 1.30118 2.58498 1.20913 2.57265 1.1017 2.54303L 0.971144 3.02569ZM 1.40706 3.08442C 2.13504 3.08442 2.80327 2.59967 3.00427 1.86134L 2.52183 1.73C 2.38147 2.24558 1.91483 2.58442 1.40706 2.58442L 1.40706 3.08442ZM 3.00346 1.86425C 3.00428 1.86138 3.0065 1.85365 3.00868 1.84575C 3.01087 1.83778 3.01562 1.81871 3.01822 1.80468L 2.525 1.7226C 2.52566 1.71867 2.52627 1.71565 2.5266 1.71405C 2.52696 1.71229 2.52726 1.71096 2.52743 1.71021C 2.52776 1.70878 2.52796 1.70803 2.52789 1.7083C 2.52776 1.70882 2.52736 1.71031 2.52665 1.71289C 2.52523 1.71807 2.52362 1.72364 2.52264 1.72709L 3.00346 1.86425ZM 3.0137 1.82603C 3.24203 0.939938 2.71098 0.032791 1.82463 -0.196848L 1.69923 0.287171C 2.31704 0.447236 2.68939 1.08086 2.52952 1.70126L 3.0137 1.82603Z"/>
<path id="path28_fill" d="M 1.74162 0.0397837C 0.986386 -0.14289 0.227103 0.320785 0.0433614 1.07674L 0.0397588 1.09072C -0.143082 1.84622 0.322126 2.60082 1.07736 2.78439C 1.18724 2.81101 1.29758 2.82363 1.40611 2.82363C 2.042 2.82363 2.61979 2.38612 2.77696 1.74068C 2.9598 0.984723 2.49595 0.22381 1.74162 0.0397837Z"/>
<path id="path29_stroke" d="M 1.74162 0.0397837L 1.80087 -0.203094L 1.80039 -0.203209L 1.74162 0.0397837ZM 0.0433614 1.07674L 0.285477 1.13912L 0.286288 1.13578L 0.0433614 1.07674ZM 0.0397588 1.09072L -0.20236 1.02833L -0.203227 1.03191L 0.0397588 1.09072ZM 1.07736 2.78439L 1.01831 3.02732L 1.01851 3.02737L 1.07736 2.78439ZM 2.77696 1.74068L 3.01987 1.79982L 3.01996 1.79945L 2.77696 1.74068ZM 1.80039 -0.203209C 0.910757 -0.418392 0.0166849 0.127988 -0.199566 1.01769L 0.286288 1.13578C 0.43752 0.513581 1.06201 0.132612 1.68284 0.282777L 1.80039 -0.203209ZM -0.198732 1.01436L -0.202334 1.02834L 0.281852 1.1531L 0.285454 1.13911L -0.198732 1.01436ZM -0.203227 1.03191C -0.418861 1.92292 0.130416 2.8115 1.01831 3.02732L 1.13641 2.54147C 0.513837 2.39014 0.132698 1.76952 0.282744 1.14952L -0.203227 1.03191ZM 1.01851 3.02737C 1.14352 3.05715 1.28334 3.07323 1.40611 3.07363L 1.40611 2.57363C 1.31181 2.57404 1.23096 2.56486 1.1362 2.54142L 1.01851 3.02737ZM 1.40611 3.07363C 2.15585 3.07363 2.83508 2.55867 3.01987 1.79982L 2.53406 1.68153C 2.4045 2.21357 1.92814 2.57363 1.40611 2.57363L 1.40611 3.07363ZM 3.01996 1.79945C 3.2352 0.909527 2.68919 0.0136228 1.80087 -0.203093L 1.68236 0.282661C 2.3027 0.433997 2.68441 1.05992 2.53397 1.6819L 3.01996 1.79945Z"/>
<path id="path30_fill" d="M 1.95572 0.109494C 1.23922 -0.190451 0.415536 0.146929 0.115605 0.864091L 0.111102 0.874466C -0.19108 1.59073 0.144428 2.41704 0.859578 2.71969C 1.03837 2.79457 1.22391 2.8302 1.40585 2.8302C 1.95437 2.8302 2.47542 2.5068 2.70194 1.96915L 2.70915 1.95382C 3.00863 1.2362 2.67177 0.411243 1.95572 0.109494Z"/>
<path id="path31_stroke" d="M 1.95572 0.109494L 2.0528 -0.120886L 2.05226 -0.121115L 1.95572 0.109494ZM 0.115605 0.864091L 0.344953 0.963644L 0.346247 0.96055L 0.115605 0.864091ZM 0.111102 0.874466L -0.118238 0.774917L -0.119238 0.777288L 0.111102 0.874466ZM 0.859578 2.71969L 0.762143 2.94993L 0.763008 2.95029L 0.859578 2.71969ZM 2.70194 1.96915L 2.47549 1.86275L 2.47156 1.87208L 2.70194 1.96915ZM 2.70915 1.95382L 2.93563 2.06024L 2.93986 2.0501L 2.70915 1.95382ZM 2.05226 -0.121115C 1.2084 -0.474376 0.238193 -0.0769727 -0.115036 0.767632L 0.346247 0.96055C 0.592879 0.370831 1.27004 0.0934739 1.85918 0.340102L 2.05226 -0.121115ZM -0.113722 0.764547L -0.118225 0.774922L 0.340429 0.97401L 0.344933 0.963635L -0.113722 0.764547ZM -0.119238 0.777288C -0.47502 1.62059 -0.0801264 2.59348 0.762144 2.94992L 0.957012 2.48946C 0.368982 2.24061 0.092859 1.56086 0.341442 0.971644L -0.119238 0.777288ZM 0.763008 2.95029C 0.966119 3.0339 1.20023 3.07907 1.40585 3.0802L 1.40585 2.5802C 1.24759 2.58132 1.11061 2.55523 0.956147 2.4891L 0.763008 2.95029ZM 1.40585 3.0802C 2.05156 3.0802 2.66547 2.69961 2.93233 2.06622L 2.47156 1.87208C 2.28537 2.31399 1.85717 2.5802 1.40585 2.5802L 1.40585 3.0802ZM 2.92821 2.07547L 2.93542 2.06013L 2.48288 1.8475L 2.47568 1.86283L 2.92821 2.07547ZM 2.93986 2.0501C 3.29229 1.20561 2.89601 0.234447 2.0528 -0.120886L 1.85864 0.339873C 2.44753 0.588039 2.72497 1.2668 2.47843 1.85753L 2.93986 2.0501Z"/>
<path id="path32_fill" d="M 2.77786 1.09662C 2.60583 0.337959 1.85195 -0.13699 1.09492 0.0353092C 0.337436 0.207608 -0.136777 0.962207 0.0352548 1.72041C 0.0370561 1.72718 0.0415595 1.74793 0.0433608 1.75334C 0.199631 2.39833 0.776524 2.83314 1.41061 2.83314C 1.52005 2.83314 1.63083 2.82051 1.74207 2.7939C 2.49685 2.61032 2.96115 1.85212 2.77786 1.09662Z"/>
<path id="path33_stroke" d="M 2.77786 1.09662L 2.53402 1.15191L 2.53491 1.15556L 2.77786 1.09662ZM 1.09492 0.0353092L 1.15037 0.279082L 1.1504 0.279075L 1.09492 0.0353092ZM 0.0352548 1.72041L -0.208716 1.77577L -0.206329 1.78474L 0.0352548 1.72041ZM 0.0433608 1.75334L 0.286331 1.69447L 0.28387 1.68431L 0.280568 1.67439L 0.0433608 1.75334ZM 1.74207 2.7939L 1.80023 3.03704L 1.80115 3.03682L 1.74207 2.7939ZM 3.02167 1.04133C 2.81914 0.148168 1.9314 -0.411466 1.03944 -0.208457L 1.1504 0.279075C 1.7725 0.137485 2.39252 0.52775 2.53405 1.1519L 3.02167 1.04133ZM 1.03947 -0.208464C 0.147064 -0.00547476 -0.411042 0.88327 -0.208548 1.77573L 0.279058 1.6651C 0.137487 1.04114 0.527809 0.420692 1.15037 0.279082L 1.03947 -0.208464ZM -0.206329 1.78474C -0.206924 1.7825 -0.207072 1.78175 -0.206286 1.78508C -0.205691 1.7876 -0.204933 1.79087 -0.204066 1.79456C -0.203197 1.79826 -0.201986 1.80333 -0.200934 1.80755C -0.200354 1.80986 -0.199376 1.81364 -0.198652 1.81632C -0.19794 1.81893 -0.196253 1.82506 -0.193847 1.83229L 0.280568 1.67439C 0.281683 1.67774 0.282466 1.68036 0.28287 1.68173C 0.283312 1.68324 0.283626 1.68437 0.28379 1.68498C 0.284103 1.68613 0.284226 1.68664 0.28411 1.68617C 0.283754 1.68477 0.283388 1.68322 0.282682 1.68021C 0.281973 1.67719 0.281155 1.67367 0.280342 1.67022C 0.279922 1.66844 0.279371 1.66614 0.278918 1.66428C 0.278455 1.66238 0.277716 1.65939 0.276838 1.65609L -0.206329 1.78474ZM -0.19961 1.81221C -0.0156992 2.57129 0.663129 3.08314 1.41061 3.08314L 1.41061 2.58314C 0.889919 2.58314 0.414961 2.22538 0.286331 1.69447L -0.19961 1.81221ZM 1.41061 3.08314C 1.53423 3.08274 1.67416 3.06673 1.80023 3.03704L 1.6839 2.55076C 1.58751 2.57429 1.50586 2.58355 1.41061 2.58314L 1.41061 3.08314ZM 1.80115 3.03682C 2.68944 2.82077 3.23679 1.9279 3.02081 1.03767L 2.53491 1.15556C 2.68552 1.77634 2.30426 2.39988 1.68298 2.55098L 1.80115 3.03682Z"/>
<path id="path34_fill" d="M 2.61018 0.681495C 2.20893 0.0148498 1.34471 -0.198944 0.67955 0.202486C 0.0143882 0.604819 -0.198626 1.46992 0.202633 2.13611C 0.205335 2.14153 0.215693 2.15822 0.218846 2.16363C 0.485001 2.59393 0.945705 2.83072 1.41677 2.83072C 1.67031 2.83072 1.92566 2.76262 2.15624 2.61964C 2.81599 2.20874 3.02045 1.34273 2.61018 0.681495Z"/>
<path id="path35_stroke" d="M 2.61018 0.681495L 2.39597 0.810431L 2.39775 0.813299L 2.61018 0.681495ZM 0.67955 0.202486L 0.550374 -0.0115552L 0.550161 -0.0114266L 0.67955 0.202486ZM 0.202633 2.13611L 0.426309 2.02445L 0.421891 2.0156L 0.416787 2.00713L 0.202633 2.13611ZM 0.218846 2.16363L 0.00274014 2.2895L 0.00623104 2.29514L 0.218846 2.16363ZM 2.15624 2.61964L 2.28799 2.8321L 2.2884 2.83185L 2.15624 2.61964ZM 2.82438 0.55257C 2.35186 -0.232469 1.33384 -0.484386 0.550374 -0.0115551L 0.808725 0.416527C 1.35558 0.0864975 2.066 0.262169 2.39599 0.810419L 2.82438 0.55257ZM 0.550161 -0.0114266C -0.233246 0.462428 -0.483767 1.48105 -0.0115213 2.2651L 0.416787 2.00713C 0.0865154 1.45879 0.262022 0.747209 0.808938 0.416399L 0.550161 -0.0114266ZM -0.0210432 2.24778C -0.0183033 2.25327 -0.0158086 2.2578 -0.0144882 2.26017C -0.013232 2.26242 -0.0114436 2.26556 -0.0103064 2.26752C -0.00820131 2.27113 -0.00560281 2.2755 -0.00370097 2.27867C -0.00179946 2.28183 2.81373e-05 2.28484 0.00139615 2.28711C 0.00311162 2.28995 0.00324121 2.29018 0.00281624 2.28945L 0.434876 2.03781C 0.432874 2.03437 0.430527 2.03049 0.429329 2.02851C 0.427784 2.02595 0.426262 2.02344 0.424842 2.02108C 0.423422 2.01872 0.422728 2.01756 0.422032 2.01635C 0.421808 2.01597 0.421992 2.01628 0.42244 2.01708C 0.422665 2.01749 0.424245 2.02031 0.426309 2.02445L -0.0210432 2.24778ZM 0.00623104 2.29514C 0.31983 2.80214 0.862733 3.08072 1.41677 3.08072L 1.41677 2.58072C 1.02868 2.58072 0.650171 2.38571 0.431461 2.03212L 0.00623104 2.29514ZM 1.41677 3.08072C 1.7028 3.0786 2.02482 2.99211 2.28799 2.8321L 2.02449 2.40717C 1.8265 2.53313 1.63782 2.58284 1.41677 2.58072L 1.41677 3.08072ZM 2.2884 2.83185C 3.06466 2.34839 3.30593 1.32866 2.82262 0.54969L 2.39775 0.813299C 2.73496 1.35679 2.56733 2.06909 2.02407 2.40743L 2.2884 2.83185Z"/>
<path id="path36_fill" d="M 2.80903 1.3047C 2.75229 0.529355 2.07812 -0.053397 1.30352 0.00388572C 0.528478 0.0607174 -0.0529191 0.735933 0.00382457 1.51173L 0.00562582 1.52526C 0.059217 2.26543 0.67484 2.82382 1.40395 2.82382C 1.43908 2.82382 1.4742 2.82247 1.50933 2.81976C 2.28528 2.76293 2.86623 2.08095 2.80903 1.3047Z"/>
<path id="path37_stroke" d="M 2.80903 1.3047L 2.5597 1.32295L 2.55971 1.32307L 2.80903 1.3047ZM 1.30352 0.00388572L 1.32181 0.253216L 1.32196 0.253205L 1.30352 0.00388572ZM 0.00382457 1.51173L -0.245509 1.52997L -0.244968 1.53737L -0.243989 1.54472L 0.00382457 1.51173ZM 0.00562582 1.52526L 0.254973 1.50721L 0.254431 1.49972L 0.25344 1.49227L 0.00562582 1.52526ZM 1.50933 2.81976L 1.49107 2.57043L 1.49013 2.5705L 1.50933 2.81976ZM 3.05836 1.28645C 2.99156 0.373655 2.19778 -0.312928 1.28509 -0.245433L 1.32196 0.253205C 1.95846 0.206134 2.51301 0.685055 2.5597 1.32295L 3.05836 1.28645ZM 1.28524 -0.245445C 0.372014 -0.178481 -0.312287 0.616983 -0.245509 1.52997L 0.253159 1.49349C 0.206449 0.854884 0.684942 0.299916 1.32181 0.253216L 1.28524 -0.245445ZM -0.243989 1.54472L -0.242188 1.55825L 0.25344 1.49227L 0.251638 1.47874L -0.243989 1.54472ZM -0.243721 1.54332C -0.180521 2.4162 0.54578 3.07382 1.40395 3.07382L 1.40395 2.57382C 0.8039 2.57382 0.298955 2.11466 0.254973 1.50721L -0.243721 1.54332ZM 1.40395 3.07382C 1.44388 3.07377 1.48861 3.07205 1.52854 3.06902L 1.49013 2.5705C 1.4598 2.57288 1.43427 2.57387 1.40395 2.57382L 1.40395 3.07382ZM 1.52759 3.06909C 2.44321 3.00203 3.12556 2.19839 3.05836 1.28633L 2.55971 1.32307C 2.60689 1.96352 2.12734 2.52383 1.49107 2.57043L 1.52759 3.06909Z"/>
<path id="path38_fill" d="M 1.5314 0.00556888C 0.758604 -0.06299 0.0749793 0.509386 0.00697705 1.28473L 0.00382464 1.31901C -0.052919 2.09526 0.528478 2.77318 1.30352 2.83047C 1.3382 2.83272 1.37333 2.83452 1.408 2.83452C 2.13711 2.83452 2.75364 2.27252 2.80813 1.53281C 2.87658 0.757462 2.30509 0.0736767 1.5314 0.00556888Z"/>
<path id="path39_stroke" d="M 1.5314 0.00556888L 1.50931 0.254591L 1.50948 0.254606L 1.5314 0.00556888ZM 0.00697705 1.28473L 0.255929 1.30763L 0.256021 1.30657L 0.00697705 1.28473ZM 0.00382464 1.31901L -0.245169 1.29611L -0.24551 1.30079L 0.00382464 1.31901ZM 1.30352 2.83047L 1.2851 3.07979L 1.2873 3.07994L 1.30352 2.83047ZM 2.80813 1.53281L 2.55907 1.51082L 2.55881 1.51444L 2.80813 1.53281ZM 1.55349 -0.243453C 0.642885 -0.324238 -0.162009 0.350085 -0.242067 1.26289L 0.256021 1.30657C 0.311967 0.668686 0.874323 0.198258 1.50931 0.254591L 1.55349 -0.243453ZM -0.241972 1.26184L -0.245125 1.29612L 0.252774 1.34191L 0.255927 1.30763L -0.241972 1.26184ZM -0.24551 1.30079C -0.312238 2.21362 0.371392 3.01225 1.2851 3.07979L 1.32195 2.58115C 0.685564 2.53411 0.2064 1.97691 0.253159 1.33724L -0.24551 1.30079ZM 1.2873 3.07994C 1.32368 3.0823 1.36692 3.08444 1.408 3.08452L 1.408 2.58452C 1.37974 2.58461 1.35272 2.58314 1.31975 2.58099L 1.2873 3.07994ZM 1.408 3.08452C 2.26686 3.08452 2.99325 2.42267 3.05745 1.55118L 2.55881 1.51444C 2.51402 2.12238 2.00737 2.58452 1.408 2.58452L 1.408 3.08452ZM 3.05716 1.55479C 3.13771 0.642455 2.46515 -0.163201 1.55332 -0.243468L 1.50948 0.254606C 2.14504 0.310554 2.61546 0.872468 2.5591 1.51082L 3.05716 1.55479Z"/>
<path id="path40_fill" d="M 2.79429 1.11589C 2.63307 0.354981 1.88729 -0.130794 1.12711 0.031131L 1.07892 0.041054C 0.323237 0.221923 -0.141069 0.980581 0.0386193 1.73743C 0.192638 2.38468 0.770433 2.81949 1.40632 2.81949C 1.51215 2.81949 1.61843 2.80777 1.72562 2.78251C 2.47679 2.61472 2.95461 1.8723 2.79429 1.11589Z"/>
<path id="path41_stroke" d="M 2.79429 1.11589L 2.54972 1.16771L 2.54972 1.16773L 2.79429 1.11589ZM 1.12711 0.031131L 1.17753 0.275999L 1.17919 0.275645L 1.12711 0.031131ZM 1.07892 0.041054L 1.02847 -0.203933L 1.02073 -0.202079L 1.07892 0.041054ZM 0.0386193 1.73743L -0.20462 1.79518L -0.20459 1.79531L 0.0386193 1.73743ZM 1.72562 2.78251L 1.67111 2.5385L 1.66827 2.53917L 1.72562 2.78251ZM 3.03886 1.06407C 2.84909 0.168413 1.97078 -0.404186 1.07502 -0.213383L 1.17919 0.275645C 1.8038 0.142598 2.41705 0.541549 2.54972 1.16771L 3.03886 1.06407ZM 1.07668 -0.213731L 1.0285 -0.203808L 1.12934 0.285916L 1.17753 0.275993L 1.07668 -0.213731ZM 1.02073 -0.202079C 0.130225 0.0110587 -0.41599 0.904882 -0.20462 1.79518L 0.281858 1.67969C 0.133852 1.05628 0.516249 0.432787 1.13711 0.284187L 1.02073 -0.202079ZM -0.20459 1.79531C -0.0231462 2.55781 0.65737 3.06949 1.40632 3.06949L 1.40632 2.56949C 0.883496 2.56949 0.408422 2.21156 0.281828 1.67956L -0.20459 1.79531ZM 1.40632 3.06949C 1.52588 3.06911 1.66089 3.05413 1.78296 3.02584L 1.66827 2.53917C 1.57598 2.5614 1.49842 2.56987 1.40632 2.56949L 1.40632 3.06949ZM 1.78012 3.02649C 2.66518 2.8288 3.22755 1.95431 3.03886 1.06406L 2.54972 1.16773C 2.68168 1.79028 2.28841 2.40064 1.67112 2.53852L 1.78012 3.02649Z"/>
<path id="path42_fill" d="M 2.6357 0.70567C 2.2484 0.0318086 1.38779 -0.20048 0.715422 0.188772C 0.702362 0.197342 0.677142 0.212227 0.664082 0.219443C 0.00432463 0.630346 -0.197429 1.49725 0.211485 2.15849C 0.47764 2.58833 0.936992 2.82423 1.40805 2.82423C 1.658 2.82423 1.91019 2.75838 2.13942 2.61855C 2.79692 2.22524 3.02029 1.37367 2.6357 0.70567Z"/>
<path id="path43_stroke" d="M 2.6357 0.70567L 2.41895 0.830246L 2.41904 0.830409L 2.6357 0.70567ZM 0.715422 0.188772L 0.58997 -0.0279249L 0.578267 -0.0202455L 0.715422 0.188772ZM 0.664082 0.219443L 0.543004 0.000329778L 0.531917 0.00723498L 0.664082 0.219443ZM 0.211485 2.15849L -0.00114157 2.28998L -0.00106798 2.2901L 0.211485 2.15849ZM 2.13942 2.61855L 2.01107 2.404L 2.00923 2.40513L 2.13942 2.61855ZM 2.85245 0.581094C 2.39643 -0.212344 1.38269 -0.486398 0.590166 -0.0275861L 0.840678 0.405131C 1.39289 0.0854388 2.10038 0.275961 2.41895 0.830246L 2.85245 0.581094ZM 0.578267 -0.0202455C 0.576376 -0.0190046 0.570536 -0.0153575 0.561915 -0.0102283C 0.553703 -0.00534149 0.546584 -0.00125914 0.543169 0.000628227L 0.784995 0.438258C 0.801143 0.429306 0.83451 0.409562 0.852578 0.39779L 0.578267 -0.0202455ZM 0.531917 0.00723498C -0.245119 0.491179 -0.482301 1.51192 -0.00114154 2.28998L 0.424112 2.027C 0.0874429 1.48259 0.253768 0.769512 0.796247 0.431652L 0.531917 0.00723498ZM -0.00106798 2.2901C 0.31257 2.79663 0.854111 3.07423 1.40805 3.07423L 1.40805 2.57423C 1.01987 2.57423 0.64271 2.38004 0.424038 2.02688L -0.00106798 2.2901ZM 1.40805 3.07423C 1.68984 3.07219 2.00791 2.98849 2.2696 2.83198L 2.00923 2.40513C 1.81247 2.52826 1.62616 2.57626 1.40805 2.57423L 1.40805 3.07423ZM 2.26775 2.8331C 3.04235 2.36975 3.30503 1.36718 2.85236 0.580931L 2.41904 0.830409C 2.73555 1.38016 2.5515 2.08074 2.01108 2.40401L 2.26775 2.8331Z"/>
<path id="path44_fill" d="M 2.73625 0.914053C 2.46379 0.185615 1.65272 -0.182888 0.925407 0.0899939C 0.910996 0.0949554 0.883075 0.10578 0.869564 0.111644C 0.151262 0.408432 -0.18965 1.23114 0.107128 1.9501C 0.33095 2.49361 0.855153 2.82197 1.40818 2.82197C 1.58426 2.82197 1.7617 2.78905 1.93418 2.71914C 2.64708 2.43859 3.00556 1.63527 2.73625 0.914053Z"/>
<path id="path45_stroke" d="M 2.73625 0.914053L 2.97045 0.8266L 2.97041 0.826471L 2.73625 0.914053ZM 0.925407 0.0899939L 1.00682 0.326465L 1.01323 0.324061L 0.925407 0.0899939ZM 0.869564 0.111644L 0.965046 0.342734L 0.969096 0.340977L 0.869564 0.111644ZM 0.107128 1.9501L 0.338294 1.85491L 0.338214 1.85472L 0.107128 1.9501ZM 1.93418 2.71914L 1.84263 2.48649L 1.84027 2.48745L 1.93418 2.71914ZM 2.97041 0.826471C 2.64953 -0.0314217 1.69422 -0.465478 0.837587 -0.144073L 1.01323 0.324061C 1.61121 0.0997008 2.27805 0.402652 2.50209 1.00164L 2.97041 0.826471ZM 0.844025 -0.146389C 0.825105 -0.139827 0.788106 -0.125479 0.770033 -0.117689L 0.969096 0.340977C 0.978044 0.33704 0.996888 0.329738 1.00679 0.326377L 0.844025 -0.146389ZM 0.774097 -0.11941C -0.0720924 0.230218 -0.473278 1.19924 -0.123959 2.04549L 0.338214 1.85472C 0.0939772 1.26303 0.374616 0.586645 0.965031 0.342698L 0.774097 -0.11941ZM -0.124038 2.0453C 0.139633 2.68558 0.75724 3.07197 1.40818 3.07197L 1.40818 2.57197C 0.953065 2.57197 0.522267 2.30165 0.338294 1.85491L -0.124038 2.0453ZM 1.40818 3.07197C 1.60717 3.07092 1.83182 3.02901 2.02809 2.95083L 1.84027 2.48745C 1.69158 2.54908 1.56136 2.57303 1.40818 2.57197L 1.40818 3.07197ZM 2.02573 2.95177C 2.86579 2.62118 3.28736 1.67529 2.97045 0.8266L 2.50204 1.00151C 2.72375 1.59526 2.42837 2.25599 1.84263 2.4865L 2.02573 2.95177Z"/>
<path id="path46_fill" d="M 2.49825 0.508925C 2.00242 -0.0896117 1.11569 -0.172153 0.518528 0.324899L 0.497811 0.342039C -0.0952946 0.844954 -0.168701 1.73351 0.332984 2.32664C 0.611298 2.65635 1.00805 2.82504 1.40706 2.82504C 1.72861 2.82504 2.05106 2.71589 2.31541 2.49217C 2.91257 1.99512 2.99453 1.10746 2.49825 0.508925Z"/>
<path id="path47_stroke" d="M 2.49825 0.508925L 2.30573 0.668411L 2.3058 0.668497L 2.49825 0.508925ZM 0.518528 0.324899L 0.677893 0.517521L 0.678464 0.517046L 0.518528 0.324899ZM 0.497811 0.342039L 0.338435 0.149403L 0.336128 0.15136L 0.497811 0.342039ZM 0.332984 2.32664L 0.524024 2.16538L 0.523861 2.16519L 0.332984 2.32664ZM 2.31541 2.49217L 2.15547 2.30002L 2.15391 2.30134L 2.31541 2.49217ZM 2.69077 0.34944C 2.10681 -0.355482 1.06216 -0.452874 0.358592 0.132752L 0.678464 0.517046C 1.16921 0.108568 1.89803 0.176258 2.30573 0.668411L 2.69077 0.34944ZM 0.359164 0.132278L 0.338447 0.149417L 0.657176 0.53466L 0.677892 0.51752L 0.359164 0.132278ZM 0.336128 0.15136C -0.362192 0.743489 -0.448671 1.78963 0.142108 2.48809L 0.523861 2.16519C 0.111268 1.67739 0.171602 0.946419 0.659495 0.532718L 0.336128 0.15136ZM 0.141945 2.4879C 0.469888 2.8764 0.937776 3.07504 1.40706 3.07504L 1.40706 2.57504C 1.07833 2.57504 0.752708 2.4363 0.524023 2.16538L 0.141945 2.4879ZM 1.40706 3.07504C 1.76923 3.07172 2.17405 2.93354 2.47691 2.683L 2.15391 2.30134C 1.92806 2.49824 1.68799 2.57836 1.40706 2.57504L 1.40706 3.07504ZM 2.47534 2.68432C 3.17856 2.09899 3.27493 1.05396 2.6907 0.349354L 2.3058 0.668497C 2.71413 1.16096 2.64658 1.89125 2.15547 2.30002L 2.47534 2.68432Z"/>
<path id="path48_fill" d="M 2.34236 0.35118C 1.75961 -0.16256 0.870625 -0.106179 0.35723 0.477924C 0.355429 0.480179 0.343269 0.494162 0.341017 0.496868C -0.165622 1.08368 -0.0994218 1.96412 0.484227 2.4747C 0.749481 2.70654 1.07733 2.81975 1.40519 2.81975C 1.79789 2.81975 2.19014 2.65647 2.4689 2.33894C 2.98185 1.75483 2.9251 0.865372 2.34236 0.35118Z"/>
<path id="path49_stroke" d="M 2.34236 0.35118L 2.50776 0.163721L 2.50768 0.163649L 2.34236 0.35118ZM 0.35723 0.477924L 0.169245 0.312696L 0.161895 0.321898L 0.35723 0.477924ZM 0.341017 0.496868L 0.530279 0.660272L 0.533195 0.656767L 0.341017 0.496868ZM 0.484227 2.4747L 0.319621 2.66286L 0.319705 2.66294L 0.484227 2.4747ZM 2.4689 2.33894L 2.28105 2.17397L 2.28103 2.174L 2.4689 2.33894ZM 2.50768 0.163649C 1.82124 -0.441504 0.774086 -0.375028 0.169454 0.312879L 0.545007 0.642969C 0.967164 0.162669 1.69798 0.116384 2.17703 0.538711L 2.50768 0.163649ZM 0.161895 0.321898C 0.163255 0.320196 0.164279 0.318964 0.164486 0.318715C 0.164378 0.318845 0.164956 0.318152 0.164906 0.318212C 0.164877 0.318246 0.165044 0.318047 0.165057 0.318032C 0.165215 0.317843 0.164797 0.318339 0.164262 0.318965C 0.163092 0.320333 0.161636 0.322024 0.159907 0.324031C 0.158177 0.326038 0.156306 0.328207 0.154694 0.330082C 0.153866 0.331044 0.152926 0.33214 0.152186 0.333007C 0.151581 0.333715 0.150237 0.335289 0.14884 0.336968L 0.533195 0.656767C 0.532174 0.657995 0.531861 0.658341 0.533801 0.656085C 0.535158 0.654506 0.536862 0.652532 0.538678 0.650423C 0.540496 0.648314 0.542558 0.645917 0.544246 0.643945C 0.545139 0.642901 0.546301 0.641535 0.547161 0.640517C 0.54761 0.639984 0.54999 0.637174 0.552566 0.63395L 0.161895 0.321898ZM 0.151787 0.333491C -0.445649 1.02547 -0.366334 2.06278 0.319621 2.66286L 0.648833 2.28654C 0.16749 1.86546 0.114405 1.14189 0.530247 0.660245L 0.151787 0.333491ZM 0.319705 2.66294C 0.624094 2.92282 1.03596 3.0663 1.40519 3.06975L 1.40519 2.56975C 1.1187 2.5732 0.874867 2.49026 0.648749 2.28647L 0.319705 2.66294ZM 1.40519 3.06975C 1.86663 3.06975 2.32847 2.87783 2.65678 2.50387L 2.28103 2.174C 2.0518 2.43511 1.72914 2.56975 1.40519 2.56975L 1.40519 3.06975ZM 2.65675 2.5039C 3.26066 1.81622 3.19386 0.769105 2.50776 0.163721L 2.17695 0.538639C 2.65635 0.961639 2.70304 1.69345 2.28105 2.17397L 2.65675 2.5039Z"/>
<path id="path50_fill" d="M 2.70863 0.878371C 2.41725 0.158052 1.59672 -0.188804 0.877068 0.103925C 0.157414 0.396653 -0.188451 1.21801 0.103823 1.93788C 0.105625 1.94329 0.11283 1.96133 0.114632 1.96629C 0.340706 2.50484 0.863107 2.83139 1.41343 2.83139C 1.59402 2.83139 1.77866 2.79531 1.9552 2.72134C 2.6717 2.42004 3.00946 1.59553 2.70863 0.878371Z"/>
<path id="path51_stroke" d="M 2.70863 0.878371L 2.47685 0.972126L 2.47809 0.975076L 2.70863 0.878371ZM 0.103823 1.93788L 0.341031 1.85893L 0.338488 1.85129L 0.335459 1.84383L 0.103823 1.93788ZM 0.114632 1.96629L -0.120643 2.05171L -0.115881 2.06306L 0.114632 1.96629ZM 1.9552 2.72134L 2.05181 2.95192L 2.05211 2.95179L 1.9552 2.72134ZM 2.94038 0.784623C 2.59716 -0.0638843 1.63058 -0.472466 0.782871 -0.12765L 0.971264 0.3355C 1.56286 0.0948592 2.23735 0.379987 2.47687 0.972118L 2.94038 0.784623ZM 0.782871 -0.12765C -0.0648495 0.217171 -0.47191 1.18441 -0.127812 2.03192L 0.335459 1.84383C 0.095008 1.2516 0.379678 0.576135 0.971264 0.3355L 0.782871 -0.12765ZM -0.133384 2.01682C -0.132043 2.02085 -0.130788 2.02432 -0.130093 2.02622C -0.129408 2.02809 -0.128474 2.0306 -0.127811 2.03235C -0.126558 2.03566 -0.12506 2.03955 -0.123861 2.04264C -0.12266 2.04573 -0.121569 2.04853 -0.120722 2.05073C -0.119581 2.05367 -0.119762 2.05325 -0.120359 2.05161L 0.349623 1.88097C 0.348715 1.87847 0.347847 1.87618 0.347337 1.87484C 0.346806 1.87345 0.346142 1.87173 0.345594 1.87031C 0.344528 1.86756 0.343367 1.86458 0.342316 1.86186C 0.341264 1.85915 0.34051 1.8572 0.339849 1.85545C 0.339555 1.85467 0.339494 1.8545 0.339555 1.85467C 0.339594 1.85478 0.339732 1.85515 0.33994 1.85574C 0.340129 1.85628 0.340524 1.8574 0.341031 1.85893L -0.133384 2.01682ZM -0.115881 2.06306C 0.150283 2.69711 0.765346 3.08139 1.41343 3.08139L 1.41343 2.58139C 0.960867 2.58139 0.531129 2.31257 0.345145 1.86952L -0.115881 2.06306ZM 1.41343 3.08139C 1.6181 3.08023 1.85132 3.03452 2.05181 2.95192L 1.85858 2.49076C 1.706 2.5561 1.56993 2.58256 1.41343 2.58139L 1.41343 3.08139ZM 2.05211 2.95179C 2.89557 2.5971 3.29347 1.6263 2.93916 0.781666L 2.47809 0.975076C 2.72545 1.56477 2.44782 2.24298 1.85829 2.49089L 2.05211 2.95179Z"/>
<path id="path52_fill" d="M 2.15475 0.212482C 1.49499 -0.19842 0.627623 0.00455024 0.218709 0.666685L 0.211053 0.677961C -0.199213 1.33919 0.00749626 2.20114 0.667704 2.61159C 0.89693 2.75367 1.15138 2.82133 1.40357 2.82133C 1.87643 2.82133 2.34074 2.58273 2.6078 2.15153C 3.01806 1.49075 2.81495 0.622933 2.15475 0.212482Z"/>
<path id="path53_stroke" d="M 2.15475 0.212482L 2.02258 0.424691L 2.02275 0.424796L 2.15475 0.212482ZM 0.218709 0.666685L 0.425733 0.807247L 0.431416 0.798046L 0.218709 0.666685ZM 0.211053 0.677961L 0.00404641 0.537411L -0.00137954 0.546156L 0.211053 0.677961ZM 0.667704 2.61159L 0.535708 2.82391L 0.535996 2.82409L 0.667704 2.61159ZM 2.6078 2.15153L 2.3954 2.01966L 2.39526 2.01989L 2.6078 2.15153ZM 2.28691 0.000273772C 1.50964 -0.483815 0.487661 -0.244603 0.00600191 0.535323L 0.431416 0.798046C 0.767585 0.253703 1.48034 0.0869748 2.02258 0.42469L 2.28691 0.000273772ZM 0.0118776 0.526254L 0.00422159 0.53753L 0.417884 0.818392L 0.42554 0.807116L 0.0118776 0.526254ZM -0.00137954 0.546156C -0.485225 1.32598 -0.240338 2.34144 0.535708 2.82391L 0.799699 2.39928C 0.25533 2.06084 0.0867995 1.35241 0.423485 0.809765L -0.00137954 0.546156ZM 0.535996 2.82409C 0.79788 2.98321 1.11898 3.06922 1.40357 3.07133L 1.40357 2.57133C 1.18377 2.57343 0.99598 2.52413 0.799411 2.3991L 0.535996 2.82409ZM 1.40357 3.07133C 1.95931 3.07133 2.50579 2.79103 2.82033 2.28316L 2.39526 2.01989C 2.17569 2.37442 1.79356 2.57133 1.40357 2.57133L 1.40357 3.07133ZM 2.82019 2.2834C 3.3033 1.50529 3.06409 0.483445 2.28674 0.000168277L 2.02275 0.424796C 2.56582 0.762422 2.73283 1.4762 2.3954 2.01966L 2.82019 2.2834Z"/>
<path id="path54_fill" d="M 0 15L 0 0L 13.5 7L 0 15Z"/>
<path id="path55_fill" d="M 70.5936 53.6899L 68.3626 53.6899C 68.3562 53.6799 68.3513 53.6691 68.3441 53.6587L 45.0652 19.0654C 44.5775 18.341 43.8813 17.8047 43.0864 17.5129L 43.0864 13.5874L 52.3645 7.81541C 52.8049 7.53802 53.0566 7.04051 53.0188 6.52136C 52.9819 6.00176 52.6612 5.54575 52.1857 5.33466L 42.2492 0.12103C 41.8142 -0.0724685 41.3116 -0.0318747 40.9126 0.227927C 40.514 0.48818 40.2736 0.93246 40.2736 1.40831L 40.2736 12.7868C 40.2736 12.8017 40.2736 12.8166 40.2736 12.8319L 40.2736 17.5124C 39.4787 17.8038 38.782 18.3401 38.2952 19.0649L 28.76 33.235L 26.4925 29.8648C 25.7323 28.7353 24.4669 28.0615 23.1077 28.0615C 21.7477 28.0615 20.4826 28.7353 19.7229 29.8648L 3.69059 53.6899L 1.40643 53.6899C 0.630034 53.6899 0 54.32 0 55.098C 0 55.8761 0.630034 56.5066 1.40643 56.5066L 4.43591 56.5066C 4.43681 56.5066 4.43726 56.5066 4.43861 56.5066C 4.43906 56.5066 4.43951 56.5066 4.44041 56.5066L 70.594 56.5066C 71.3709 56.5066 72 55.8761 72 55.098C 72 54.32 71.3704 53.6899 70.5936 53.6899ZM 43.0864 3.57378L 48.6297 6.83754L 43.0864 10.2605L 43.0864 3.57378ZM 7.08305 53.6899L 22.0553 31.4398C 22.2957 31.0839 22.6794 30.8796 23.1082 30.8796C 23.5369 30.8796 23.921 31.0839 24.1606 31.4398L 27.0645 35.755L 22.0796 43.1629C 21.6454 43.8079 21.8157 44.6834 22.4597 45.1182C 23.1037 45.5535 23.9778 45.3825 24.411 44.738L 40.6284 20.6386C 40.868 20.2823 41.2522 20.078 41.6804 20.078C 42.1096 20.078 42.4933 20.2823 42.7334 20.6386L 64.9742 53.6894L 7.08305 53.6894L 7.08305 53.6899Z"/>
<path id="path56_stroke" d="M 68.3626 53.6899L 68.1515 53.8239L 68.2252 53.9399L 68.3626 53.9399L 68.3626 53.6899ZM 68.3441 53.6587L 68.1367 53.7983L 68.1388 53.8014L 68.3441 53.6587ZM 45.0652 19.0654L 45.2727 18.9258L 45.2726 18.9258L 45.0652 19.0654ZM 43.0864 17.5129L 42.8364 17.5129L 42.8364 17.6874L 43.0003 17.7476L 43.0864 17.5129ZM 43.0864 13.5874L 42.9544 13.3752L 42.8364 13.4485L 42.8364 13.5874L 43.0864 13.5874ZM 52.3645 7.81541L 52.4965 8.02769L 52.4977 8.02695L 52.3645 7.81541ZM 53.0188 6.52136L 52.7694 6.53908L 52.7695 6.53953L 53.0188 6.52136ZM 52.1857 5.33466L 52.0695 5.55604L 52.0768 5.55984L 52.0842 5.56316L 52.1857 5.33466ZM 42.2492 0.12103L 42.3654 -0.100347L 42.3582 -0.104106L 42.3508 -0.107394L 42.2492 0.12103ZM 40.9126 0.227927L 40.7762 0.0184237L 40.7759 0.0186028L 40.9126 0.227927ZM 40.2736 17.5124L 40.3596 17.7472L 40.5236 17.6871L 40.5236 17.5124L 40.2736 17.5124ZM 38.2952 19.0649L 38.5026 19.2045L 38.5027 19.2043L 38.2952 19.0649ZM 28.76 33.235L 28.5526 33.3745L 28.76 33.6828L 28.9674 33.3745L 28.76 33.235ZM 26.4925 29.8648L 26.6999 29.7252L 26.6999 29.7252L 26.4925 29.8648ZM 19.7229 29.8648L 19.9303 30.0043L 19.9303 30.0043L 19.7229 29.8648ZM 3.69059 53.6899L 3.69059 53.9399L 3.82369 53.9399L 3.898 53.8294L 3.69059 53.6899ZM 43.0864 3.57378L 43.2133 3.35835L 42.8364 3.13647L 42.8364 3.57378L 43.0864 3.57378ZM 48.6297 6.83754L 48.7611 7.05026L 49.1138 6.83245L 48.7566 6.62211L 48.6297 6.83754ZM 43.0864 10.2605L 42.8364 10.2605L 42.8364 10.7087L 43.2178 10.4732L 43.0864 10.2605ZM 7.08305 53.6899L 6.83305 53.6899L 6.83305 54.5092L 7.29046 53.8294L 7.08305 53.6899ZM 22.0553 31.4398L 21.8481 31.2998L 21.8478 31.3002L 22.0553 31.4398ZM 24.1606 31.4398L 24.368 31.3002L 24.368 31.3002L 24.1606 31.4398ZM 27.0645 35.755L 27.2719 35.8945L 27.3658 35.755L 27.2719 35.6154L 27.0645 35.755ZM 22.0796 43.1629L 22.287 43.3025L 22.287 43.3025L 22.0796 43.1629ZM 22.4597 45.1182L 22.5997 44.9111L 22.5996 44.911L 22.4597 45.1182ZM 24.411 44.738L 24.2036 44.5984L 24.2035 44.5985L 24.411 44.738ZM 40.6284 20.6386L 40.8358 20.7782L 40.8359 20.7781L 40.6284 20.6386ZM 42.7334 20.6386L 42.9408 20.4991L 42.9407 20.499L 42.7334 20.6386ZM 64.9742 53.6894L 64.9742 53.9394L 65.4437 53.9394L 65.1816 53.5498L 64.9742 53.6894ZM 7.08305 53.6894L 7.08305 53.4394L 6.83305 53.4394L 6.83305 53.6894L 7.08305 53.6894ZM 70.5936 53.4399L 68.3626 53.4399L 68.3626 53.9399L 70.5936 53.9399L 70.5936 53.4399ZM 68.5736 53.5558C 68.5753 53.5585 68.577 53.5617 68.5719 53.5526C 68.5685 53.5464 68.5605 53.532 68.5494 53.5161L 68.1388 53.8014C 68.1349 53.7958 68.133 53.792 68.1354 53.7963C 68.1365 53.7983 68.1384 53.8018 68.1407 53.8059C 68.1433 53.8104 68.147 53.8167 68.1515 53.8239L 68.5736 53.5558ZM 68.5515 53.5192L 45.2727 18.9258L 44.8578 19.205L 68.1367 53.7983L 68.5515 53.5192ZM 45.2726 18.9258C 44.7598 18.17 44.002 17.5858 43.1726 17.2782L 43.0003 17.7476C 43.7605 18.0236 44.3952 18.5121 44.8579 19.205L 45.2726 18.9258ZM 43.3364 17.5129L 43.3364 13.5874L 42.8364 13.5874L 42.8364 17.5129L 43.3364 17.5129ZM 43.2185 13.7997L 52.4965 8.02768L 52.2324 7.60314L 42.9544 13.3752L 43.2185 13.7997ZM 52.4977 8.02695C 53.0162 7.70037 53.3127 7.11458 53.2681 6.50319L 52.7695 6.53953C 52.8006 6.96645 52.5936 7.37566 52.2312 7.60387L 52.4977 8.02695ZM 53.2682 6.50364C 53.2247 5.89171 52.847 5.3547 52.2871 5.10616L 52.0842 5.56316C 52.4754 5.7368 52.7391 6.11181 52.7694 6.53908L 53.2682 6.50364ZM 52.3018 5.11328L 42.3654 -0.100347L 42.1331 0.342407L 52.0695 5.55604L 52.3018 5.11328ZM 42.3508 -0.107394C 41.8381 -0.335434 41.246 -0.287467 40.7762 0.0184239L 41.049 0.437431C 41.3772 0.223718 41.7903 0.190497 42.1476 0.349454L 42.3508 -0.107394ZM 40.7759 0.0186028C 40.3067 0.325015 40.0236 0.848019 40.0236 1.40831L 40.5236 1.40831C 40.5236 1.0169 40.7214 0.651346 41.0493 0.437252L 40.7759 0.0186028ZM 40.0236 1.40831L 40.0236 12.7868L 40.5236 12.7868L 40.5236 1.40831L 40.0236 1.40831ZM 40.0236 12.7868C 40.0236 12.8017 40.0236 12.8166 40.0236 12.8319L 40.5236 12.8319C 40.5236 12.8166 40.5236 12.8017 40.5236 12.7868L 40.0236 12.7868ZM 40.0236 12.8319L 40.0236 17.5124L 40.5236 17.5124L 40.5236 12.8319L 40.0236 12.8319ZM 40.1875 17.2777C 39.358 17.5849 38.5996 18.1691 38.0877 18.9255L 38.5027 19.2043C 38.9644 18.5111 39.5994 18.0228 40.3596 17.7472L 40.1875 17.2777ZM 38.0878 18.9254L 28.5526 33.0954L 28.9674 33.3745L 38.5026 19.2045L 38.0878 18.9254ZM 28.9674 33.0954L 26.6999 29.7252L 26.2851 30.0043L 28.5526 33.3745L 28.9674 33.0954ZM 26.6999 29.7252C 25.8933 28.5268 24.5502 27.8115 23.1077 27.8115L 23.1077 28.3115C 24.3836 28.3115 25.5713 28.9439 26.2851 30.0043L 26.6999 29.7252ZM 23.1077 27.8115C 21.6644 27.8115 20.3216 28.5268 19.5155 29.7252L 19.9303 30.0043C 20.6437 28.9439 21.831 28.3115 23.1077 28.3115L 23.1077 27.8115ZM 19.5155 29.7252L 3.48317 53.5503L 3.898 53.8294L 19.9303 30.0043L 19.5155 29.7252ZM 3.69059 53.4399L 1.40643 53.4399L 1.40643 53.9399L 3.69059 53.9399L 3.69059 53.4399ZM 1.40643 53.4399C 0.491755 53.4399 -0.25 54.1821 -0.25 55.098L 0.25 55.098C 0.25 54.4578 0.768314 53.9399 1.40643 53.9399L 1.40643 53.4399ZM -0.25 55.098C -0.25 56.0138 0.49165 56.7566 1.40643 56.7566L 1.40643 56.2566C 0.768419 56.2566 0.25 55.7383 0.25 55.098L -0.25 55.098ZM 1.40643 56.7566L 4.43591 56.7566L 4.43591 56.2566L 1.40643 56.2566L 1.40643 56.7566ZM 4.43591 56.7566C 4.43681 56.7566 4.43726 56.7566 4.43861 56.7566L 4.43861 56.2566C 4.43726 56.2566 4.43681 56.2566 4.43591 56.2566L 4.43591 56.7566ZM 4.43861 56.7566C 4.43906 56.7566 4.43951 56.7566 4.44041 56.7566L 4.44041 56.2566C 4.43951 56.2566 4.43906 56.2566 4.43861 56.2566L 4.43861 56.7566ZM 4.44041 56.7566L 70.594 56.7566L 70.594 56.2566L 4.44041 56.2566L 4.44041 56.7566ZM 70.594 56.7566C 71.5094 56.7566 72.25 56.0137 72.25 55.098L 71.75 55.098C 71.75 55.7385 71.2323 56.2566 70.594 56.2566L 70.594 56.7566ZM 72.25 55.098C 72.25 54.1822 71.5088 53.4399 70.5936 53.4399L 70.5936 53.9399C 71.2321 53.9399 71.75 54.4578 71.75 55.098L 72.25 55.098ZM 42.9596 3.78921L 48.5029 7.05298L 48.7566 6.62211L 43.2133 3.35835L 42.9596 3.78921ZM 48.4984 6.62483L 42.9551 10.0478L 43.2178 10.4732L 48.7611 7.05026L 48.4984 6.62483ZM 43.3364 10.2605L 43.3364 3.57378L 42.8364 3.57378L 42.8364 10.2605L 43.3364 10.2605ZM 7.29046 53.8294L 22.2627 31.5794L 21.8478 31.3002L 6.87563 53.5503L 7.29046 53.8294ZM 22.2624 31.5798C 22.4566 31.2925 22.7628 31.1296 23.1082 31.1296L 23.1082 30.6296C 22.5961 30.6296 22.1349 30.8754 21.8481 31.2998L 22.2624 31.5798ZM 23.1082 31.1296C 23.4537 31.1296 23.7601 31.2926 23.9532 31.5794L 24.368 31.3002C 24.0819 30.8753 23.6201 30.6296 23.1082 30.6296L 23.1082 31.1296ZM 23.9532 31.5794L 26.857 35.8945L 27.2719 35.6154L 24.368 31.3002L 23.9532 31.5794ZM 26.857 35.6154L 21.8722 43.0233L 22.287 43.3025L 27.2719 35.8945L 26.857 35.6154ZM 21.8722 43.0233C 21.3611 43.7826 21.5614 44.8133 22.3198 45.3254L 22.5996 44.911C 22.07 44.5534 21.9298 43.8332 22.287 43.3025L 21.8722 43.0233ZM 22.3197 45.3253C 23.0784 45.8381 24.1082 45.6366 24.6185 44.8774L 24.2035 44.5985C 23.8474 45.1284 23.1289 45.2688 22.5997 44.9111L 22.3197 45.3253ZM 24.6184 44.8775L 40.8358 20.7782L 40.421 20.4991L 24.2036 44.5984L 24.6184 44.8775ZM 40.8359 20.7781C 41.029 20.4909 41.3354 20.328 41.6804 20.328L 41.6804 19.828C 41.1689 19.828 40.707 20.0737 40.421 20.4991L 40.8359 20.7781ZM 41.6804 20.328C 42.0263 20.328 42.3324 20.4908 42.526 20.7783L 42.9407 20.499C 42.6543 20.0737 42.1929 19.828 41.6804 19.828L 41.6804 20.328ZM 42.5259 20.7782L 64.7667 53.829L 65.1816 53.5498L 42.9408 20.4991L 42.5259 20.7782ZM 64.9742 53.4394L 7.08305 53.4394L 7.08305 53.9394L 64.9742 53.9394L 64.9742 53.4394ZM 6.83305 53.6894L 6.83305 53.6899L 7.33305 53.6899L 7.33305 53.6894L 6.83305 53.6894Z"/>
<path id="path57_fill" d="M 2.81241 1.40862C 2.81241 2.18667 2.18328 2.81678 1.40598 2.81678C 0.629584 2.81678 7.97122e-07 2.18667 7.97122e-07 1.40862C 7.97122e-07 0.630112 0.629584 1.10118e-06 1.40598 1.10118e-06C 2.18283 1.10118e-06 2.81241 0.630563 2.81241 1.40862Z"/>
<path id="path58_stroke" d="M 1.40598 1.10118e-06L 1.40598 -0.249999L 1.40598 1.10118e-06ZM 2.56241 1.40862C 2.56241 2.04891 2.04489 2.56678 1.40598 2.56678L 1.40598 3.06678C 2.32166 3.06678 3.06241 2.32443 3.06241 1.40862L 2.56241 1.40862ZM 1.40598 2.56678C 0.767968 2.56678 0.250001 2.04891 0.250001 1.40862L -0.249999 1.40862C -0.249999 2.32443 0.4912 3.06678 1.40598 3.06678L 1.40598 2.56678ZM 0.250001 1.40862C 0.250001 0.767817 0.768021 0.250001 1.40598 0.250001L 1.40598 -0.249999C 0.491147 -0.249999 -0.249999 0.492407 -0.249999 1.40862L 0.250001 1.40862ZM 1.40598 0.250001C 2.04439 0.250001 2.56241 0.768268 2.56241 1.40862L 3.06241 1.40862C 3.06241 0.492857 2.32126 -0.249999 1.40598 -0.249999L 1.40598 0.250001Z"/>
</defs>
</svg>
