<svg width="63" height="76" viewBox="0 0 63 76" version="1.1" xmlns="http://www.w3.org/2000/svg" xmlns:xlink="http://www.w3.org/1999/xlink">
<title>3</title>
<desc>Created using Figma</desc>
<g id="Canvas" transform="translate(-117 -319)">
<g id="3">
<g id="Vector 3">
<use xlink:href="#path0_fill" transform="translate(126.78 335.725)" fill="#EB3441"/>
</g>
<g id="Group">
<g id="Vector">
<use xlink:href="#path1_fill" transform="translate(118 320)" fill="#002543"/>
<use xlink:href="#path2_stroke" transform="translate(118 320)" fill="#002543"/>
</g>
<g id="Vector">
<use xlink:href="#path3_fill" transform="translate(126.962 334.148)" fill="#002543"/>
<use xlink:href="#path4_stroke" transform="translate(126.962 334.148)" fill="#002543"/>
</g>
<g id="Vector">
<use xlink:href="#path5_fill" transform="translate(126.963 334.145)" fill="#002543"/>
<use xlink:href="#path6_stroke" transform="translate(126.963 334.145)" fill="#002543"/>
</g>
<g id="Vector">
<use xlink:href="#path7_fill" transform="translate(126.963 340.038)" fill="#002543"/>
<use xlink:href="#path8_stroke" transform="translate(126.963 340.038)" fill="#002543"/>
</g>
<g id="Vector">
<use xlink:href="#path9_fill" transform="translate(126.963 345.93)" fill="#002543"/>
<use xlink:href="#path10_stroke" transform="translate(126.963 345.93)" fill="#002543"/>
</g>
</g>
</g>
</g>
<defs>
<path id="path0_fill" d="M 0 38.3875L 0 24.05L 6.00758 18.9625L 10.6288 24.05L 23.1061 12.025L 26.803 15.2625L 44.3636 0L 44.3636 37.4625L 0 38.3875Z"/>
<path id="path1_fill" d="M 57.0534 5.75307L 37.6866 5.75307C 37.0041 2.47439 34.0408 0 30.5 0C 26.9588 0 23.9959 2.47439 23.3119 5.75261L 3.94566 5.75261C 1.77038 5.75261 0 7.49023 0 9.62469L 0 50.7541C 0 52.8881 1.77038 54.6253 3.94566 54.6253L 22.3438 54.6253L 16.368 72.095C 16.1097 72.8512 16.5255 73.6702 17.2961 73.9242C 17.4517 73.9755 17.61 74 17.7656 74C 18.3807 74 18.9548 73.618 19.1617 73.0144L 25.4519 54.6253L 35.5481 54.6253L 41.8378 73.0144C 42.0447 73.618 42.6184 74 43.2344 74C 43.39 74 43.5474 73.9755 43.7029 73.9242C 44.4745 73.6702 44.8898 72.8512 44.631 72.095L 38.6562 54.6253L 57.0534 54.6253C 59.2291 54.6253 61 52.8881 61 50.7541L 61 9.62515C 60.9991 7.4907 59.2291 5.75307 57.0534 5.75307ZM 30.5 2.89064C 32.4047 2.89064 34.029 4.08668 34.6361 5.75261L 26.3639 5.75261C 26.9701 4.08668 28.5953 2.89064 30.5 2.89064ZM 58.0531 50.7546C 58.0531 51.2948 57.6049 51.7351 57.0534 51.7351L 53.2053 51.7351L 53.2053 31.1306C 53.2053 30.3323 52.5464 29.6853 51.7323 29.6853C 50.9193 29.6853 50.2594 30.3323 50.2594 31.1306L 50.2594 51.7351L 45.7288 51.7351L 45.7288 35.5521C 45.7288 34.7543 45.0694 34.1073 44.2558 34.1073C 43.4423 34.1073 42.7829 34.7543 42.7829 35.5521L 42.7829 51.7351L 38.6458 51.7351L 38.6458 40.2803C 38.6458 39.482 37.9874 38.835 37.1729 38.835C 36.3589 38.835 35.6999 39.482 35.6999 40.2803L 35.6999 51.7351L 31.9725 51.7351L 31.9725 36.6066C 31.9725 35.8079 31.3126 35.1613 30.4991 35.1613C 29.6855 35.1613 29.0266 35.8079 29.0266 36.6066L 29.0266 51.7351L 24.75 51.7351L 24.75 43.7828C 24.75 42.9841 24.0906 42.3375 23.2771 42.3375C 22.4626 42.3375 21.8041 42.9841 21.8041 43.7828L 21.8041 51.7351L 18.3831 51.7351L 18.3831 44.3656C 18.3831 43.5673 17.7241 42.9203 16.9101 42.9203C 16.097 42.9203 15.4371 43.5673 15.4371 44.3656L 15.4371 51.7351L 11.4934 51.7351L 11.4934 46.05C 11.4934 45.2513 10.8339 44.6047 10.0204 44.6047C 9.20685 44.6047 8.54743 45.2513 8.54743 46.05L 8.54743 51.7351L 3.94566 51.7351C 3.39371 51.7351 2.94593 51.2948 2.94593 50.7546L 2.94593 9.62515C 2.94593 9.08402 3.39371 8.64372 3.94566 8.64372L 57.0534 8.64372C 57.6044 8.64372 58.0531 9.08402 58.0531 9.62515L 58.0531 50.7546Z"/>
<path id="path2_stroke" d="M 37.6866 5.75307L 37.4419 5.80402L 37.4833 6.00307L 37.6866 6.00307L 37.6866 5.75307ZM 23.3119 5.75261L 23.3119 6.00261L 23.5152 6.00261L 23.5567 5.80367L 23.3119 5.75261ZM 22.3438 54.6253L 22.5803 54.7062L 22.6935 54.3753L 22.3438 54.3753L 22.3438 54.6253ZM 16.368 72.095L 16.1315 72.014L 16.1315 72.0141L 16.368 72.095ZM 17.2961 73.9242L 17.3745 73.6868L 17.3744 73.6867L 17.2961 73.9242ZM 19.1617 73.0144L 19.3982 73.0955L 19.3983 73.0953L 19.1617 73.0144ZM 25.4519 54.6253L 25.4519 54.3753L 25.2732 54.3753L 25.2153 54.5444L 25.4519 54.6253ZM 35.5481 54.6253L 35.7847 54.5444L 35.7268 54.3753L 35.5481 54.3753L 35.5481 54.6253ZM 41.8378 73.0144L 41.6013 73.0953L 41.6013 73.0955L 41.8378 73.0144ZM 43.7029 73.9242L 43.6248 73.6867L 43.6246 73.6868L 43.7029 73.9242ZM 44.631 72.095L 44.3945 72.1759L 44.3945 72.1759L 44.631 72.095ZM 38.6562 54.6253L 38.6562 54.3753L 38.3065 54.3753L 38.4197 54.7062L 38.6562 54.6253ZM 61 9.62515L 61.25 9.62515L 61.25 9.62504L 61 9.62515ZM 34.6361 5.75261L 34.6361 6.00261L 34.9933 6.00261L 34.871 5.66701L 34.6361 5.75261ZM 26.3639 5.75261L 26.129 5.66713L 26.0069 6.00261L 26.3639 6.00261L 26.3639 5.75261ZM 53.2053 51.7351L 52.9553 51.7351L 52.9553 51.9851L 53.2053 51.9851L 53.2053 51.7351ZM 50.2594 51.7351L 50.2594 51.9851L 50.5094 51.9851L 50.5094 51.7351L 50.2594 51.7351ZM 45.7288 51.7351L 45.4788 51.7351L 45.4788 51.9851L 45.7288 51.9851L 45.7288 51.7351ZM 42.7829 51.7351L 42.7829 51.9851L 43.0329 51.9851L 43.0329 51.7351L 42.7829 51.7351ZM 38.6458 51.7351L 38.3958 51.7351L 38.3958 51.9851L 38.6458 51.9851L 38.6458 51.7351ZM 35.6999 51.7351L 35.6999 51.9851L 35.9499 51.9851L 35.9499 51.7351L 35.6999 51.7351ZM 31.9725 51.7351L 31.7225 51.7351L 31.7225 51.9851L 31.9725 51.9851L 31.9725 51.7351ZM 29.0266 51.7351L 29.0266 51.9851L 29.2766 51.9851L 29.2766 51.7351L 29.0266 51.7351ZM 24.75 51.7351L 24.5 51.7351L 24.5 51.9851L 24.75 51.9851L 24.75 51.7351ZM 21.8041 51.7351L 21.8041 51.9851L 22.0541 51.9851L 22.0541 51.7351L 21.8041 51.7351ZM 18.3831 51.7351L 18.1331 51.7351L 18.1331 51.9851L 18.3831 51.9851L 18.3831 51.7351ZM 15.4371 51.7351L 15.4371 51.9851L 15.6871 51.9851L 15.6871 51.7351L 15.4371 51.7351ZM 11.4934 51.7351L 11.2434 51.7351L 11.2434 51.9851L 11.4934 51.9851L 11.4934 51.7351ZM 8.54743 51.7351L 8.54743 51.9851L 8.79743 51.9851L 8.79743 51.7351L 8.54743 51.7351ZM 57.0534 5.50307L 37.6866 5.50307L 37.6866 6.00307L 57.0534 6.00307L 57.0534 5.50307ZM 37.9314 5.70212C 37.2246 2.30681 34.1585 -0.25 30.5 -0.25L 30.5 0.25C 33.923 0.25 36.7837 2.64197 37.4419 5.80402L 37.9314 5.70212ZM 30.5 -0.25C 26.841 -0.25 23.7754 2.30682 23.0672 5.70155L 23.5567 5.80367C 24.2163 2.64196 27.0765 0.25 30.5 0.25L 30.5 -0.25ZM 23.3119 5.50261L 3.94566 5.50261L 3.94566 6.00261L 23.3119 6.00261L 23.3119 5.50261ZM 3.94566 5.50261C 1.63676 5.50261 -0.25 7.34776 -0.25 9.62469L 0.25 9.62469C 0.25 7.63271 1.90401 6.00261 3.94566 6.00261L 3.94566 5.50261ZM -0.25 9.62469L -0.25 50.7541L 0.25 50.7541L 0.25 9.62469L -0.25 9.62469ZM -0.25 50.7541C -0.25 53.0307 1.63682 54.8753 3.94566 54.8753L 3.94566 54.3753C 1.90395 54.3753 0.25 52.7456 0.25 50.7541L -0.25 50.7541ZM 3.94566 54.8753L 22.3438 54.8753L 22.3438 54.3753L 3.94566 54.3753L 3.94566 54.8753ZM 22.1072 54.5444L 16.1315 72.014L 16.6046 72.1759L 22.5803 54.7062L 22.1072 54.5444ZM 16.1315 72.0141C 15.827 72.9055 16.3187 73.8653 17.2179 74.1616L 17.3744 73.6867C 16.7323 73.4752 16.3925 72.7968 16.6046 72.1758L 16.1315 72.0141ZM 17.2178 74.1616C 17.3932 74.2186 17.5909 74.2493 17.7656 74.25L 17.7656 73.75C 17.6292 73.7507 17.5102 73.7324 17.3745 73.6868L 17.2178 74.1616ZM 17.7656 74.25C 18.4819 74.25 19.1549 73.8053 19.3982 73.0955L 18.9252 72.9333C 18.7547 73.4307 18.2794 73.75 17.7656 73.75L 17.7656 74.25ZM 19.3983 73.0953L 25.6884 54.7062L 25.2153 54.5444L 18.9252 72.9335L 19.3983 73.0953ZM 25.4519 54.8753L 35.5481 54.8753L 35.5481 54.3753L 25.4519 54.3753L 25.4519 54.8753ZM 35.3116 54.7062L 41.6013 73.0953L 42.0744 72.9335L 35.7847 54.5444L 35.3116 54.7062ZM 41.6013 73.0955C 41.8447 73.8053 42.5171 74.25 43.2344 74.25L 43.2344 73.75C 42.7196 73.75 42.2448 73.4307 42.0743 72.9333L 41.6013 73.0955ZM 43.2344 74.25C 43.4092 74.2493 43.606 74.2185 43.7813 74.1616L 43.6246 73.6868C 43.4888 73.7325 43.3707 73.7507 43.2344 73.75L 43.2344 74.25ZM 43.7811 74.1616C 44.6814 73.8654 45.1726 72.9054 44.8676 72.014L 44.3945 72.1759C 44.607 72.7969 44.2677 73.4751 43.6248 73.6867L 43.7811 74.1616ZM 44.8676 72.0141L 38.8928 54.5444L 38.4197 54.7062L 44.3945 72.1759L 44.8676 72.0141ZM 38.6562 54.8753L 57.0534 54.8753L 57.0534 54.3753L 38.6562 54.3753L 38.6562 54.8753ZM 57.0534 54.8753C 59.3627 54.8753 61.25 53.0307 61.25 50.7541L 60.75 50.7541C 60.75 52.7455 59.0956 54.3753 57.0534 54.3753L 57.0534 54.8753ZM 61.25 50.7541L 61.25 9.62515L 60.75 9.62515L 60.75 50.7541L 61.25 50.7541ZM 61.25 9.62504C 61.249 7.34824 59.3628 5.50307 57.0534 5.50307L 57.0534 6.00307C 59.0955 6.00307 60.7491 7.63316 60.75 9.62526L 61.25 9.62504ZM 30.5 3.14064C 32.2984 3.14064 33.8296 4.26982 34.4012 5.83821L 34.871 5.66701C 34.2283 3.90353 32.511 2.64064 30.5 2.64064L 30.5 3.14064ZM 34.6361 5.50261L 26.3639 5.50261L 26.3639 6.00261L 34.6361 6.00261L 34.6361 5.50261ZM 26.5989 5.83809C 27.1694 4.26989 28.7015 3.14064 30.5 3.14064L 30.5 2.64064C 28.4891 2.64064 26.7707 3.90347 26.129 5.66713L 26.5989 5.83809ZM 57.8031 50.7546C 57.8031 51.1523 57.4713 51.4851 57.0534 51.4851L 57.0534 51.9851C 57.7385 51.9851 58.3031 51.4373 58.3031 50.7546L 57.8031 50.7546ZM 57.0534 51.4851L 53.2053 51.4851L 53.2053 51.9851L 57.0534 51.9851L 57.0534 51.4851ZM 53.4553 51.7351L 53.4553 31.1306L 52.9553 31.1306L 52.9553 51.7351L 53.4553 51.7351ZM 53.4553 31.1306C 53.4553 30.1899 52.68 29.4353 51.7323 29.4353L 51.7323 29.9353C 52.4127 29.9353 52.9553 30.4748 52.9553 31.1306L 53.4553 31.1306ZM 51.7323 29.4353C 50.7857 29.4353 50.0094 30.1898 50.0094 31.1306L 50.5094 31.1306C 50.5094 30.4749 51.0528 29.9353 51.7323 29.9353L 51.7323 29.4353ZM 50.0094 31.1306L 50.0094 51.7351L 50.5094 51.7351L 50.5094 31.1306L 50.0094 31.1306ZM 50.2594 51.4851L 45.7288 51.4851L 45.7288 51.9851L 50.2594 51.9851L 50.2594 51.4851ZM 45.9788 51.7351L 45.9788 35.5521L 45.4788 35.5521L 45.4788 51.7351L 45.9788 51.7351ZM 45.9788 35.5521C 45.9788 34.6118 45.2029 33.8573 44.2558 33.8573L 44.2558 34.3573C 44.9358 34.3573 45.4788 34.8969 45.4788 35.5521L 45.9788 35.5521ZM 44.2558 33.8573C 43.3087 33.8573 42.5329 34.6118 42.5329 35.5521L 43.0329 35.5521C 43.0329 34.8969 43.5758 34.3573 44.2558 34.3573L 44.2558 33.8573ZM 42.5329 35.5521L 42.5329 51.7351L 43.0329 51.7351L 43.0329 35.5521L 42.5329 35.5521ZM 42.7829 51.4851L 38.6458 51.4851L 38.6458 51.9851L 42.7829 51.9851L 42.7829 51.4851ZM 38.8958 51.7351L 38.8958 40.2803L 38.3958 40.2803L 38.3958 51.7351L 38.8958 51.7351ZM 38.8958 40.2803C 38.8958 39.3396 38.1211 38.585 37.1729 38.585L 37.1729 39.085C 37.8537 39.085 38.3958 39.6244 38.3958 40.2803L 38.8958 40.2803ZM 37.1729 38.585C 36.2252 38.585 35.4499 39.3396 35.4499 40.2803L 35.9499 40.2803C 35.9499 39.6245 36.4925 39.085 37.1729 39.085L 37.1729 38.585ZM 35.4499 40.2803L 35.4499 51.7351L 35.9499 51.7351L 35.9499 40.2803L 35.4499 40.2803ZM 35.6999 51.4851L 31.9725 51.4851L 31.9725 51.9851L 35.6999 51.9851L 35.6999 51.4851ZM 32.2225 51.7351L 32.2225 36.6066L 31.7225 36.6066L 31.7225 51.7351L 32.2225 51.7351ZM 32.2225 36.6066C 32.2225 35.6652 31.446 34.9113 30.4991 34.9113L 30.4991 35.4113C 31.1792 35.4113 31.7225 35.9506 31.7225 36.6066L 32.2225 36.6066ZM 30.4991 34.9113C 29.5519 34.9113 28.7766 35.6654 28.7766 36.6066L 29.2766 36.6066C 29.2766 35.9504 29.8191 35.4113 30.4991 35.4113L 30.4991 34.9113ZM 28.7766 36.6066L 28.7766 51.7351L 29.2766 51.7351L 29.2766 36.6066L 28.7766 36.6066ZM 29.0266 51.4851L 24.75 51.4851L 24.75 51.9851L 29.0266 51.9851L 29.0266 51.4851ZM 25 51.7351L 25 43.7828L 24.5 43.7828L 24.5 51.7351L 25 51.7351ZM 25 43.7828C 25 42.8415 24.2241 42.0875 23.2771 42.0875L 23.2771 42.5875C 23.9571 42.5875 24.5 43.1267 24.5 43.7828L 25 43.7828ZM 23.2771 42.0875C 22.3289 42.0875 21.5541 42.8416 21.5541 43.7828L 22.0541 43.7828C 22.0541 43.1266 22.5962 42.5875 23.2771 42.5875L 23.2771 42.0875ZM 21.5541 43.7828L 21.5541 51.7351L 22.0541 51.7351L 22.0541 43.7828L 21.5541 43.7828ZM 21.8041 51.4851L 18.3831 51.4851L 18.3831 51.9851L 21.8041 51.9851L 21.8041 51.4851ZM 18.6331 51.7351L 18.6331 44.3656L 18.1331 44.3656L 18.1331 51.7351L 18.6331 51.7351ZM 18.6331 44.3656C 18.6331 43.4249 17.8577 42.6703 16.9101 42.6703L 16.9101 43.1703C 17.5905 43.1703 18.1331 43.7098 18.1331 44.3656L 18.6331 44.3656ZM 16.9101 42.6703C 15.9635 42.6703 15.1871 43.4247 15.1871 44.3656L 15.6871 44.3656C 15.6871 43.7099 16.2305 43.1703 16.9101 43.1703L 16.9101 42.6703ZM 15.1871 44.3656L 15.1871 51.7351L 15.6871 51.7351L 15.6871 44.3656L 15.1871 44.3656ZM 15.4371 51.4851L 11.4934 51.4851L 11.4934 51.9851L 15.4371 51.9851L 15.4371 51.4851ZM 11.7434 51.7351L 11.7434 46.05L 11.2434 46.05L 11.2434 51.7351L 11.7434 51.7351ZM 11.7434 46.05C 11.7434 45.1087 10.9675 44.3547 10.0204 44.3547L 10.0204 44.8547C 10.7004 44.8547 11.2434 45.3939 11.2434 46.05L 11.7434 46.05ZM 10.0204 44.3547C 9.07331 44.3547 8.29743 45.1087 8.29743 46.05L 8.79743 46.05C 8.79743 45.3939 9.34038 44.8547 10.0204 44.8547L 10.0204 44.3547ZM 8.29743 46.05L 8.29743 51.7351L 8.79743 51.7351L 8.79743 46.05L 8.29743 46.05ZM 8.54743 51.4851L 3.94566 51.4851L 3.94566 51.9851L 8.54743 51.9851L 8.54743 51.4851ZM 3.94566 51.4851C 3.52737 51.4851 3.19593 51.1524 3.19593 50.7546L 2.69593 50.7546C 2.69593 51.4372 3.26004 51.9851 3.94566 51.9851L 3.94566 51.4851ZM 3.19593 50.7546L 3.19593 9.62515L 2.69593 9.62515L 2.69593 50.7546L 3.19593 50.7546ZM 3.19593 9.62515C 3.19593 9.22631 3.52752 8.89372 3.94566 8.89372L 3.94566 8.39372C 3.25989 8.39372 2.69593 8.94173 2.69593 9.62515L 3.19593 9.62515ZM 3.94566 8.89372L 57.0534 8.89372L 57.0534 8.39372L 3.94566 8.39372L 3.94566 8.89372ZM 57.0534 8.89372C 57.4707 8.89372 57.8031 9.22646 57.8031 9.62515L 58.3031 9.62515C 58.3031 8.94158 57.7381 8.39372 57.0534 8.39372L 57.0534 8.89372ZM 57.8031 9.62515L 57.8031 50.7546L 58.3031 50.7546L 58.3031 9.62515L 57.8031 9.62515Z"/>
<path id="path3_fill" d="M 44.2371 1.30056C 44.2347 1.28113 44.231 1.26217 44.2277 1.24182C 44.2234 1.21546 44.2211 1.18771 44.2154 1.16088C 44.2107 1.13776 44.2046 1.11556 44.1989 1.09336C 44.1928 1.07023 44.1876 1.04711 44.1801 1.02352C 44.1735 1.00178 44.165 0.980506 44.157 0.958768C 44.1485 0.936105 44.1414 0.912518 44.1315 0.890318C 44.123 0.870893 44.1127 0.851006 44.1037 0.832043C 44.0924 0.808455 44.0815 0.78533 44.0698 0.761742C 44.0599 0.743705 44.0486 0.726129 44.0368 0.708554C 44.0236 0.685891 44.0099 0.66323 43.9958 0.641492C 43.9821 0.621605 43.9675 0.603567 43.9533 0.584604C 43.9392 0.565641 43.9251 0.546216 43.9095 0.527716C 43.8831 0.496265 43.8553 0.466203 43.8256 0.437065C 43.8204 0.43244 43.8171 0.42689 43.8124 0.422265C 43.8082 0.41764 43.8025 0.413478 43.7978 0.409778C 43.7681 0.38064 43.737 0.352889 43.7049 0.326989C 43.6866 0.313114 43.6682 0.300164 43.6493 0.286752C 43.63 0.271952 43.6097 0.256689 43.5885 0.243276C 43.5682 0.228939 43.5456 0.216914 43.5239 0.203964C 43.5046 0.192864 43.4853 0.180839 43.465 0.170201C 43.4433 0.159101 43.4221 0.149389 43.3995 0.139676C 43.3778 0.129039 43.3561 0.117939 43.334 0.109151C 43.3128 0.100826 43.292 0.094813 43.2708 0.087413C 43.2468 0.0781629 43.2223 0.068913 43.1978 0.0615129C 43.177 0.0555004 43.1558 0.0513374 43.136 0.0462499C 43.1096 0.0402374 43.0846 0.0333005 43.0578 0.027288C 43.0347 0.0231255 43.0116 0.019888 42.989 0.0175755C 42.964 0.0129505 42.9399 0.00878734 42.9154 0.00739983C 42.8758 0.00369981 42.8367 0.00184983 42.7966 0.000924822C 42.7882 0.000924822 42.7797 3.24633e-07 42.7712 3.24633e-07L 36.408 3.24633e-07C 35.5944 3.24633e-07 34.935 0.647042 34.935 1.44532C 34.935 2.2436 35.5944 2.89064 36.408 2.89064L 39.2144 2.89064L 26.9853 14.8898L 23.7749 11.7392C 23.4982 11.4682 23.1235 11.3156 22.7328 11.3156C 22.3425 11.3156 21.9678 11.4682 21.6916 11.7392L 11.0622 22.1682L 7.88954 19.0547C 7.31356 18.4909 6.38217 18.4909 5.80619 19.0547L 0.43093 24.329C -0.143644 24.8938 -0.143644 25.8081 0.43093 26.3733C 0.718924 26.6554 1.09553 26.796 1.47214 26.796C 1.85016 26.796 2.22724 26.6554 2.51476 26.3733L 6.84739 22.121L 10.021 25.2351C 10.596 25.7989 11.5284 25.7989 12.1034 25.2351L 22.7328 14.8052L 25.9436 17.9553C 26.2203 18.2263 26.595 18.3785 26.9853 18.3785C 27.376 18.3785 27.7507 18.2263 28.027 17.9553L 41.2973 4.93352L 41.2973 7.68726C 41.2973 8.48554 41.9572 9.13258 42.7703 9.13258C 43.5843 9.13258 44.2432 8.48554 44.2432 7.68726L 44.2432 1.44486C 44.2446 1.3963 44.2413 1.34773 44.2371 1.30056Z"/>
<path id="path4_stroke" d="M 44.2371 1.30056L 44.4862 1.27816L 44.4853 1.27045L 44.2371 1.30056ZM 44.2277 1.24182L 43.9808 1.28154L 43.9809 1.28183L 44.2277 1.24182ZM 44.2154 1.16088L 43.9704 1.21081L 43.9708 1.21246L 44.2154 1.16088ZM 44.1989 1.09336L 44.4412 1.03163L 44.4406 1.02932L 44.1989 1.09336ZM 44.1801 1.02352L 43.9408 1.09615L 43.9419 1.09965L 44.1801 1.02352ZM 44.157 0.958768L 44.3915 0.872299L 44.3911 0.871116L 44.157 0.958768ZM 44.1315 0.890318L 43.9024 0.990385L 43.9032 0.992124L 44.1315 0.890318ZM 44.1037 0.832043L 44.3298 0.725279L 44.3291 0.723936L 44.1037 0.832043ZM 44.0698 0.761742L 44.2936 0.649932L 44.2889 0.641471L 44.0698 0.761742ZM 44.0368 0.708554L 43.8207 0.834364L 43.8247 0.841203L 43.8291 0.847776L 44.0368 0.708554ZM 43.9958 0.641492L 44.2054 0.505127L 44.2018 0.499886L 43.9958 0.641492ZM 43.9095 0.527716L 43.718 0.688433L 43.7182 0.688601L 43.9095 0.527716ZM 43.8256 0.437065L 44.0009 0.258421L 43.992 0.250504L 43.8256 0.437065ZM 43.8124 0.422265L 43.6279 0.591485L 43.6373 0.600708L 43.8124 0.422265ZM 43.7978 0.409778L 43.6227 0.588221L 43.6326 0.597897L 43.6434 0.606427L 43.7978 0.409778ZM 43.7049 0.326989L 43.8622 0.132434L 43.8556 0.12745L 43.7049 0.326989ZM 43.6493 0.286752L 43.4972 0.485356L 43.5044 0.490463L 43.6493 0.286752ZM 43.5885 0.243276L 43.4439 0.447646L 43.4549 0.454575L 43.5885 0.243276ZM 43.5239 0.203964L 43.6522 -0.0106981L 43.6485 -0.0128205L 43.5239 0.203964ZM 43.465 0.170201L 43.5812 -0.0511735L 43.5789 -0.0523317L 43.465 0.170201ZM 43.3995 0.139676L 43.2892 0.364407L 43.3009 0.369403L 43.3995 0.139676ZM 43.334 0.109151L 43.4262 -0.123236L 43.4253 -0.123566L 43.334 0.109151ZM 43.2708 0.087413L 43.181 0.320852L 43.1885 0.32346L 43.2708 0.087413ZM 43.1978 0.0615129L 43.27 -0.177832L 43.2674 -0.1786L 43.1978 0.0615129ZM 43.136 0.0462499L 43.1983 -0.195974L 43.1915 -0.197506L 43.136 0.0462499ZM 43.0578 0.027288L 43.1124 -0.216891L 43.1021 -0.218748L 43.0578 0.027288ZM 42.989 0.0175755L 42.9435 0.263398L 42.9534 0.265247L 42.9635 0.26628L 42.989 0.0175755ZM 42.9154 0.00739983L 42.8922 0.256482L 42.9013 0.257L 42.9154 0.00739983ZM 42.7966 0.000924822L 42.8024 -0.249075L 42.7966 -0.249075L 42.7966 0.000924822ZM 39.2144 2.89064L 39.3895 3.06909L 39.8262 2.64064L 39.2144 2.64064L 39.2144 2.89064ZM 26.9853 14.8898L 26.8102 15.0682L 26.9853 15.2401L 27.1604 15.0683L 26.9853 14.8898ZM 23.7749 11.7392L 23.95 11.5608L 23.9499 11.5607L 23.7749 11.7392ZM 21.6916 11.7392L 21.8666 11.9177L 21.8667 11.9177L 21.6916 11.7392ZM 11.0622 22.1682L 10.8871 22.3467L 11.0622 22.5185L 11.2373 22.3467L 11.0622 22.1682ZM 7.88954 19.0547L 8.06465 18.8762L 8.06442 18.876L 7.88954 19.0547ZM 5.80619 19.0547L 5.63131 18.876L 5.63109 18.8762L 5.80619 19.0547ZM 0.43093 24.329L 0.255835 24.1506L 0.255689 24.1507L 0.43093 24.329ZM 0.43093 26.3733L 0.255616 26.5515L 0.255982 26.5519L 0.43093 26.3733ZM 2.51476 26.3733L 2.68986 26.5517L 2.68987 26.5517L 2.51476 26.3733ZM 6.84739 22.121L 7.02249 21.9426L 6.84737 21.7708L 6.67228 21.9426L 6.84739 22.121ZM 10.021 25.2351L 9.84589 25.4135L 9.84596 25.4136L 10.021 25.2351ZM 12.1034 25.2351L 12.2784 25.4136L 12.2785 25.4135L 12.1034 25.2351ZM 22.7328 14.8052L 22.9079 14.6267L 22.7328 14.4549L 22.5577 14.6267L 22.7328 14.8052ZM 25.9436 17.9553L 25.7685 18.1337L 25.7687 18.1339L 25.9436 17.9553ZM 28.027 17.9553L 28.202 18.1337L 28.2021 18.1337L 28.027 17.9553ZM 41.2973 4.93352L 41.5473 4.93352L 41.5473 4.33794L 41.1222 4.75508L 41.2973 4.93352ZM 44.2432 1.44486L 43.9932 1.43758L 43.9932 1.44486L 44.2432 1.44486ZM 44.4853 1.27045C 44.4816 1.24168 44.477 1.21779 44.4744 1.20181L 43.9809 1.28183C 43.9849 1.30655 43.9879 1.32058 43.9889 1.33067L 44.4853 1.27045ZM 44.4745 1.2021C 44.4716 1.185 44.4684 1.15127 44.46 1.1093L 43.9708 1.21246C 43.9737 1.22415 43.9753 1.24592 43.9808 1.28154L 44.4745 1.2021ZM 44.4604 1.11095C 44.4538 1.07951 44.4462 1.05144 44.4412 1.03163L 43.9567 1.15508C 43.9629 1.17967 43.9676 1.196 43.9704 1.21081L 44.4604 1.11095ZM 44.4406 1.02932C 44.4356 1.01085 44.4289 0.981625 44.4182 0.947383L 43.9419 1.09965C 43.9463 1.11259 43.9499 1.12961 43.9573 1.15739L 44.4406 1.02932ZM 44.4193 0.950898C 44.4094 0.919085 44.3984 0.890953 44.3915 0.872301L 43.9224 1.04524C 43.9316 1.07006 43.9375 1.08448 43.9408 1.09614L 44.4193 0.950898ZM 44.3911 0.871116C 44.3854 0.856342 44.3758 0.825544 44.3598 0.788512L 43.9032 0.992124C 43.907 0.999492 43.9115 1.01587 43.9228 1.04642L 44.3911 0.871116ZM 44.3606 0.790254C 44.3485 0.763008 44.3366 0.739814 44.3298 0.725281L 43.8776 0.938805C 43.8887 0.962197 43.8975 0.978778 43.9024 0.990382L 44.3606 0.790254ZM 44.3291 0.723936C 44.3183 0.701345 44.3066 0.676403 44.2934 0.650016L 43.8461 0.873469C 43.8565 0.894257 43.8665 0.915566 43.8783 0.94015L 44.3291 0.723936ZM 44.2889 0.641471C 44.2747 0.615839 44.2575 0.58886 44.2444 0.569331L 43.8291 0.847776C 43.8396 0.863397 43.845 0.87157 43.8506 0.882013L 44.2889 0.641471ZM 44.2528 0.582743C 44.2386 0.558409 44.2217 0.530478 44.2053 0.505171L 43.7862 0.777814C 43.7981 0.795982 43.8085 0.813373 43.8207 0.834364L 44.2528 0.582743ZM 44.2018 0.499886C 44.1824 0.472011 44.1649 0.450137 44.1538 0.435156L 43.7529 0.734052C 43.7701 0.756996 43.7818 0.771199 43.7897 0.783099L 44.2018 0.499886ZM 44.1538 0.435156C 44.1405 0.417346 44.1219 0.392111 44.1009 0.36683L 43.7182 0.688601C 43.7282 0.700321 43.7379 0.713936 43.7529 0.734052L 44.1538 0.435156ZM 44.101 0.366998C 44.0707 0.330974 44.0347 0.292046 44.0007 0.258622L 43.6505 0.615508C 43.6759 0.64036 43.6955 0.661557 43.718 0.688433L 44.101 0.366998ZM 43.992 0.250504C 43.9994 0.2571 44.0049 0.262932 44.0083 0.266763C 44.0115 0.270297 44.0136 0.272969 44.013 0.272238C 44.0128 0.271943 44.0121 0.271121 44.0112 0.269962C 44.0102 0.268804 44.0082 0.266267 44.0065 0.264271C 44.0025 0.259537 43.996 0.252146 43.9875 0.243822L 43.6373 0.600708C 43.6312 0.594696 43.6269 0.589733 43.625 0.587485C 43.6237 0.586009 43.6221 0.583956 43.6246 0.587092C 43.6271 0.590142 43.6402 0.606662 43.6592 0.623626L 43.992 0.250504ZM 43.9966 0.253279C 43.9832 0.238617 43.9706 0.227972 43.964 0.222499C 43.9576 0.217363 43.9515 0.212567 43.9522 0.213129L 43.6434 0.606427C 43.6455 0.608024 43.647 0.609196 43.6477 0.609727C 43.6483 0.610213 43.6477 0.609752 43.6466 0.608849C 43.6455 0.607924 43.6432 0.606015 43.6402 0.603322C 43.6373 0.600651 43.6331 0.596595 43.6282 0.59125L 43.9966 0.253279ZM 43.9729 0.231335C 43.9389 0.198088 43.8988 0.162329 43.8621 0.13254L 43.5478 0.521438C 43.5752 0.54345 43.5973 0.563192 43.6227 0.588221L 43.9729 0.231335ZM 43.8556 0.12745C 43.8339 0.111132 43.8126 0.0961224 43.7942 0.0830401L 43.5044 0.490463C 43.5237 0.504206 43.5392 0.515097 43.5543 0.526529L 43.8556 0.12745ZM 43.8013 0.088271C 43.7812 0.0728507 43.7518 0.0510101 43.7221 0.0319779L 43.4549 0.454575C 43.4676 0.462368 43.4788 0.471052 43.4973 0.485232L 43.8013 0.088271ZM 43.7329 0.0391806C 43.6994 0.0160814 43.6684 -0.000848457 43.6521 -0.0106669L 43.3957 0.418595C 43.4228 0.434677 43.4371 0.441796 43.4441 0.447372L 43.7329 0.0391806ZM 43.6485 -0.0128205C 43.6329 -0.0216926 43.6095 -0.0361194 43.5812 -0.0511621L 43.3488 0.391565C 43.3611 0.397797 43.3763 0.407421 43.3994 0.420749L 43.6485 -0.0128205ZM 43.5789 -0.0523317C 43.5524 -0.0658704 43.5235 -0.0791421 43.4981 -0.0900502L 43.3009 0.369403C 43.3208 0.37792 43.3343 0.384073 43.3511 0.392735L 43.5789 -0.0523317ZM 43.5096 -0.0847666C 43.4898 -0.0944574 43.4593 -0.10978 43.4262 -0.123234L 43.2418 0.341536C 43.253 0.345657 43.2658 0.352535 43.2894 0.364119L 43.5096 -0.0847666ZM 43.4253 -0.123566C 43.3933 -0.135836 43.3681 -0.14335 43.3532 -0.148634L 43.1885 0.32346C 43.216 0.332976 43.2322 0.337488 43.2426 0.341868L 43.4253 -0.123566ZM 43.3606 -0.145909C 43.3358 -0.155448 43.3026 -0.167836 43.27 -0.177817L 43.1255 0.300843C 43.142 0.305662 43.1578 0.311774 43.181 0.320735L 43.3606 -0.145909ZM 43.2674 -0.1786C 43.236 -0.187454 43.211 -0.192491 43.1982 -0.195882L 43.0738 0.288382C 43.1006 0.295165 43.1181 0.298454 43.1282 0.301626L 43.2674 -0.1786ZM 43.1915 -0.197506C 43.1708 -0.20215 43.1454 -0.209203 43.1124 -0.216677L 43.0032 0.271253C 43.0239 0.275804 43.0484 0.282625 43.0805 0.290006L 43.1915 -0.197506ZM 43.1021 -0.218748C 43.0742 -0.223729 43.0417 -0.228297 43.0144 -0.231129L 42.9635 0.26628C 42.9815 0.268073 42.9952 0.26998 43.0134 0.273324L 43.1021 -0.218748ZM 43.0345 -0.228247C 43.0081 -0.233132 42.9684 -0.23959 42.9296 -0.242201L 42.9013 0.257C 42.9115 0.257164 42.9199 0.259033 42.9435 0.263398L 43.0345 -0.228247ZM 42.9387 -0.241516C 42.8934 -0.245684 42.8455 -0.247996 42.8024 -0.249009L 42.7909 0.250858C 42.8279 0.251695 42.8583 0.253084 42.8922 0.256315L 42.9387 -0.241516ZM 42.7966 -0.249075C 42.8004 -0.249075 42.8029 -0.248874 42.7975 -0.249167C 42.7944 -0.249336 42.7834 -0.25 42.7712 -0.25L 42.7712 0.25C 42.7675 0.25 42.7649 0.249799 42.7703 0.250092C 42.7734 0.250261 42.7845 0.250925 42.7966 0.250925L 42.7966 -0.249075ZM 42.7712 -0.25L 36.408 -0.25L 36.408 0.25L 42.7712 0.25L 42.7712 -0.25ZM 36.408 -0.25C 35.4609 -0.25 34.685 0.504527 34.685 1.44532L 35.185 1.44532C 35.185 0.789557 35.728 0.25 36.408 0.25L 36.408 -0.25ZM 34.685 1.44532C 34.685 2.38612 35.4609 3.14064 36.408 3.14064L 36.408 2.64064C 35.728 2.64064 35.185 2.10109 35.185 1.44532L 34.685 1.44532ZM 36.408 3.14064L 39.2144 3.14064L 39.2144 2.64064L 36.408 2.64064L 36.408 3.14064ZM 39.0393 2.7122L 26.8102 14.7114L 27.1604 15.0683L 39.3895 3.06909L 39.0393 2.7122ZM 27.1604 14.7114L 23.95 11.5608L 23.5998 11.9177L 26.8102 15.0682L 27.1604 14.7114ZM 23.9499 11.5607C 23.6261 11.2435 23.1885 11.0656 22.7328 11.0656L 22.7328 11.5656C 23.0586 11.5656 23.3703 11.6929 23.6 11.9178L 23.9499 11.5607ZM 22.7328 11.0656C 22.2775 11.0656 21.8398 11.2436 21.5165 11.5608L 21.8667 11.9177C 22.0958 11.6929 22.4075 11.5656 22.7328 11.5656L 22.7328 11.0656ZM 21.5165 11.5608L 10.8871 21.9898L 11.2373 22.3467L 21.8666 11.9177L 21.5165 11.5608ZM 11.2373 21.9898L 8.06465 18.8762L 7.71444 19.2331L 10.8871 22.3467L 11.2373 21.9898ZM 8.06442 18.876C 7.39125 18.2171 6.30448 18.2171 5.63131 18.876L 5.98106 19.2333C 6.45987 18.7646 7.23586 18.7646 7.71467 19.2333L 8.06442 18.876ZM 5.63109 18.8762L 0.255835 24.1506L 0.606024 24.5075L 5.98128 19.2331L 5.63109 18.8762ZM 0.255689 24.1507C -0.418604 24.8135 -0.418498 25.8884 0.255616 26.5515L 0.606243 26.1951C 0.131211 25.7278 0.131317 24.974 0.60617 24.5073L 0.255689 24.1507ZM 0.255982 26.5519C 0.593082 26.8821 1.03353 27.046 1.47214 27.046L 1.47214 26.546C 1.15754 26.546 0.844765 26.4287 0.605878 26.1947L 0.255982 26.5519ZM 1.47214 27.046C 1.91192 27.046 2.353 26.8823 2.68986 26.5517L 2.33967 26.1949C 2.10148 26.4286 1.7884 26.546 1.47214 26.546L 1.47214 27.046ZM 2.68987 26.5517L 7.02251 22.2995L 6.67228 21.9426L 2.33965 26.1949L 2.68987 26.5517ZM 6.6723 22.2995L 9.84589 25.4135L 10.1961 25.0566L 7.02249 21.9426L 6.6723 22.2995ZM 9.84596 25.4136C 10.5182 26.0727 11.6062 26.0727 12.2784 25.4136L 11.9284 25.0566C 11.4505 25.525 10.6738 25.525 10.196 25.0566L 9.84596 25.4136ZM 12.2785 25.4135L 22.9079 14.9836L 22.5577 14.6267L 11.9283 25.0566L 12.2785 25.4135ZM 22.5577 14.9836L 25.7685 18.1337L 26.1187 17.7768L 22.9079 14.6267L 22.5577 14.9836ZM 25.7687 18.1339C 26.0925 18.4511 26.5302 18.6285 26.9853 18.6285L 26.9853 18.1285C 26.6598 18.1285 26.3481 18.0015 26.1185 17.7767L 25.7687 18.1339ZM 26.9853 18.6285C 27.4407 18.6285 27.8786 18.4512 28.202 18.1337L 27.8519 17.7768C 27.6229 18.0015 27.3113 18.1285 26.9853 18.1285L 26.9853 18.6285ZM 28.2021 18.1337L 41.4724 5.11196L 41.1222 4.75508L 27.8519 17.7768L 28.2021 18.1337ZM 41.0473 4.93352L 41.0473 7.68726L 41.5473 7.68726L 41.5473 4.93352L 41.0473 4.93352ZM 41.0473 7.68726C 41.0473 8.62811 41.8236 9.38258 42.7703 9.38258L 42.7703 8.88258C 42.0907 8.88258 41.5473 8.34297 41.5473 7.68726L 41.0473 7.68726ZM 42.7703 9.38258C 43.7179 9.38258 44.4932 8.628 44.4932 7.68726L 43.9932 7.68726C 43.9932 8.34308 43.4506 8.88258 42.7703 8.88258L 42.7703 9.38258ZM 44.4932 7.68726L 44.4932 1.44486L 43.9932 1.44486L 43.9932 7.68726L 44.4932 7.68726ZM 44.4931 1.45214C 44.4946 1.39146 44.4906 1.32806 44.4861 1.27817L 43.9881 1.32295C 43.9921 1.3674 43.9947 1.40114 43.9933 1.43758L 44.4931 1.45214Z"/>
<path id="path5_fill" d="M 2.94593 1.44532C 2.94593 2.24406 2.28604 2.89064 1.47296 2.89064C 0.658944 2.89064 -2.87688e-07 2.24406 -2.87688e-07 1.44532C -2.87688e-07 0.646579 0.658944 -1.69374e-07 1.47296 -1.69374e-07C 2.28557 -1.69374e-07 2.94593 0.647041 2.94593 1.44532Z"/>
<path id="path6_stroke" d="M 1.47296 -1.69374e-07L 1.47296 0.25L 1.47296 -1.69374e-07ZM 2.69593 1.44532C 2.69593 2.10145 2.15256 2.64064 1.47296 2.64064L 1.47296 3.14064C 2.41952 3.14064 3.19593 2.38668 3.19593 1.44532L 2.69593 1.44532ZM 1.47296 2.64064C 0.79253 2.64064 0.25 2.10155 0.25 1.44532L -0.25 1.44532C -0.25 2.38658 0.525359 3.14064 1.47296 3.14064L 1.47296 2.64064ZM 0.25 1.44532C 0.25 0.789094 0.79253 0.25 1.47296 0.25L 1.47296 -0.25C 0.525359 -0.25 -0.25 0.504064 -0.25 1.44532L 0.25 1.44532ZM 1.47296 0.25C 2.15209 0.25 2.69593 0.789659 2.69593 1.44532L 3.19593 1.44532C 3.19593 0.504423 2.41905 -0.25 1.47296 -0.25L 1.47296 0.25Z"/>
<path id="path7_fill" d="M 2.94593 1.44532C 2.94593 2.24314 2.28604 2.89064 1.47296 2.89064C 0.658944 2.89064 -2.87688e-07 2.24314 -2.87688e-07 1.44532C -2.87688e-07 0.646579 0.658944 3.52862e-07 1.47296 3.52862e-07C 2.28557 3.52862e-07 2.94593 0.646579 2.94593 1.44532Z"/>
<path id="path8_stroke" d="M 2.69593 1.44532C 2.69593 2.10062 2.15245 2.64064 1.47296 2.64064L 1.47296 3.14064C 2.41962 3.14064 3.19593 2.38565 3.19593 1.44532L 2.69593 1.44532ZM 1.47296 2.64064C 0.792635 2.64064 0.25 2.10073 0.25 1.44532L -0.25 1.44532C -0.25 2.38555 0.525254 3.14064 1.47296 3.14064L 1.47296 2.64064ZM 0.25 1.44532C 0.25 0.789094 0.79253 0.25 1.47296 0.25L 1.47296 -0.25C 0.525359 -0.25 -0.25 0.504065 -0.25 1.44532L 0.25 1.44532ZM 1.47296 0.25C 2.15214 0.25 2.69593 0.789249 2.69593 1.44532L 3.19593 1.44532C 3.19593 0.50391 2.41899 -0.25 1.47296 -0.25L 1.47296 0.25Z"/>
<path id="path9_fill" d="M 2.94593 1.44532C 2.94593 2.24406 2.28604 2.89064 1.47296 2.89064C 0.658944 2.89064 -2.87688e-07 2.24406 -2.87688e-07 1.44532C -2.87688e-07 0.646578 0.658944 -6.35151e-07 1.47296 -6.35151e-07C 2.28557 -6.35151e-07 2.94593 0.646578 2.94593 1.44532Z"/>
<path id="path10_stroke" d="M 2.69593 1.44532C 2.69593 2.10145 2.15256 2.64064 1.47296 2.64064L 1.47296 3.14064C 2.41952 3.14064 3.19593 2.38668 3.19593 1.44532L 2.69593 1.44532ZM 1.47296 2.64064C 0.79253 2.64064 0.25 2.10155 0.25 1.44532L -0.25 1.44532C -0.25 2.38658 0.525359 3.14064 1.47296 3.14064L 1.47296 2.64064ZM 0.25 1.44532C 0.25 0.789093 0.79253 0.249999 1.47296 0.249999L 1.47296 -0.250001C 0.525359 -0.250001 -0.25 0.504063 -0.25 1.44532L 0.25 1.44532ZM 1.47296 0.249999C 2.15214 0.249999 2.69593 0.789248 2.69593 1.44532L 3.19593 1.44532C 3.19593 0.503909 2.41899 -0.250001 1.47296 -0.250001L 1.47296 0.249999Z"/>
</defs>
</svg>
