<svg width="68" height="62" viewBox="0 0 68 62" version="1.1" xmlns="http://www.w3.org/2000/svg" xmlns:xlink="http://www.w3.org/1999/xlink">
<title>5</title>
<desc>Created using Figma</desc>
<g id="Canvas" transform="translate(301 -490)">
<g id="5">
<g id="Vector 5">
<use xlink:href="#path0_fill" transform="translate(-253.753 536.057)" fill="#EB3441"/>
</g>
<g id="Group">
<g id="Group">
<g id="Vector">
<use xlink:href="#path1_fill" transform="translate(-245.363 541.149)" fill="#002543"/>
</g>
</g>
</g>
<g id="Group">
<g id="Group">
<g id="Vector">
<use xlink:href="#path2_fill" transform="translate(-254.637 520.999)" fill="#002543"/>
</g>
</g>
</g>
<g id="Group">
<g id="Group">
<g id="Vector">
<use xlink:href="#path3_fill" transform="translate(-301 490)" fill="#002543"/>
</g>
</g>
</g>
</g>
</g>
<defs>
<path id="path0_fill" d="M 1.32468 13.7286L 0 0L 1.32468 0L 19.4286 0L 17.6623 13.7286L 1.32468 13.7286Z"/>
<path id="path1_fill" d="M 1.54575 3.10053C 2.39944 3.10053 3.09149 2.40646 3.09149 1.55027C 3.09149 0.694079 2.39944 0 1.54575 0C 0.692056 0 0 0.694079 0 1.55027C 0 2.40646 0.692056 3.10053 1.54575 3.10053Z"/>
<path id="path2_fill" d="M 20.0921 12.4004L 18.5464 12.4004L 18.5464 7.75048C 18.5464 3.47734 15.08 -8.84549e-07 10.8189 -8.84549e-07C 6.55783 -8.84549e-07 3.09149 3.47648 3.09149 7.75048L 3.09149 12.4004L 1.54574 12.4004C 0.691058 12.4004 -1.32295e-06 13.0931 -1.32295e-06 13.9503L -1.32295e-06 26.3503C -1.32295e-06 28.9142 2.08083 31.0002 4.63681 31.0002L 17.0006 31.0002C 19.5566 31.0002 21.6366 28.9137 21.6366 26.3503L 21.6366 13.9503C 21.6374 13.0931 20.9468 12.4004 20.0921 12.4004ZM 6.18255 7.75048C 6.18255 5.18659 8.26296 3.10053 10.8194 3.10053C 13.3753 3.10053 15.4553 5.18702 15.4553 7.75048L 15.4553 12.4004L 6.18255 12.4004L 6.18255 7.75048ZM 18.5468 26.3503C 18.5468 27.2057 17.8545 27.9005 17.0011 27.9005L 4.63723 27.9005C 3.78425 27.9005 3.09191 27.2057 3.09191 26.3503L 3.09191 15.5005L 18.5464 15.5005L 18.5464 26.3503L 18.5468 26.3503Z"/>
<path id="path3_fill" d="M 61.4341 26.1035C 59.0434 10.9832 46.2117 0.00596748 30.9187 0.00170499C 30.9153 0.00170499 30.9123 0 30.9098 0C 13.8662 0 0 13.9064 0 30.9998C 0 48.0467 13.7918 61.916 30.7734 61.9919C 30.818 61.9919 30.863 62 30.9094 62C 30.92 62 30.931 61.997 30.9434 61.997C 34.269 61.994 37.5407 61.4638 40.6705 60.4207C 41.4801 60.1492 41.9191 59.2741 41.6505 58.4596C 41.3951 57.694 40.6042 57.2882 39.8362 57.4617C 40.8575 56.3241 41.8218 55.0044 42.6982 53.4703C 43.1232 52.7282 42.8665 51.7811 42.1261 51.3561C 41.3874 50.9299 40.4418 51.1874 40.0185 51.9295C 37.8527 55.7214 35.21 58.0521 32.4547 58.6987L 32.4547 46.5003L 41.7274 46.5003C 42.5821 46.5003 43.2728 45.8077 43.2728 44.9501C 43.2728 44.0929 42.5821 43.4002 41.7274 43.4002L 32.4551 43.4002L 32.4551 32.5496L 46.3643 32.5496C 47.2194 32.5496 47.91 31.857 47.91 30.9994L 47.91 27.8997C 47.91 27.8843 47.9024 27.872 47.9011 27.8562C 47.9011 27.8421 47.907 27.8298 47.907 27.8157C 47.7277 24.5498 47.2627 21.4638 46.5814 18.5994L 55.8402 18.5994C 57.0506 21.0656 57.9346 23.7395 58.3834 26.5881C 58.5045 27.3519 59.1612 27.8963 59.9075 27.8963C 59.9878 27.8963 60.0686 27.8895 60.1502 27.8758C 60.9938 27.7432 61.5684 26.9483 61.4341 26.1035ZM 21.8763 4.63886C 19.492 7.3221 17.5183 11.0433 16.1332 15.4997L 12.3638 15.4997C 11.5104 15.4997 10.8181 16.1923 10.8181 17.0499C 10.8181 17.9071 11.5091 18.5998 12.3638 18.5998L 15.2832 18.5998C 14.5059 21.9339 14.0515 25.592 13.9508 29.4495L 3.16969 29.4495C 3.80465 17.9212 11.4318 8.25175 21.8763 4.63886ZM 7.79587 46.4999L 16.1549 46.4999C 17.5659 51.0164 19.5485 54.7192 21.9022 57.3684C 16.1026 55.3684 11.1538 51.5203 7.79587 46.4999ZM 29.364 58.7C 25.4077 57.7499 21.6991 53.2235 19.4036 46.4999L 29.364 46.4999L 29.364 58.7ZM 29.364 43.3998L 6.02785 43.3998C 4.38478 40.0981 3.38474 36.4306 3.16969 32.5496L 13.9631 32.5496C 14.0205 34.7214 14.1671 36.8773 14.4655 38.9702C 14.5756 39.7434 15.2352 40.2997 15.9942 40.2997C 16.0669 40.2997 16.1409 40.295 16.2152 40.2848C 17.0606 40.1637 17.6479 39.3777 17.5272 38.5299C 17.2493 36.5832 17.1128 34.573 17.0563 32.5501L 24.7281 32.5501C 25.5828 32.5501 26.2734 31.8574 26.2734 31.0002C 26.2734 30.143 25.5828 29.4504 24.7281 29.4504L 17.0406 29.4504C 17.1519 25.5903 17.6709 21.9186 18.5183 18.6002L 29.3645 18.6002L 29.3645 43.3998L 29.364 43.3998ZM 30.9098 6.19979C 30.0547 6.19979 29.364 6.89244 29.364 7.75005L 29.364 15.5001L 19.4236 15.5001C 21.9536 8.07997 26.202 3.10096 30.9098 3.10096C 35.6329 3.10096 39.9322 8.04118 42.4835 15.5014L 32.4551 15.4997L 32.4551 7.75005C 32.4551 6.89287 31.7636 6.19979 30.9098 6.19979ZM 44.8185 29.4499L 32.4551 29.4499L 32.4551 18.6002L 43.4066 18.6002C 44.1389 21.4753 44.6336 24.6218 44.8185 27.9478L 44.8185 29.4499ZM 45.7212 15.5014C 44.3089 11.0373 42.3165 7.28502 39.9148 4.60221C 45.7382 6.57702 50.7057 10.4158 54.073 15.5014L 45.7212 15.5014Z"/>
</defs>
</svg>
