<svg width="51" height="70" viewBox="0 0 51 70" version="1.1" xmlns="http://www.w3.org/2000/svg" xmlns:xlink="http://www.w3.org/1999/xlink">
<title>2</title>
<desc>Created using Figma</desc>
<g id="Canvas" transform="translate(301 -323)">
<g id="2">
<g id="Vector 6">
<use xlink:href="#path0_fill" transform="translate(-290.019 373.867)" fill="#EB3441"/>
</g>
<g id="Vector">
<use xlink:href="#path1_fill" transform="translate(-277.031 349.658)" fill="#002543"/>
<use xlink:href="#path2_stroke" transform="translate(-277.031 349.658)" fill="#002543"/>
</g>
<g id="Vector">
<use xlink:href="#path3_fill" transform="translate(-287.901 330.004)" fill="#002543"/>
<use xlink:href="#path4_stroke" transform="translate(-287.901 330.004)" fill="#002543"/>
</g>
<g id="Vector">
<use xlink:href="#path5_fill" transform="translate(-277.031 356.707)" fill="#002543"/>
<use xlink:href="#path6_stroke" transform="translate(-277.031 356.707)" fill="#002543"/>
</g>
<g id="Vector">
<use xlink:href="#path7_fill" transform="translate(-277.031 363.756)" fill="#002543"/>
<use xlink:href="#path8_stroke" transform="translate(-277.031 363.756)" fill="#002543"/>
</g>
<g id="Vector">
<use xlink:href="#path9_fill" transform="translate(-300 324)" fill="#002543"/>
<use xlink:href="#path10_stroke" transform="translate(-300 324)" fill="#002543"/>
</g>
<g id="Vector">
<use xlink:href="#path11_fill" transform="translate(-288.151 340.598)" fill="#002543"/>
<use xlink:href="#path12_stroke" transform="translate(-288.151 340.598)" fill="#002543"/>
</g>
</g>
</g>
<defs>
<path id="path0_fill" d="M 0 10.88L 14.9722 0L 30.8519 10.88L 0 10.88Z"/>
<path id="path1_fill" d="M 2.64026 1.32802C 2.64026 2.0613 2.04864 2.65603 1.32013 2.65603C 0.590775 2.65603 7.88931e-07 2.06088 7.88931e-07 1.32802C 7.88931e-07 0.594303 0.591199 8.0153e-07 1.32013 8.0153e-07C 2.04864 -0.000425528 2.64026 0.594303 2.64026 1.32802Z"/>
<path id="path2_stroke" d="M 1.32013 8.0153e-07L 1.32013 0.375001L 1.32035 0.375001L 1.32013 8.0153e-07ZM 2.26526 1.32802C 2.26526 1.85623 1.83951 2.28103 1.32013 2.28103L 1.32013 3.03103C 2.25777 3.03103 3.01526 2.26638 3.01526 1.32802L 2.26526 1.32802ZM 1.32013 2.28103C 0.80014 2.28103 0.375001 1.85604 0.375001 1.32802L -0.374999 1.32802C -0.374999 2.26572 0.38141 3.03103 1.32013 3.03103L 1.32013 2.28103ZM 0.375001 1.32802C 0.375001 0.79938 0.80033 0.375001 1.32013 0.375001L 1.32013 -0.374999C 0.382068 -0.374999 -0.374999 0.389226 -0.374999 1.32802L 0.375001 1.32802ZM 1.32035 0.375001C 1.83944 0.374697 2.26526 0.799258 2.26526 1.32802L 3.01526 1.32802C 3.01526 0.389348 2.25784 -0.375548 1.31991 -0.374999L 1.32035 0.375001Z"/>
<path id="path3_fill" d="M 2.64026 1.32802C 2.64026 2.06173 2.04907 2.65603 1.32013 2.65603C 0.591199 2.65603 -9.05331e-08 2.0613 -9.05331e-08 1.32802C -9.05331e-08 0.594729 0.591199 -1.56127e-07 1.32013 -1.56127e-07C 2.04907 -1.56127e-07 2.64026 0.594729 2.64026 1.32802Z"/>
<path id="path4_stroke" d="M 2.26526 1.32802C 2.26526 1.85665 1.83994 2.28103 1.32013 2.28103L 1.32013 3.03103C 2.2582 3.03103 3.01526 2.26681 3.01526 1.32802L 2.26526 1.32802ZM 1.32013 2.28103C 0.800408 2.28103 0.375 1.8563 0.375 1.32802L -0.375 1.32802C -0.375 2.2663 0.381991 3.03103 1.32013 3.03103L 1.32013 2.28103ZM 0.375 1.32802C 0.375 0.799728 0.800408 0.375 1.32013 0.375L 1.32013 -0.375C 0.381991 -0.375 -0.375 0.389731 -0.375 1.32802L 0.375 1.32802ZM 1.32013 0.375C 1.83986 0.375 2.26526 0.799728 2.26526 1.32802L 3.01526 1.32802C 3.01526 0.389731 2.25828 -0.375 1.32013 -0.375L 1.32013 0.375Z"/>
<path id="path5_fill" d="M 2.64026 1.32802C 2.64026 2.06216 2.04864 2.65603 1.32013 2.65603C 0.590775 2.65603 7.88931e-07 2.06173 7.88931e-07 1.32802C 7.88931e-07 0.594305 0.591199 -1.11891e-06 1.32013 -1.11891e-06C 2.04864 -1.11891e-06 2.64026 0.594305 2.64026 1.32802Z"/>
<path id="path6_stroke" d="M 2.26526 1.32802C 2.26526 1.85692 1.83967 2.28103 1.32013 2.28103L 1.32013 3.03103C 2.25762 3.03103 3.01526 2.26739 3.01526 1.32802L 2.26526 1.32802ZM 1.32013 2.28103C 0.799984 2.28103 0.375001 1.85673 0.375001 1.32802L -0.374999 1.32802C -0.374999 2.26673 0.381566 3.03103 1.32013 3.03103L 1.32013 2.28103ZM 0.375001 1.32802C 0.375001 0.79938 0.800331 0.374999 1.32013 0.374999L 1.32013 -0.375001C 0.382067 -0.375001 -0.374999 0.389229 -0.374999 1.32802L 0.375001 1.32802ZM 1.32013 0.374999C 1.83959 0.374999 2.26526 0.79946 2.26526 1.32802L 3.01526 1.32802C 3.01526 0.38915 2.25769 -0.375001 1.32013 -0.375001L 1.32013 0.374999Z"/>
<path id="path7_fill" d="M 2.64026 1.32802C 2.64026 2.0613 2.04864 2.65603 1.32013 2.65603C 0.590775 2.65603 7.88931e-07 2.06088 7.88931e-07 1.32802C 7.88931e-07 0.594303 0.591199 6.76548e-07 1.32013 6.76548e-07C 2.04864 6.76548e-07 2.64026 0.594303 2.64026 1.32802Z"/>
<path id="path8_stroke" d="M 1.32013 6.76548e-07L 1.32013 0.375001L 1.32013 6.76548e-07ZM 2.26526 1.32802C 2.26526 1.85623 1.83951 2.28103 1.32013 2.28103L 1.32013 3.03103C 2.25777 3.03103 3.01526 2.26638 3.01526 1.32802L 2.26526 1.32802ZM 1.32013 2.28103C 0.80014 2.28103 0.375001 1.85604 0.375001 1.32802L -0.374999 1.32802C -0.374999 2.26572 0.38141 3.03103 1.32013 3.03103L 1.32013 2.28103ZM 0.375001 1.32802C 0.375001 0.79938 0.80033 0.375001 1.32013 0.375001L 1.32013 -0.374999C 0.382068 -0.374999 -0.374999 0.389226 -0.374999 1.32802L 0.375001 1.32802ZM 1.32013 0.375001C 1.83959 0.375001 2.26526 0.799459 2.26526 1.32802L 3.01526 1.32802C 3.01526 0.389147 2.25769 -0.374999 1.32013 -0.374999L 1.32013 0.375001Z"/>
<path id="path9_fill" d="M 35.8432 33.8318C 40.371 30.9025 43.074 25.9242 43.074 20.5163L 43.074 8.61484C 46.4047 8.23029 49 5.37772 49 1.92616L 49 1.32802C 49 0.594303 48.4088 0 47.6799 0L 1.32013 0C 0.591199 0 0 0.59473 0 1.32802L 0 1.92573C 0 5.39179 2.61738 8.25502 5.96835 8.61953L 5.96835 20.5163C 5.96835 25.9251 8.67134 30.9021 13.1992 33.8314C 13.2611 33.871 13.292 33.9277 13.292 34.0002C 13.292 34.0718 13.2611 34.1285 13.1992 34.1686C 8.67134 37.0979 5.96835 42.0753 5.96835 47.4837L 5.96835 59.3404C 2.67586 59.351 0 62.0484 0 65.3631L 0 66.672C 0 67.4057 0.591199 68 1.32013 68L 47.6799 68C 48.4092 68 49 67.4053 49 66.672L 49 65.3623C 49 62.0625 46.3474 59.3749 43.074 59.3412L 43.074 47.4837C 43.074 42.0749 40.371 37.0979 35.8432 34.1682C 35.7821 34.1285 35.7512 34.0718 35.7512 34.0002C 35.7512 33.9282 35.7826 33.8715 35.8432 33.8318ZM 43.0134 61.9964C 44.8519 61.9964 46.3496 63.4967 46.3597 65.3444L 2.64026 65.3444C 2.65044 63.4967 4.14772 61.9964 5.98658 61.9964L 7.28552 61.9964L 7.28933 61.9968L 7.29357 61.9964L 43.0134 61.9964ZM 12.917 59.34L 24.5201 49.9182L 36.0958 59.34L 12.917 59.34ZM 34.4154 36.4026C 38.1838 38.8412 40.4333 42.9834 40.4333 47.4842L 40.4333 58.5453L 25.1092 47.2464C 24.7392 47.0605 24.3044 47.0605 23.9344 47.246L 8.60947 58.5257L 8.60947 47.4842C 8.60947 42.983 10.859 38.8412 14.6274 36.4026C 15.4449 35.8744 15.9323 34.9757 15.9323 34.0006C 15.9323 33.0243 15.4449 32.1265 14.6274 31.5974C 10.8586 29.1592 8.60947 25.0157 8.60947 20.5163L 8.60947 7.56223C 8.6226 7.48763 8.63023 7.41089 8.63023 7.33202C 8.63023 6.59788 8.03903 6.004 7.3101 6.004L 6.69432 6.004C 4.70713 6.004 3.04881 4.55789 2.70638 2.65603L 46.2953 2.65603C 45.952 4.55789 44.2946 6.004 42.307 6.004L 19.5146 6.004C 18.7849 6.004 18.1945 6.5983 18.1945 7.33202C 18.1945 8.0653 18.7853 8.66003 19.5146 8.66003L 40.4333 8.66003L 40.4333 20.5167C 40.4333 25.0174 38.1834 29.1592 34.4154 31.5974C 33.5979 32.1261 33.1101 33.0243 33.1101 34.0006C 33.1101 34.9765 33.5979 35.8739 34.4154 36.4026Z"/>
<path id="path10_stroke" d="M 35.8432 33.8318L 35.6395 33.517L 35.6379 33.518L 35.8432 33.8318ZM 43.074 8.61484L 43.031 8.24232L 42.699 8.28065L 42.699 8.61484L 43.074 8.61484ZM 5.96835 8.61953L 6.34335 8.61953L 6.34335 8.28311L 6.00891 8.24673L 5.96835 8.61953ZM 13.1992 33.8314L 12.9955 34.1462L 12.9969 34.1471L 13.1992 33.8314ZM 13.1992 34.1686L 13.4029 34.4835L 13.4031 34.4834L 13.1992 34.1686ZM 5.96835 59.3404L 5.96957 59.7154L 6.34335 59.7142L 6.34335 59.3404L 5.96835 59.3404ZM 43.074 59.3412L 42.699 59.3412L 42.699 59.7124L 43.0702 59.7162L 43.074 59.3412ZM 35.8432 34.1682L 35.6389 34.4826L 35.6395 34.483L 35.8432 34.1682ZM 46.3597 65.3444L 46.3597 65.7194L 46.7368 65.7194L 46.7347 65.3423L 46.3597 65.3444ZM 2.64026 65.3444L 2.26527 65.3423L 2.26319 65.7194L 2.64026 65.7194L 2.64026 65.3444ZM 7.28552 61.9964L 7.32675 61.6237L 7.3062 61.6214L 7.28552 61.6214L 7.28552 61.9964ZM 7.28933 61.9968L 7.2481 62.3696L 7.28728 62.3739L 7.3265 62.37L 7.28933 61.9968ZM 7.29357 61.9964L 7.29357 61.6214L 7.27494 61.6214L 7.25641 61.6233L 7.29357 61.9964ZM 12.917 59.34L 12.6806 59.0489L 11.8602 59.715L 12.917 59.715L 12.917 59.34ZM 24.5201 49.9182L 24.7569 49.6274L 24.5204 49.4349L 24.2837 49.6271L 24.5201 49.9182ZM 36.0958 59.34L 36.0958 59.715L 37.1505 59.715L 36.3325 59.0491L 36.0958 59.34ZM 34.4154 36.4026L 34.6191 36.0877L 34.619 36.0877L 34.4154 36.4026ZM 40.4333 58.5453L 40.2108 58.8471L 40.8083 59.2877L 40.8083 58.5453L 40.4333 58.5453ZM 25.1092 47.2464L 25.3318 46.9446L 25.3061 46.9256L 25.2776 46.9113L 25.1092 47.2464ZM 23.9344 47.246L 23.7664 46.9107L 23.7379 46.925L 23.7122 46.944L 23.9344 47.246ZM 8.60947 58.5257L 8.23447 58.5257L 8.23447 59.2673L 8.83176 58.8277L 8.60947 58.5257ZM 14.6274 36.4026L 14.4239 36.0876L 14.4237 36.0877L 14.6274 36.4026ZM 14.6274 31.5974L 14.8311 31.2826L 14.8311 31.2826L 14.6274 31.5974ZM 8.60947 7.56223L 8.24015 7.4972L 8.23447 7.52947L 8.23447 7.56223L 8.60947 7.56223ZM 2.70638 2.65603L 2.70638 2.28103L 2.25783 2.28103L 2.33731 2.72248L 2.70638 2.65603ZM 46.2953 2.65603L 46.6644 2.72264L 46.7441 2.28103L 46.2953 2.28103L 46.2953 2.65603ZM 40.4333 8.66003L 40.8083 8.66003L 40.8083 8.28503L 40.4333 8.28503L 40.4333 8.66003ZM 34.4154 31.5974L 34.619 31.9123L 34.6191 31.9123L 34.4154 31.5974ZM 36.0469 34.1467C 40.6819 31.148 43.449 26.051 43.449 20.5163L 42.699 20.5163C 42.699 25.7975 40.0601 30.657 35.6395 33.517L 36.0469 34.1467ZM 43.449 20.5163L 43.449 8.61484L 42.699 8.61484L 42.699 20.5163L 43.449 20.5163ZM 43.117 8.98737C 46.6362 8.58105 49.375 5.5689 49.375 1.92616L 48.625 1.92616C 48.625 5.18654 46.1731 7.87953 43.031 8.24232L 43.117 8.98737ZM 49.375 1.92616L 49.375 1.32802L 48.625 1.32802L 48.625 1.92616L 49.375 1.92616ZM 49.375 1.32802C 49.375 0.389226 48.6179 -0.375 47.6799 -0.375L 47.6799 0.375C 48.1997 0.375 48.625 0.799381 48.625 1.32802L 49.375 1.32802ZM 47.6799 -0.375L 1.32013 -0.375L 1.32013 0.375L 47.6799 0.375L 47.6799 -0.375ZM 1.32013 -0.375C 0.38199 -0.375 -0.375 0.389731 -0.375 1.32802L 0.375 1.32802C 0.375 0.799728 0.800408 0.375 1.32013 0.375L 1.32013 -0.375ZM -0.375 1.32802L -0.375 1.92573L 0.375 1.92573L 0.375 1.32802L -0.375 1.32802ZM -0.375 1.92573C -0.375 5.58367 2.387 8.60717 5.9278 8.99233L 6.00891 8.24673C 2.84776 7.90287 0.375 5.19992 0.375 1.92573L -0.375 1.92573ZM 5.59335 8.61953L 5.59335 20.5163L 6.34335 20.5163L 6.34335 8.61953L 5.59335 8.61953ZM 5.59335 20.5163C 5.59335 26.0519 8.36046 31.1476 12.9955 34.1462L 13.4029 33.5165C 8.98222 30.6566 6.34335 25.7983 6.34335 20.5163L 5.59335 20.5163ZM 12.9969 34.1471C 12.9823 34.1378 12.9586 34.1177 12.9401 34.0839C 12.9214 34.05 12.917 34.0187 12.917 34.0002L 13.667 34.0002C 13.667 33.7991 13.5703 33.6238 13.4015 33.5156L 12.9969 34.1471ZM 12.917 34.0002C 12.917 33.9805 12.9218 33.9491 12.9402 33.9156C 12.9585 33.8823 12.9815 33.8628 12.9953 33.8539L 13.4031 34.4834C 13.5694 34.3756 13.667 34.2016 13.667 34.0002L 12.917 34.0002ZM 12.9955 33.8538C 8.36046 36.8524 5.59335 41.9486 5.59335 47.4837L 6.34335 47.4837C 6.34335 42.2021 8.98222 37.3434 13.4029 34.4835L 12.9955 33.8538ZM 5.59335 47.4837L 5.59335 59.3404L 6.34335 59.3404L 6.34335 47.4837L 5.59335 47.4837ZM 5.96714 58.9654C 2.46608 58.9767 -0.375 61.8437 -0.375 65.3631L 0.375 65.3631C 0.375 62.2531 2.88565 59.7254 5.96957 59.7154L 5.96714 58.9654ZM -0.375 65.3631L -0.375 66.672L 0.375 66.672L 0.375 65.3631L -0.375 65.3631ZM -0.375 66.672C -0.375 67.6108 0.382066 68.375 1.32013 68.375L 1.32013 67.625C 0.800331 67.625 0.375 67.2006 0.375 66.672L -0.375 66.672ZM 1.32013 68.375L 47.6799 68.375L 47.6799 67.625L 1.32013 67.625L 1.32013 68.375ZM 47.6799 68.375C 48.6185 68.375 49.375 67.6102 49.375 66.672L 48.625 66.672C 48.625 67.2003 48.1999 67.625 47.6799 67.625L 47.6799 68.375ZM 49.375 66.672L 49.375 65.3623L 48.625 65.3623L 48.625 66.672L 49.375 66.672ZM 49.375 65.3623C 49.375 61.8586 46.5586 59.0021 43.0779 58.9663L 43.0702 59.7162C 46.1363 59.7478 48.625 62.2664 48.625 65.3623L 49.375 65.3623ZM 43.449 59.3412L 43.449 47.4837L 42.699 47.4837L 42.699 59.3412L 43.449 59.3412ZM 43.449 47.4837C 43.449 41.9481 40.6819 36.8524 36.0469 33.8533L 35.6395 34.483C 40.0602 37.3434 42.699 42.2017 42.699 47.4837L 43.449 47.4837ZM 36.0475 33.8537C 36.0622 33.8633 36.0852 33.8831 36.1033 33.9162C 36.1215 33.9495 36.1262 33.9806 36.1262 34.0002L 35.3762 34.0002C 35.3762 34.2006 35.4729 34.3748 35.6389 34.4826L 36.0475 33.8537ZM 36.1262 34.0002C 36.1262 34.0201 36.1214 34.0511 36.1033 34.084C 36.0855 34.1167 36.0628 34.1362 36.0485 34.1456L 35.6379 33.518C 35.474 33.6252 35.3762 33.7985 35.3762 34.0002L 36.1262 34.0002ZM 43.0134 62.3714C 44.6433 62.3714 45.9757 63.7028 45.9847 65.3465L 46.7347 65.3423C 46.7234 63.2906 45.0604 61.6214 43.0134 61.6214L 43.0134 62.3714ZM 46.3597 64.9694L 2.64026 64.9694L 2.64026 65.7194L 46.3597 65.7194L 46.3597 64.9694ZM 3.01526 65.3465C 3.02431 63.7028 4.35629 62.3714 5.98658 62.3714L 5.98658 61.6214C 3.93914 61.6214 2.27656 63.2906 2.26527 65.3423L 3.01526 65.3465ZM 5.98658 62.3714L 7.28552 62.3714L 7.28552 61.6214L 5.98658 61.6214L 5.98658 62.3714ZM 7.24429 62.3692L 7.2481 62.3696L 7.33056 61.6241L 7.32675 61.6237L 7.24429 62.3692ZM 7.3265 62.37L 7.33073 62.3696L 7.25641 61.6233L 7.25217 61.6237L 7.3265 62.37ZM 7.29357 62.3714L 43.0134 62.3714L 43.0134 61.6214L 7.29357 61.6214L 7.29357 62.3714ZM 13.1533 59.6311L 24.7565 50.2093L 24.2837 49.6271L 12.6806 59.0489L 13.1533 59.6311ZM 24.2834 50.209L 35.859 59.6308L 36.3325 59.0491L 24.7569 49.6274L 24.2834 50.209ZM 36.0958 58.965L 12.917 58.965L 12.917 59.715L 36.0958 59.715L 36.0958 58.965ZM 34.2117 36.7174C 37.8729 39.0867 40.0583 43.1102 40.0583 47.4842L 40.8083 47.4842C 40.8083 42.8566 38.4947 38.5957 34.6191 36.0877L 34.2117 36.7174ZM 40.0583 47.4842L 40.0583 58.5453L 40.8083 58.5453L 40.8083 47.4842L 40.0583 47.4842ZM 40.6559 58.2435L 25.3318 46.9446L 24.8867 47.5482L 40.2108 58.8471L 40.6559 58.2435ZM 25.2776 46.9113C 24.8017 46.6722 24.2421 46.6723 23.7664 46.9107L 24.1025 47.5812C 24.3667 47.4488 24.6768 47.4488 24.9409 47.5815L 25.2776 46.9113ZM 23.7122 46.944L 8.38717 58.2237L 8.83176 58.8277L 24.1567 47.548L 23.7122 46.944ZM 8.98447 58.5257L 8.98447 47.4842L 8.23447 47.4842L 8.23447 58.5257L 8.98447 58.5257ZM 8.98447 47.4842C 8.98447 43.1098 11.1698 39.0867 14.8311 36.7174L 14.4237 36.0877C 10.5481 38.5957 8.23447 42.8562 8.23447 47.4842L 8.98447 47.4842ZM 14.8309 36.7175C 15.7559 36.1199 16.3073 35.1023 16.3073 34.0006L 15.5573 34.0006C 15.5573 34.849 15.1339 35.6288 14.4239 36.0876L 14.8309 36.7175ZM 16.3073 34.0006C 16.3073 32.8976 15.7558 31.881 14.8311 31.2826L 14.4237 31.9122C 15.134 32.372 15.5573 33.1511 15.5573 34.0006L 16.3073 34.0006ZM 14.8311 31.2826C 11.1695 28.9137 8.98447 24.889 8.98447 20.5163L 8.23447 20.5163C 8.23447 25.1425 10.5477 29.4047 14.4237 31.9123L 14.8311 31.2826ZM 8.98447 20.5163L 8.98447 7.56223L 8.23447 7.56223L 8.23447 20.5163L 8.98447 20.5163ZM 8.97878 7.62727C 8.99411 7.53873 9.00477 7.42946 9.00523 7.33202L 8.25523 7.33202C 8.25569 7.39232 8.2511 7.43653 8.24015 7.4972L 8.97878 7.62727ZM 9.00523 7.33202C 9.00523 6.39272 8.24809 5.629 7.3101 5.629L 7.3101 6.379C 7.82998 6.379 8.25523 6.80303 8.25523 7.33202L 9.00523 7.33202ZM 7.3101 5.629L 6.69432 5.629L 6.69432 6.379L 7.3101 6.379L 7.3101 5.629ZM 6.69432 5.629C 4.89355 5.629 3.3866 4.31775 3.07544 2.58958L 2.33731 2.72248C 2.71101 4.79803 4.52071 6.379 6.69432 6.379L 6.69432 5.629ZM 2.70638 3.03103L 46.2953 3.03103L 46.2953 2.28103L 2.70638 2.28103L 2.70638 3.03103ZM 45.9263 2.58942C 45.6143 4.31783 44.108 5.629 42.307 5.629L 42.307 6.379C 44.4811 6.379 46.2898 4.79795 46.6644 2.72264L 45.9263 2.58942ZM 42.307 5.629L 19.5146 5.629L 19.5146 6.379L 42.307 6.379L 42.307 5.629ZM 19.5146 5.629C 18.5756 5.629 17.8195 6.39338 17.8195 7.33202L 18.5695 7.33202C 18.5695 6.80322 18.9942 6.379 19.5146 6.379L 19.5146 5.629ZM 17.8195 7.33202C 17.8195 8.27022 18.576 9.03503 19.5146 9.03503L 19.5146 8.28503C 18.9946 8.28503 18.5695 7.86038 18.5695 7.33202L 17.8195 7.33202ZM 19.5146 9.03503L 40.4333 9.03503L 40.4333 8.28503L 19.5146 8.28503L 19.5146 9.03503ZM 40.0583 8.66003L 40.0583 20.5167L 40.8083 20.5167L 40.8083 8.66003L 40.0583 8.66003ZM 40.0583 20.5167C 40.0583 24.8906 37.8725 28.9137 34.2117 31.2826L 34.6191 31.9123C 38.4942 29.4048 40.8083 25.1443 40.8083 20.5167L 40.0583 20.5167ZM 34.2118 31.2825C 33.287 31.8805 32.7351 32.8976 32.7351 34.0006L 33.4851 34.0006C 33.4851 33.1511 33.9088 32.3716 34.619 31.9123L 34.2118 31.2825ZM 32.7351 34.0006C 32.7351 35.1034 33.2871 36.1196 34.2118 36.7175L 34.619 36.0877C 33.9086 35.6283 33.4851 34.8496 33.4851 34.0006L 32.7351 34.0006Z"/>
<path id="path11_fill" d="M 23.5606 8.06654e-07L 15.6153 8.06654e-07C 14.0693 8.06654e-07 13.1149 0.606668 12.5745 1.14001C 11.8274 0.46939 10.7496 8.06654e-07 9.26466 8.06654e-07L 1.32013 8.06654e-07C 0.590775 8.06654e-07 -1.552e-07 0.595156 -1.552e-07 1.32844C -1.552e-07 2.06216 0.591199 2.65646 1.32013 2.65646L 9.26466 2.65646C 11.0823 2.65646 11.3184 3.77984 11.3353 4.26756C 11.3353 4.27395 11.3353 4.27907 11.3353 4.28376C 11.3536 5.00554 11.9397 5.57938 12.655 5.57938C 12.661 5.57938 12.6656 5.57938 12.6716 5.57938C 13.3941 5.57042 13.9756 4.97825 13.9756 4.25136C 13.9756 4.2424 13.9756 4.23303 13.9752 4.22407C 13.9786 3.63275 14.1972 2.65646 15.6149 2.65646L 23.5602 2.65646C 24.2892 2.65646 24.8804 2.06173 24.8804 1.32844C 24.8808 0.595582 24.2892 8.06654e-07 23.5606 8.06654e-07Z"/>
<path id="path12_stroke" d="M 12.5745 1.14001L 12.324 1.41908L 12.5867 1.65486L 12.838 1.4069L 12.5745 1.14001ZM 11.3353 4.26756L 11.7106 4.26756L 11.7101 4.25453L 11.3353 4.26756ZM 11.3353 4.28376L 10.9602 4.28376L 10.9605 4.29322L 11.3353 4.28376ZM 12.6716 5.57938L 12.6716 5.9544L 12.6762 5.95435L 12.6716 5.57938ZM 13.9752 4.22407L 13.6002 4.22192L 13.6001 4.23187L 13.6006 4.2418L 13.9752 4.22407ZM 24.8804 1.32844L 24.5054 1.32823L 24.5054 1.32844L 24.8804 1.32844ZM 23.5606 -0.374999L 15.6153 -0.374999L 15.6153 0.375001L 23.5606 0.375001L 23.5606 -0.374999ZM 15.6153 -0.374999C 13.9587 -0.374999 12.9126 0.279372 12.3111 0.873117L 12.838 1.4069C 13.3171 0.933963 14.1798 0.375001 15.6153 0.375001L 15.6153 -0.374999ZM 12.825 0.860932C 12.0035 0.12358 10.8344 -0.374999 9.26466 -0.374999L 9.26466 0.375001C 10.6649 0.375001 11.6512 0.815199 12.324 1.41908L 12.825 0.860932ZM 9.26466 -0.374999L 1.32013 -0.374999L 1.32013 0.375001L 9.26466 0.375001L 9.26466 -0.374999ZM 1.32013 -0.374999C 0.381332 -0.374999 -0.375 0.390393 -0.375 1.32844L 0.375 1.32844C 0.375 0.799919 0.800218 0.375001 1.32013 0.375001L 1.32013 -0.374999ZM -0.375 1.32844C -0.375 2.26723 0.382067 3.03146 1.32013 3.03146L 1.32013 2.28146C 0.80033 2.28146 0.375 1.85708 0.375 1.32844L -0.375 1.32844ZM 1.32013 3.03146L 9.26466 3.03146L 9.26466 2.28146L 1.32013 2.28146L 1.32013 3.03146ZM 9.26466 3.03146C 10.0915 3.03146 10.4881 3.28317 10.6886 3.52091C 10.9225 3.77666 10.9536 4.05937 10.9606 4.28059L 11.7101 4.25453C 11.7002 3.98803 11.6047 3.46519 11.2619 3.03732C 10.8858 2.59143 10.2555 2.28146 9.26466 2.28146L 9.26466 3.03146ZM 10.9603 4.26756C 10.9603 4.27395 10.9603 4.27907 10.9603 4.28376L 11.7103 4.28376C 11.7103 4.27907 11.7103 4.27395 11.7103 4.26756L 10.9603 4.26756ZM 10.9605 4.29322C 10.9838 5.21626 11.7342 5.95438 12.655 5.95438L 12.655 5.20438C 12.1452 5.20438 11.7234 4.79481 11.7102 4.27429L 10.9605 4.29322ZM 12.655 5.95438C 12.661 5.95438 12.6656 5.95438 12.6716 5.95438L 12.6716 5.20438C 12.6656 5.20438 12.661 5.20438 12.655 5.20438L 12.655 5.95438ZM 12.6762 5.95435C 13.6061 5.94282 14.3506 5.18149 14.3506 4.25136L 13.6006 4.25136C 13.6006 4.77501 13.1822 5.19802 12.6669 5.2044L 12.6762 5.95435ZM 14.3506 4.25136C 14.3506 4.24241 14.3505 4.22416 14.3498 4.20634L 13.6006 4.2418C 13.6005 4.24033 13.6006 4.24014 13.6006 4.24204C 13.6006 4.24446 13.6006 4.24688 13.6006 4.25136L 14.3506 4.25136ZM 14.3502 4.22622C 14.3517 3.96459 14.4025 3.66558 14.5675 3.43973C 14.7164 3.2359 15.0023 3.03146 15.6149 3.03146L 15.6149 2.28146C 14.8098 2.28146 14.2776 2.56517 13.9619 2.99732C 13.6623 3.40744 13.6021 3.89224 13.6002 4.22192L 14.3502 4.22622ZM 15.6149 3.03146L 23.5602 3.03146L 23.5602 2.28146L 15.6149 2.28146L 15.6149 3.03146ZM 23.5602 3.03146C 24.4984 3.03146 25.2554 2.26673 25.2554 1.32844L 24.5054 1.32844C 24.5054 1.85673 24.08 2.28146 23.5602 2.28146L 23.5602 3.03146ZM 25.2554 1.32866C 25.2559 0.390747 24.4985 -0.374999 23.5606 -0.374999L 23.5606 0.375001C 24.0798 0.375001 24.5057 0.800417 24.5054 1.32823L 25.2554 1.32866Z"/>
</defs>
</svg>
