<svg width="82" height="82" viewBox="0 0 82 82" version="1.1" xmlns="http://www.w3.org/2000/svg" xmlns:xlink="http://www.w3.org/1999/xlink">
<title>1</title>
<desc>Created using Figma</desc>
<g id="Canvas" transform="translate(721 -321)">
<g id="1">
<g id="Vector 8">
<use xlink:href="#path0_fill" transform="translate(-665.5 375.5)" fill="#EB3441"/>
</g>
<g id="Group">
<g id="Vector">
<use xlink:href="#path1_fill" transform="translate(-720 322)" fill="#002543"/>
<use xlink:href="#path2_stroke" transform="translate(-720 322)" fill="#002543"/>
</g>
<g id="Vector">
<use xlink:href="#path3_fill" transform="translate(-713.534 339.298)" fill="#002543"/>
<use xlink:href="#path4_stroke" transform="translate(-713.534 339.298)" fill="#002543"/>
</g>
<g id="Vector">
<use xlink:href="#path5_fill" transform="translate(-697.81 340.471)" fill="#002543"/>
<use xlink:href="#path6_stroke" transform="translate(-697.81 340.471)" fill="#002543"/>
</g>
</g>
<g id="Vector">
<use xlink:href="#path7_fill" transform="translate(-674.083 398.892)" fill="#002543"/>
<use xlink:href="#path8_stroke" transform="translate(-674.083 398.892)" fill="#002543"/>
</g>
<g id="Vector">
<use xlink:href="#path9_fill" transform="translate(-689.134 335.602)" fill="#002543"/>
<use xlink:href="#path10_stroke" transform="translate(-689.134 335.602)" fill="#002543"/>
</g>
</g>
</g>
<defs>
<path id="path0_fill" d="M 2.5 5.5L 0 1L 0 0L 9 0L 7 5.5L 9 16.5L 3.5 20.5L 0 16.5L 2.5 5.5Z"/>
<path id="path1_fill" d="M 64.5971 52.8716C 67.65 51.0155 69.6935 47.6632 69.6935 43.8454L 69.6935 35.7528C 69.6935 31.9558 67.6725 28.621 64.6465 26.7579C 63.3411 19.4326 59.5107 12.7366 53.816 7.84995C 47.9153 2.78774 40.3718 0 32.5768 0C 14.614 0 0 14.5649 0 32.4691C 0 50.3729 14.614 64.9378 32.5768 64.9378C 35.1222 64.9378 37.6397 64.6448 40.0923 64.0664C 38.8707 66.5895 38.1841 69.3663 38.1841 72.255L 38.1841 78.4139C 38.1841 79.057 38.7071 79.5778 39.3518 79.5778L 43.2201 79.5778C 43.8648 79.5778 44.3878 79.057 44.3878 78.4139C 44.3878 77.7718 43.8648 77.2501 43.2201 77.2501L 40.5195 77.2501L 40.5195 72.255C 40.5195 69.0296 41.4781 65.9032 43.274 63.1477L 43.2745 63.1477L 43.4961 62.8225C 45.1827 60.3471 47.5016 58.272 50.1613 56.8018C 51.2911 56.1821 52.4777 55.6728 53.6978 55.2854L 55.592 58.9544L 53.0605 69.907C 52.9657 70.3158 53.0995 70.7445 53.4098 71.027L 58.3031 75.4914C 58.5262 75.6948 58.8096 75.7968 59.0916 75.7968C 59.3745 75.7968 59.6569 75.6948 59.8805 75.4914L 64.7743 71.027C 65.0846 70.744 65.2184 70.3158 65.1231 69.907L 62.5921 58.9544L 64.4868 55.2854C 67.2813 56.1732 69.9011 57.6991 72.0643 59.7472C 75.6756 63.1671 77.6651 67.6101 77.6651 72.255L 77.6651 77.2506L 52.1025 77.2506C 51.4577 77.2506 50.9348 77.7718 50.9348 78.4139C 50.9348 79.057 51.4577 79.5788 52.1025 79.5788L 78.8323 79.5788C 79.4765 79.5788 80 79.057 80 78.4139L 80 72.255C 79.999 63.2686 73.3607 55.3545 64.5971 52.8716ZM 63.2463 28.6344C 65.7029 30.0649 67.3576 32.7193 67.3576 35.7528L 67.3576 38.5256C 63.5911 37.8293 62.0666 34.0115 61.9993 33.8374C 61.8386 33.4126 61.4434 33.1242 60.9893 33.0913C 60.5357 33.06 60.103 33.2953 59.883 33.6912C 59.7767 33.8822 57.341 38.1317 50.8255 38.5942L 50.8255 35.7523C 50.8255 35.6209 50.829 35.4906 50.8355 35.3603C 50.8385 35.3181 50.8415 35.2768 50.8444 35.2345C 50.8494 35.1465 50.8564 35.0584 50.8649 34.9699C 50.8694 34.9231 50.8754 34.8764 50.8794 34.8286C 50.8894 34.7451 50.8998 34.6615 50.9113 34.5785C 50.9183 34.5327 50.9238 34.4879 50.9318 34.4427C 50.9462 34.3517 50.9632 34.2621 50.9807 34.1726C 50.9877 34.1378 50.9932 34.1025 51.0001 34.0677C 51.0545 33.811 51.1194 33.5594 51.1967 33.3112C 51.1997 33.3032 51.2032 33.2958 51.2052 33.2868C 51.2422 33.1699 51.2811 33.0535 51.3235 32.9396C 51.3285 32.9257 51.334 32.9128 51.3385 32.8994C 51.3809 32.7855 51.4253 32.6711 51.4727 32.5592C 51.4762 32.5527 51.4787 32.5467 51.4812 32.5408C 52.057 31.1919 52.9822 30.0261 54.1454 29.1577C 54.1489 29.1547 54.1539 29.1507 54.1574 29.1472C 54.2502 29.0791 54.345 29.0124 54.4388 28.9478C 54.4588 28.9338 54.4777 28.9209 54.4977 28.908C 54.5745 28.8568 54.6539 28.8075 54.7322 28.7578C 54.7667 28.7364 54.8016 28.713 54.8375 28.6921C 54.8854 28.6638 54.9348 28.6369 54.9842 28.6086C 55.6364 28.236 56.349 27.9466 57.109 27.7576C 57.1175 27.7551 57.1255 27.7521 57.1339 27.7496C 57.7632 27.5969 58.4179 27.5139 59.0936 27.5139C 59.2547 27.5139 59.4159 27.5188 59.5771 27.5283C 59.6115 27.5303 59.646 27.5343 59.6804 27.5362C 59.8146 27.5467 59.9489 27.5586 60.0826 27.575C 60.1075 27.5775 60.133 27.581 60.1569 27.584C 61.1619 27.7153 62.14 28.0296 63.0312 28.5156L 63.2463 28.6344ZM 42.3593 60.4261C 42.1652 60.6753 41.9766 60.927 41.7944 61.1836C 38.8228 62.1296 35.7235 62.6101 32.5768 62.6101C 15.9014 62.6111 2.33586 49.0897 2.33586 32.4691C 2.33586 15.8486 15.9009 2.32768 32.5768 2.32768C 39.8129 2.32768 46.815 4.91548 52.2926 9.61461C 57.1714 13.8009 60.5781 19.4167 62.0267 25.602C 61.6834 25.503 61.3331 25.4214 60.9768 25.3573C 60.9539 25.3533 60.9319 25.3498 60.9084 25.3463C 60.8027 25.3269 60.6964 25.31 60.5891 25.2946C 60.5262 25.2857 60.4638 25.2787 60.401 25.2712C 60.2787 25.2558 60.1574 25.2419 60.0342 25.2314C 59.9314 25.2215 59.8281 25.2145 59.7243 25.2081C 59.6714 25.2051 59.618 25.2011 59.5636 25.1986C 59.4069 25.1922 59.2487 25.1872 59.0916 25.1872C 58.6105 25.1872 58.139 25.2225 57.6749 25.2837C 56.1883 20.1299 53.0835 15.487 48.8494 12.1169C 44.1837 8.40551 38.5574 6.44439 32.5758 6.44439C 25.4634 6.44439 18.8151 9.24457 13.8555 14.3277C 13.4059 14.7882 13.4158 15.5248 13.8784 15.9739C 14.341 16.4211 15.08 16.4121 15.5291 15.9511C 20.0452 11.3221 26.0991 8.77207 32.5758 8.77207C 38.0214 8.77207 43.1448 10.5581 47.3913 13.9362C 51.2272 16.9876 54.0446 21.1849 55.4069 25.8457C 55.1723 25.9322 54.9438 26.0282 54.7168 26.1312C 54.6838 26.1461 54.6494 26.162 54.616 26.1769C 54.5336 26.2157 54.4523 26.2545 54.3719 26.2943C 54.2971 26.3311 54.2237 26.3689 54.1499 26.4082C 54.098 26.4366 54.0451 26.4624 53.9937 26.4913C 51.4393 27.8849 49.5715 30.2683 48.8359 33.0719C 48.8275 33.1023 48.82 33.1311 48.8135 33.1615C 48.7791 33.2968 48.7466 33.432 48.7192 33.5693C 48.7127 33.5957 48.7072 33.6215 48.7012 33.6489C 48.6688 33.8095 48.6388 33.9712 48.6139 34.1348C 48.6104 34.1562 48.6079 34.1771 48.6049 34.198C 48.5844 34.3353 48.567 34.474 48.552 34.6128C 48.5465 34.6625 48.5415 34.7118 48.537 34.762C 48.5266 34.8789 48.5176 34.9972 48.5106 35.1151C 48.5076 35.1644 48.5041 35.2131 48.5016 35.2628C 48.4936 35.4255 48.4891 35.5886 48.4891 35.7542L 48.4891 43.8454C 48.4891 43.9598 48.4916 44.0747 48.4956 44.1886C 48.4956 44.2025 48.4971 44.2155 48.4971 44.2294C 48.4981 44.2617 48.5001 44.294 48.5016 44.3269C 48.5036 44.3617 48.5046 44.3965 48.5071 44.4318C 48.5151 44.5805 48.5261 44.7282 48.5405 44.876C 48.545 44.9207 48.551 44.965 48.555 45.0093C 48.5675 45.1236 48.5819 45.2385 48.5994 45.3519C 48.6084 45.4171 48.6179 45.4813 48.6288 45.5459C 48.6463 45.6514 48.6648 45.7563 48.6852 45.8607C 48.6992 45.9334 48.7137 46.006 48.7302 46.0781C 48.7441 46.1452 48.7606 46.2129 48.7766 46.28C 48.809 46.4158 48.8444 46.5511 48.8814 46.6849C 48.8913 46.7187 48.9008 46.7515 48.9098 46.7839C 49.1199 47.5065 49.4038 48.1984 49.7556 48.8479C 48.2291 50.438 46.4961 51.8063 44.5924 52.9204C 44.0365 53.2462 43.8498 53.9594 44.1767 54.5134C 44.3938 54.8825 44.784 55.0884 45.1842 55.0884C 45.3853 55.0884 45.5894 55.0367 45.775 54.9282C 47.7301 53.7843 49.5176 52.3927 51.1119 50.7907C 51.825 51.6029 52.6578 52.3076 53.586 52.8731C 49.076 54.1499 45.1288 56.865 42.3593 60.4261ZM 62.6944 69.7682L 59.0916 73.0543L 55.4887 69.7682L 57.7547 59.9636L 60.4284 59.9636L 62.6944 69.7682ZM 56.0227 54.7019C 56.1255 54.6825 56.2287 54.6656 56.331 54.6477C 56.4019 54.6368 56.4713 54.6249 56.5421 54.6149C 56.6734 54.594 56.8046 54.5746 56.9363 54.5572C 57.1 54.5348 57.2632 54.5159 57.4264 54.498C 57.5047 54.4901 57.5826 54.4816 57.6609 54.4747C 57.8635 54.4562 58.0666 54.4388 58.2702 54.4269C 58.3171 54.4244 58.3635 54.4219 58.4099 54.4199C 58.5496 54.412 58.6899 54.4095 58.8301 54.4045C 58.9174 54.4075 59.0042 54.412 59.0916 54.412C 59.1789 54.412 59.2667 54.4075 59.353 54.4045C 59.4933 54.4095 59.634 54.4125 59.7732 54.4199C 59.8201 54.4219 59.867 54.4244 59.9134 54.4269C 60.1155 54.4383 60.3191 54.4562 60.5222 54.4747C 60.6006 54.4816 60.6784 54.4901 60.7572 54.498C 60.9204 54.5159 61.0836 54.5348 61.2468 54.5572C 61.379 54.5746 61.5098 54.594 61.641 54.6149C 61.7114 54.6254 61.7817 54.6368 61.8516 54.6477C 61.9549 54.6656 62.0577 54.6825 62.161 54.7019L 60.6455 57.6359L 57.5381 57.6359L 56.0227 54.7019ZM 59.4109 52.0763C 59.3091 52.0729 59.2093 52.0689 59.108 52.0679C 59.0975 52.0679 59.0866 52.0679 59.0766 52.0679C 58.9748 52.0689 58.874 52.0729 58.7737 52.0763C 58.1794 52.053 57.6 51.9689 57.0441 51.8272L 56.7467 51.7396C 53.598 50.8026 51.308 48.0626 50.8938 44.8804C 50.8919 44.861 50.8894 44.8421 50.8874 44.8232C 50.8764 44.7407 50.8689 44.6581 50.8609 44.5751C 50.8554 44.5159 50.8509 44.4562 50.8464 44.395C 50.8434 44.3428 50.8395 44.2901 50.8365 44.2363C 50.8365 44.2299 50.8355 44.2249 50.8355 44.2194C 50.8305 44.0951 50.8265 43.9703 50.8265 43.8454L 50.8265 40.9274C 56.1025 40.6036 59.2073 38.1267 60.7388 36.4207C 61.8166 38.0993 63.907 40.432 67.3581 40.8836L 67.3581 43.8454C 67.3576 48.2804 63.8212 51.9077 59.4109 52.0763Z"/>
<path id="path2_stroke" d="M 64.5971 52.8716L 64.3633 52.4871L 63.4815 53.0233L 64.4745 53.3046L 64.5971 52.8716ZM 64.6465 26.7579L 64.2035 26.8368L 64.2389 27.0353L 64.4106 27.1411L 64.6465 26.7579ZM 53.816 7.84995L 54.1091 7.50845L 54.109 7.50841L 53.816 7.84995ZM 40.0923 64.0664L 40.4973 64.2625L 40.9094 63.4113L 39.989 63.6284L 40.0923 64.0664ZM 40.5195 77.2501L 40.0695 77.2501L 40.0695 77.7001L 40.5195 77.7001L 40.5195 77.2501ZM 43.274 63.1477L 43.274 62.6977L 43.0302 62.6977L 42.897 62.902L 43.274 63.1477ZM 43.2745 63.1477L 43.2745 63.5977L 43.5125 63.5977L 43.6464 63.4011L 43.2745 63.1477ZM 43.4961 62.8225L 43.1242 62.5691L 43.1241 62.5691L 43.4961 62.8225ZM 50.1613 56.8018L 49.9449 56.4073L 49.9436 56.408L 50.1613 56.8018ZM 53.6978 55.2854L 54.0976 55.0789L 53.9235 54.7415L 53.5616 54.8565L 53.6978 55.2854ZM 55.592 58.9544L 56.0305 59.0558L 56.0677 58.8948L 55.9919 58.748L 55.592 58.9544ZM 53.0605 69.907L 53.4989 70.0086L 53.499 70.0083L 53.0605 69.907ZM 53.4098 71.027L 53.7131 70.6946L 53.7127 70.6942L 53.4098 71.027ZM 58.3031 75.4914L 57.9998 75.8238L 57.9999 75.8239L 58.3031 75.4914ZM 59.8805 75.4914L 60.1833 75.8242L 60.1838 75.8239L 59.8805 75.4914ZM 64.7743 71.027L 64.4711 70.6945L 64.471 70.6946L 64.7743 71.027ZM 65.1231 69.907L 64.6846 70.0083L 64.6848 70.0091L 65.1231 69.907ZM 62.5921 58.9544L 62.1923 58.748L 62.1165 58.8948L 62.1537 59.0558L 62.5921 58.9544ZM 64.4868 55.2854L 64.6231 54.8565L 64.2612 54.7415L 64.087 55.0789L 64.4868 55.2854ZM 72.0643 59.7472L 72.3737 59.4205L 72.3737 59.4205L 72.0643 59.7472ZM 77.6651 77.2506L 77.6651 77.7006L 78.1152 77.7006L 78.1152 77.2506L 77.6651 77.2506ZM 80 72.255L 80.45 72.255L 80.45 72.255L 80 72.255ZM 63.2463 28.6344L 63.4728 28.2455L 63.464 28.2406L 63.2463 28.6344ZM 67.3576 38.5256L 67.2758 38.9681L 67.8076 39.0664L 67.8076 38.5256L 67.3576 38.5256ZM 61.9993 33.8374L 61.5784 33.9966L 61.5796 33.9998L 61.9993 33.8374ZM 60.9893 33.0913L 61.0217 32.6425L 61.0203 32.6424L 60.9893 33.0913ZM 59.883 33.6912L 60.2762 33.91L 60.2763 33.9098L 59.883 33.6912ZM 50.8255 38.5942L 50.3755 38.5942L 50.3755 39.0773L 50.8573 39.0431L 50.8255 38.5942ZM 50.8355 35.3603L 50.3865 35.3285L 50.386 35.338L 50.8355 35.3603ZM 50.8444 35.2345L 51.2934 35.2663L 51.2937 35.26L 50.8444 35.2345ZM 50.8649 34.9699L 50.417 34.9269L 50.417 34.927L 50.8649 34.9699ZM 50.8794 34.8286L 50.4326 34.7753L 50.4316 34.7832L 50.4309 34.7911L 50.8794 34.8286ZM 50.9113 34.5785L 50.4664 34.5105L 50.4656 34.5169L 50.9113 34.5785ZM 50.9318 34.4427L 51.375 34.5209L 51.3762 34.5133L 50.9318 34.4427ZM 50.9807 34.1726L 50.5395 34.0841L 50.539 34.0864L 50.9807 34.1726ZM 51.0001 34.0677L 50.5599 33.9744L 50.5589 33.9791L 51.0001 34.0677ZM 51.1967 33.3112L 50.7756 33.1527L 50.771 33.1649L 50.7671 33.1773L 51.1967 33.3112ZM 51.2052 33.2868L 50.7761 33.1512L 50.7703 33.1698L 50.766 33.1889L 51.2052 33.2868ZM 51.3235 32.9396L 51.7452 33.0967L 51.7471 33.0914L 51.3235 32.9396ZM 51.3385 32.8994L 50.9168 32.7423L 50.9141 32.7494L 50.9117 32.7566L 51.3385 32.8994ZM 51.4727 32.5592L 51.0768 32.3453L 51.0667 32.364L 51.0583 32.3836L 51.4727 32.5592ZM 51.4812 32.5408L 51.0673 32.3641L 51.066 32.3672L 51.4812 32.5408ZM 54.1454 29.1577L 54.4146 29.5183L 54.4264 29.5094L 54.4377 29.4998L 54.1454 29.1577ZM 54.1574 29.1472L 53.8911 28.7845L 53.8637 28.8045L 53.8397 28.8285L 54.1574 29.1472ZM 54.4388 28.9478L 54.6942 29.3183L 54.6963 29.3168L 54.4388 28.9478ZM 54.4977 28.908L 54.7424 29.2857L 54.7473 29.2824L 54.4977 28.908ZM 54.7322 28.7578L 54.4948 28.3755L 54.491 28.3779L 54.7322 28.7578ZM 54.8375 28.6921L 55.0637 29.0812L 55.0667 29.0794L 54.8375 28.6921ZM 54.9842 28.6086L 54.761 28.2178L 54.7602 28.2183L 54.9842 28.6086ZM 57.109 27.7576L 57.2176 28.1943L 57.2266 28.192L 57.2356 28.1894L 57.109 27.7576ZM 57.1339 27.7496L 57.0278 27.3123L 57.0175 27.3148L 57.0074 27.3178L 57.1339 27.7496ZM 59.5771 27.5283L 59.5508 27.9775L 59.5511 27.9775L 59.5771 27.5283ZM 59.6804 27.5362L 59.7153 27.0875L 59.7063 27.087L 59.6804 27.5362ZM 60.0826 27.575L 60.0278 28.0218L 60.038 28.0228L 60.0826 27.575ZM 60.1569 27.584L 60.2152 27.1378L 60.2126 27.1374L 60.1569 27.584ZM 63.0312 28.5156L 63.2489 28.1217L 63.2466 28.1205L 63.0312 28.5156ZM 42.3593 60.4261L 42.7143 60.7027L 42.7145 60.7024L 42.3593 60.4261ZM 41.7944 61.1836L 41.9309 61.6124L 42.0743 61.5668L 42.1614 61.4441L 41.7944 61.1836ZM 32.5768 62.6101L 32.5768 62.1601L 32.5767 62.1601L 32.5768 62.6101ZM 52.2926 9.61461L 52.5856 9.2731L 52.5856 9.27307L 52.2926 9.61461ZM 62.0267 25.602L 61.9021 26.0344L 62.64 26.2471L 62.4649 25.4994L 62.0267 25.602ZM 60.9768 25.3573L 61.0566 24.9144L 61.0537 24.9139L 60.9768 25.3573ZM 60.9084 25.3463L 60.8273 25.789L 60.8348 25.7903L 60.8424 25.7915L 60.9084 25.3463ZM 60.5891 25.2946L 60.6531 24.8492L 60.6525 24.8491L 60.5891 25.2946ZM 60.401 25.2712L 60.3447 25.7177L 60.3479 25.7181L 60.401 25.2712ZM 60.0342 25.2314L 59.9908 25.6794L 59.9962 25.6798L 60.0342 25.2314ZM 59.7243 25.2081L 59.7523 24.7589L 59.7496 24.7588L 59.7243 25.2081ZM 59.5636 25.1986L 59.5842 24.7491L 59.5822 24.749L 59.5636 25.1986ZM 57.6749 25.2837L 57.2425 25.4084L 57.3498 25.7804L 57.7337 25.7298L 57.6749 25.2837ZM 48.8494 12.1169L 49.1297 11.7648L 49.1295 11.7647L 48.8494 12.1169ZM 13.8555 14.3277L 14.1775 14.642L 14.1775 14.6419L 13.8555 14.3277ZM 13.8784 15.9739L 13.5649 16.2968L 13.5657 16.2975L 13.8784 15.9739ZM 15.5291 15.9511L 15.207 15.6368L 15.2068 15.6371L 15.5291 15.9511ZM 47.3913 13.9362L 47.1112 14.2884L 47.1112 14.2884L 47.3913 13.9362ZM 55.4069 25.8457L 55.5627 26.2679L 55.9566 26.1225L 55.8388 25.7194L 55.4069 25.8457ZM 54.7168 26.1312L 54.9025 26.5411L 54.9026 26.541L 54.7168 26.1312ZM 54.616 26.1769L 54.4325 25.7659L 54.4241 25.7699L 54.616 26.1769ZM 54.3719 26.2943L 54.5705 26.6981L 54.5717 26.6976L 54.3719 26.2943ZM 54.1499 26.4082L 53.9385 26.0109L 53.9341 26.0133L 54.1499 26.4082ZM 53.9937 26.4913L 54.2092 26.8863L 54.2139 26.8837L 53.9937 26.4913ZM 48.8359 33.0719L 49.2694 33.1931L 49.2712 33.1861L 48.8359 33.0719ZM 48.8135 33.1615L 49.2496 33.2725L 49.2517 33.264L 49.2535 33.2556L 48.8135 33.1615ZM 48.7192 33.5693L 49.1561 33.6768L 49.1585 33.6672L 49.1604 33.6575L 48.7192 33.5693ZM 48.7012 33.6489L 48.2616 33.5526L 48.2601 33.5598L 48.7012 33.6489ZM 48.6139 34.1348L 49.058 34.2074L 49.0587 34.2026L 48.6139 34.1348ZM 48.6049 34.198L 49.05 34.2643L 49.0503 34.2618L 48.6049 34.198ZM 48.552 34.6128L 48.9993 34.6621L 48.9994 34.6611L 48.552 34.6128ZM 48.537 34.762L 48.9852 34.8022L 48.9852 34.8021L 48.537 34.762ZM 48.5106 35.1151L 48.9598 35.1424L 48.9598 35.1417L 48.5106 35.1151ZM 48.5016 35.2628L 48.0522 35.2403L 48.0521 35.2408L 48.5016 35.2628ZM 48.4956 44.1886L 48.9456 44.1886L 48.9456 44.1807L 48.9453 44.1728L 48.4956 44.1886ZM 48.4971 44.2294L 48.0469 44.2294L 48.0473 44.2433L 48.4971 44.2294ZM 48.5016 44.3269L 48.052 44.3474L 48.0523 44.3526L 48.5016 44.3269ZM 48.5071 44.4318L 48.9565 44.4077L 48.956 44.4001L 48.5071 44.4318ZM 48.5405 44.876L 48.0927 44.9198L 48.0928 44.9209L 48.5405 44.876ZM 48.555 45.0093L 48.1067 45.0497L 48.1077 45.058L 48.555 45.0093ZM 48.5994 45.3519L 49.0452 45.2905L 49.0442 45.2834L 48.5994 45.3519ZM 48.6288 45.5459L 49.0728 45.4724L 49.0725 45.4706L 48.6288 45.5459ZM 48.6852 45.8607L 49.1271 45.7757L 49.1269 45.7742L 48.6852 45.8607ZM 48.7302 46.0781L 49.1708 45.9864L 49.1689 45.9779L 48.7302 46.0781ZM 48.7766 46.28L 48.3388 46.3841L 48.3389 46.3846L 48.7766 46.28ZM 48.8814 46.6849L 48.4475 46.8046L 48.4497 46.8122L 48.8814 46.6849ZM 48.9098 46.7839L 48.4762 46.9043L 48.4777 46.9095L 48.9098 46.7839ZM 49.7556 48.8479L 50.0802 49.1596L 50.3078 48.9225L 50.1513 48.6336L 49.7556 48.8479ZM 44.5924 52.9204L 44.3651 52.532L 44.3648 52.5321L 44.5924 52.9204ZM 44.1767 54.5134L 44.5646 54.2853L 44.5643 54.2848L 44.1767 54.5134ZM 45.775 54.9282L 46.002 55.3168L 46.0023 55.3167L 45.775 54.9282ZM 51.1119 50.7907L 51.4501 50.4938L 51.1325 50.132L 50.793 50.4732L 51.1119 50.7907ZM 53.586 52.8731L 53.7086 53.3061L 54.7006 53.0253L 53.8201 52.4888L 53.586 52.8731ZM 62.6944 69.7682L 62.9976 70.1007L 63.1921 69.9233L 63.1328 69.6669L 62.6944 69.7682ZM 59.0916 73.0543L 58.7883 73.3868L 59.0916 73.6634L 59.3948 73.3868L 59.0916 73.0543ZM 55.4887 69.7682L 55.0503 69.6669L 54.991 69.9233L 55.1855 70.1007L 55.4887 69.7682ZM 57.7547 59.9636L 57.7547 59.5136L 57.3969 59.5136L 57.3163 59.8623L 57.7547 59.9636ZM 60.4284 59.9636L 60.8668 59.8623L 60.7863 59.5136L 60.4284 59.5136L 60.4284 59.9636ZM 56.0227 54.7019L 55.9392 54.2598L 55.3456 54.3718L 55.6228 54.9085L 56.0227 54.7019ZM 56.331 54.6477L 56.2624 54.2029L 56.2535 54.2045L 56.331 54.6477ZM 56.5421 54.6149L 56.6047 55.0606L 56.6129 55.0593L 56.5421 54.6149ZM 56.9363 54.5572L 56.9953 55.0033L 56.9973 55.0031L 56.9363 54.5572ZM 57.4264 54.498L 57.3809 54.0503L 57.3773 54.0507L 57.4264 54.498ZM 57.6609 54.4747L 57.7007 54.9229L 57.7016 54.9228L 57.6609 54.4747ZM 58.2702 54.4269L 58.2464 53.9775L 58.2439 53.9777L 58.2702 54.4269ZM 58.4099 54.4199L 58.4292 54.8696L 58.4355 54.8692L 58.4099 54.4199ZM 58.8301 54.4045L 58.8454 53.9548L 58.8298 53.9543L 58.8141 53.9548L 58.8301 54.4045ZM 59.353 54.4045L 59.369 53.9548L 59.3532 53.9542L 59.3375 53.9548L 59.353 54.4045ZM 59.7732 54.4199L 59.7491 54.8693L 59.7541 54.8695L 59.7732 54.4199ZM 59.9134 54.4269L 59.9389 53.9776L 59.9375 53.9775L 59.9134 54.4269ZM 60.5222 54.4747L 60.4816 54.9228L 60.4824 54.9229L 60.5222 54.4747ZM 60.7572 54.498L 60.8063 54.0507L 60.8024 54.0503L 60.7572 54.498ZM 61.2468 54.5572L 61.1856 55.003L 61.188 55.0034L 61.2468 54.5572ZM 61.641 54.6149L 61.5703 55.0593L 61.5749 55.06L 61.641 54.6149ZM 61.8516 54.6477L 61.9284 54.2043L 61.9212 54.2032L 61.8516 54.6477ZM 62.161 54.7019L 62.5608 54.9085L 62.8382 54.3713L 62.244 54.2597L 62.161 54.7019ZM 60.6455 57.6359L 60.6455 58.0859L 60.9195 58.0859L 61.0453 57.8424L 60.6455 57.6359ZM 57.5381 57.6359L 57.1383 57.8424L 57.2641 58.0859L 57.5381 58.0859L 57.5381 57.6359ZM 59.4109 52.0763L 59.3955 52.5261L 59.4118 52.5266L 59.4281 52.526L 59.4109 52.0763ZM 59.108 52.0679L 59.1124 51.6179L 59.108 51.6179L 59.108 52.0679ZM 59.0766 52.0679L 59.0766 51.6179L 59.0722 51.6179L 59.0766 52.0679ZM 58.7737 52.0763L 58.756 52.526L 58.7727 52.5267L 58.7893 52.5261L 58.7737 52.0763ZM 57.0441 51.8272L 56.9171 52.2589L 56.925 52.2612L 56.9329 52.2632L 57.0441 51.8272ZM 56.7467 51.7396L 56.6184 52.1709L 56.6197 52.1713L 56.7467 51.7396ZM 50.8938 44.8804L 50.4461 44.9265L 50.4476 44.9385L 50.8938 44.8804ZM 50.8874 44.8232L 51.335 44.776L 51.3334 44.7639L 50.8874 44.8232ZM 50.8609 44.5751L 50.4128 44.6166L 50.413 44.6181L 50.8609 44.5751ZM 50.8464 44.395L 50.3971 44.4208L 50.3977 44.428L 50.8464 44.395ZM 50.8365 44.2363L 50.3865 44.2363L 50.3865 44.2489L 50.3872 44.2614L 50.8365 44.2363ZM 50.8355 44.2194L 51.2855 44.2194L 51.2855 44.2104L 51.2851 44.2014L 50.8355 44.2194ZM 50.8265 40.9274L 50.7989 40.4782L 50.3765 40.5041L 50.3765 40.9274L 50.8265 40.9274ZM 60.7388 36.4207L 61.1174 36.1776L 60.7984 35.6807L 60.4039 36.1201L 60.7388 36.4207ZM 67.3581 40.8836L 67.8081 40.8836L 67.8081 40.4886L 67.4165 40.4374L 67.3581 40.8836ZM 67.3581 43.8454L 67.8081 43.8455L 67.8081 43.8454L 67.3581 43.8454ZM 64.8309 53.2561C 68.0116 51.3223 70.1435 47.8278 70.1435 43.8454L 69.2435 43.8454C 69.2435 47.4986 67.2885 50.7086 64.3633 52.4871L 64.8309 53.2561ZM 70.1435 43.8454L 70.1435 35.7528L 69.2435 35.7528L 69.2435 43.8454L 70.1435 43.8454ZM 70.1435 35.7528C 70.1435 31.7921 68.0349 28.3157 64.8825 26.3747L 64.4106 27.1411C 67.3101 28.9263 69.2435 32.1196 69.2435 35.7528L 70.1435 35.7528ZM 65.0895 26.6789C 63.7641 19.2792 59.8576 12.4499 54.1091 7.50845L 53.523 8.19145C 59.1638 13.0232 62.9181 19.5861 64.2035 26.8368L 65.0895 26.6789ZM 54.109 7.50841C 48.1434 2.39983 40.451 -0.44297 32.5768 -0.45L 32.5768 0.45C 40.2925 0.44297 47.6872 3.17566 53.523 8.19149L 54.109 7.50841ZM 32.5768 -0.45C 14.3668 -0.45 -0.45 14.315 -0.45 32.4691L 0.45 32.4691C 0.45 14.8148 14.8611 0.45 32.5768 0.45L 32.5768 -0.45ZM -0.45 32.4691C -0.45 50.6228 14.3668 65.3878 32.5768 65.3878L 32.5768 64.4878C 14.8611 64.4878 0.45 50.1229 0.45 32.4691L -0.45 32.4691ZM 32.5768 65.3878C 35.1482 65.387 37.7175 65.088 40.1956 64.5044L 39.989 63.6284C 37.5619 64.2016 35.0961 64.4885 32.5768 64.4878L 32.5768 65.3878ZM 39.6873 63.8703C 38.4475 66.4366 37.7374 69.3119 37.7341 72.255L 38.6341 72.255C 38.6308 69.4207 39.294 66.7424 40.4973 64.2625L 39.6873 63.8703ZM 37.7341 72.255L 37.7341 78.4139L 38.6341 78.4139L 38.6341 72.255L 37.7341 72.255ZM 37.7341 78.4139C 37.7341 79.3071 38.4601 80.0278 39.3518 80.0278L 39.3518 79.1278C 38.9541 79.1278 38.6341 78.807 38.6341 78.4139L 37.7341 78.4139ZM 39.3518 80.0278L 43.2201 80.0278L 43.2201 79.1278L 39.3518 79.1278L 39.3518 80.0278ZM 43.2201 80.0278C 44.1118 80.0278 44.8378 79.3071 44.8378 78.4139L 43.9378 78.4139C 43.9378 78.807 43.6178 79.1278 43.2201 79.1278L 43.2201 80.0278ZM 44.8378 78.4139C 44.8378 77.522 44.1121 76.8001 43.2201 76.8001L 43.2201 77.7001C 43.6176 77.7001 43.9378 78.0216 43.9378 78.4139L 44.8378 78.4139ZM 43.2201 76.8001L 40.5195 76.8001L 40.5195 77.7001L 43.2201 77.7001L 43.2201 76.8001ZM 40.9695 77.2501L 40.9695 72.255L 40.0695 72.255L 40.0695 77.2501L 40.9695 77.2501ZM 40.9695 72.255C 40.9645 69.0963 41.8857 66.0938 43.651 63.3935L 42.897 62.902C 41.0705 65.7125 40.0744 68.9629 40.0695 72.255L 40.9695 72.255ZM 43.274 63.5977L 43.2745 63.5977L 43.2745 62.6977L 43.274 62.6977L 43.274 63.5977ZM 43.6464 63.4011L 43.868 63.0758L 43.1241 62.5691L 42.9026 62.8944L 43.6464 63.4011ZM 43.8679 63.0758C 45.5212 60.6436 47.7621 58.639 50.379 57.1957L 49.9436 56.408C 47.2411 57.9051 44.8442 60.0505 43.1242 62.5691L 43.8679 63.0758ZM 50.3777 57.1964C 51.4882 56.5866 52.6347 56.0945 53.834 55.7143L 53.5616 54.8565C 52.3207 55.2511 51.0939 55.7776 49.9449 56.4073L 50.3777 57.1964ZM 53.2979 55.4918L 55.1922 59.1609L 55.9919 58.748L 54.0976 55.0789L 53.2979 55.4918ZM 55.1536 58.8531L 52.6221 69.8056L 53.499 70.0083L 56.0305 59.0558L 55.1536 58.8531ZM 52.6222 69.8053C 52.4906 70.3728 52.6761 70.9677 53.1069 71.3598L 53.7127 70.6942C 53.5228 70.5213 53.4409 70.2588 53.4989 70.0086L 52.6222 69.8053ZM 53.1066 71.3595L 57.9998 75.8238L 58.6064 75.159L 53.7131 70.6946L 53.1066 71.3595ZM 57.9999 75.8239C 58.2939 76.0802 58.7323 76.2401 59.0916 76.2468L 59.0916 75.3468C 58.8869 75.3535 58.7584 75.3094 58.6064 75.1589L 57.9999 75.8239ZM 59.0916 76.2468C 59.4521 76.2401 59.8892 76.0802 60.1833 75.8242L 59.5776 75.1586C 59.4247 75.3094 59.2969 75.3535 59.0916 75.3468L 59.0916 76.2468ZM 60.1838 75.8239L 65.0775 71.3595L 64.471 70.6946L 59.5772 75.159L 60.1838 75.8239ZM 65.0775 71.3596C 65.5078 70.9672 65.6938 70.3729 65.5613 69.8048L 64.6848 70.0091C 64.743 70.2587 64.6615 70.5209 64.4711 70.6945L 65.0775 71.3596ZM 65.5615 69.8056L 63.0305 58.8531L 62.1537 59.0558L 64.6846 70.0083L 65.5615 69.8056ZM 62.9919 59.1609L 64.8867 55.4918L 64.087 55.0789L 62.1923 58.748L 62.9919 59.1609ZM 64.3506 55.7142C 67.0988 56.5845 69.6313 58.0593 71.7549 60.074L 72.3737 59.4205C 70.1708 57.3389 67.4638 55.7618 64.6231 54.8565L 64.3506 55.7142ZM 71.7549 60.074C 75.2835 63.4156 77.2151 67.7432 77.2151 72.255L 78.1152 72.255C 78.1152 67.4771 76.0677 62.9187 72.3737 59.4205L 71.7549 60.074ZM 77.2151 72.255L 77.2151 77.2506L 78.1152 77.2506L 78.1152 72.255L 77.2151 72.255ZM 77.6651 76.8006L 52.1025 76.8006L 52.1025 77.7006L 77.6651 77.7006L 77.6651 76.8006ZM 52.1025 76.8006C 51.2107 76.8006 50.4848 77.5218 50.4848 78.4139L 51.3848 78.4139C 51.3848 78.0219 51.7047 77.7006 52.1025 77.7006L 52.1025 76.8006ZM 50.4848 78.4139C 50.4848 79.3066 51.2102 80.0288 52.1025 80.0288L 52.1025 79.1288C 51.7052 79.1288 51.3848 78.8075 51.3848 78.4139L 50.4848 78.4139ZM 52.1025 80.0288L 78.8323 80.0288L 78.8323 79.1288L 52.1025 79.1288L 52.1025 80.0288ZM 78.8323 80.0288C 79.7239 80.0288 80.45 79.3067 80.45 78.4139L 79.55 78.4139C 79.55 78.8074 79.2292 79.1288 78.8323 79.1288L 78.8323 80.0288ZM 80.45 78.4139L 80.45 72.255L 79.55 72.255L 79.55 78.4139L 80.45 78.4139ZM 80.45 72.255C 80.449 63.0438 73.6535 54.9697 64.7198 52.4387L 64.4745 53.3046C 73.0679 55.7393 79.549 63.4934 79.55 72.2551L 80.45 72.255ZM 63.0199 29.0233C 65.3449 30.3771 66.9076 32.8872 66.9076 35.7528L 67.8076 35.7528C 67.8076 32.5514 66.061 29.7526 63.4727 28.2456L 63.0199 29.0233ZM 66.9076 35.7528L 66.9076 38.5256L 67.8076 38.5256L 67.8076 35.7528L 66.9076 35.7528ZM 67.4394 38.0831C 65.6679 37.7712 64.4739 36.7349 63.6411 35.7026C 62.8192 34.695 62.4518 33.7599 62.419 33.675L 61.5796 33.9998C 61.6141 34.089 62.0426 35.1498 62.9415 36.2687C 63.8293 37.3629 65.2808 38.5837 67.2758 38.9681L 67.4394 38.0831ZM 62.4202 33.6782C 62.196 33.0855 61.6464 32.6877 61.0217 32.6425L 60.9568 33.5402C 61.2404 33.5607 61.4812 33.7398 61.5784 33.9966L 62.4202 33.6782ZM 61.0203 32.6424C 60.3926 32.599 59.7946 32.924 59.4897 33.4725L 60.2763 33.9098C 60.4115 33.6665 60.6788 33.521 60.9583 33.5403L 61.0203 32.6424ZM 59.4898 33.4723C 59.419 33.5995 57.0929 37.6981 50.7936 38.1453L 50.8573 39.0431C 57.5892 38.5652 60.1344 34.1648 60.2762 33.91L 59.4898 33.4723ZM 51.2755 38.5942L 51.2755 35.7523L 50.3755 35.7523L 50.3755 38.5942L 51.2755 38.5942ZM 51.2755 35.7523C 51.2754 35.627 51.2787 35.5079 51.2849 35.3827L 50.386 35.338C 50.3793 35.4734 50.3755 35.6149 50.3755 35.7523L 51.2755 35.7523ZM 51.2843 35.3921C 51.2873 35.3502 51.2903 35.3089 51.2933 35.2663L 50.3956 35.2027C 50.3926 35.2446 50.3896 35.2859 50.3866 35.3285L 51.2843 35.3921ZM 51.2937 35.26C 51.2984 35.177 51.3047 35.0977 51.3129 35.0128L 50.417 34.927C 50.4081 35.0192 50.4005 35.1159 50.3952 35.209L 51.2937 35.26ZM 51.3128 35.0129C 51.3166 34.9732 51.3229 34.9237 51.3278 34.8661L 50.4309 34.7911C 50.4279 34.829 50.4222 34.873 50.417 34.9269L 51.3128 35.0129ZM 51.3262 34.882C 51.336 34.7998 51.346 34.7203 51.3571 34.6401L 50.4656 34.5169C 50.4537 34.6027 50.4427 34.6904 50.4326 34.7753L 51.3262 34.882ZM 51.3562 34.6464C 51.3641 34.5941 51.3689 34.5544 51.3749 34.5209L 50.4886 34.3645C 50.4787 34.4214 50.4725 34.4714 50.4665 34.5106L 51.3562 34.6464ZM 51.3762 34.5133C 51.3896 34.4289 51.4051 34.3471 51.4224 34.2588L 50.539 34.0864C 50.5213 34.1772 50.5029 34.2744 50.4874 34.372L 51.3762 34.5133ZM 51.4219 34.2611C 51.4307 34.2166 51.4362 34.1813 51.4413 34.1562L 50.5589 33.9791C 50.5501 34.0236 50.5446 34.0589 50.5395 34.0841L 51.4219 34.2611ZM 51.4404 34.161C 51.4926 33.9139 51.5522 33.6825 51.6264 33.4451L 50.7671 33.1773C 50.6866 33.4362 50.6164 33.7082 50.5599 33.9744L 51.4404 34.161ZM 51.6179 33.4696C 51.6169 33.4723 51.6161 33.4743 51.6171 33.4717C 51.6179 33.4698 51.6203 33.4638 51.6225 33.4578C 51.6279 33.4435 51.6371 33.4177 51.6444 33.3847L 50.766 33.1889C 50.7714 33.1649 50.7778 33.1473 50.7802 33.1409C 50.7812 33.1382 50.782 33.1362 50.781 33.1388C 50.7804 33.1401 50.7781 33.1461 50.7756 33.1527L 51.6179 33.4696ZM 51.6343 33.4224C 51.6701 33.3091 51.7054 33.2034 51.7452 33.0967L 50.9018 32.7826C 50.8568 32.9036 50.8142 33.0308 50.7761 33.1512L 51.6343 33.4224ZM 51.7471 33.0914C 51.7468 33.0925 51.7482 33.0885 51.7512 33.0808C 51.7539 33.0736 51.7596 33.059 51.7652 33.0421L 50.9117 32.7566C 50.9129 32.7531 50.9135 32.7517 50.9111 32.7578C 50.9097 32.7616 50.9046 32.7747 50.8999 32.7878L 51.7471 33.0914ZM 51.7602 33.0564C 51.8015 32.9454 51.8423 32.8403 51.8871 32.7347L 51.0583 32.3836C 51.0083 32.5018 50.9603 32.6255 50.9168 32.7423L 51.7602 33.0564ZM 51.8686 32.773C 51.8822 32.7467 51.8939 32.7203 51.8964 32.7143L 51.066 32.3672C 51.0629 32.3746 51.0682 32.3611 51.0768 32.3453L 51.8686 32.773ZM 51.895 32.7174C 52.4437 31.4222 53.2957 30.3489 54.4146 29.5183L 53.8762 28.7971C 52.6687 29.7032 51.6704 30.9616 51.0673 32.3641L 51.895 32.7174ZM 54.4377 29.4998C 54.4364 29.5009 54.4354 29.5018 54.4368 29.5006C 54.4378 29.4997 54.4403 29.4976 54.4428 29.4955C 54.4471 29.4919 54.4602 29.4807 54.475 29.4659L 53.8397 28.8285C 53.8461 28.8222 53.8512 28.8174 53.854 28.8149C 53.857 28.8122 53.8592 28.8104 53.8599 28.8098C 53.8606 28.8092 53.861 28.8089 53.8597 28.8099C 53.8591 28.8105 53.8562 28.8129 53.8531 28.8155L 54.4377 29.4998ZM 54.4237 29.51C 54.5127 29.4445 54.6021 29.3818 54.6942 29.3183L 54.1834 28.5772C 54.0879 28.6431 53.9876 28.7136 53.8911 28.7845L 54.4237 29.51ZM 54.6963 29.3168C 54.7143 29.3043 54.7269 29.2957 54.7424 29.2857L 54.253 28.5303C 54.2286 28.5462 54.2032 28.5634 54.1813 28.5787L 54.6963 29.3168ZM 54.7473 29.2824C 54.818 29.2352 54.8931 29.1886 54.9734 29.1377L 54.491 28.3779C 54.4146 28.4264 54.3311 28.4783 54.2481 28.5336L 54.7473 29.2824ZM 54.9697 29.14C 55.0105 29.1146 55.0399 29.0947 55.0637 29.0811L 54.6113 28.3031C 54.5632 28.3313 54.5228 28.3582 54.4948 28.3755L 54.9697 29.14ZM 55.0667 29.0794C 55.1075 29.0551 55.1543 29.0298 55.2082 28.9989L 54.7602 28.2183C 54.7153 28.2441 54.6633 28.2724 54.6083 28.3049L 55.0667 29.0794ZM 55.2074 28.9993C 55.8331 28.6408 56.4883 28.3745 57.2176 28.1943L 57.0004 27.3209C 56.2097 27.5187 55.4397 27.8313 54.761 28.2178L 55.2074 28.9993ZM 57.2356 28.1894C 57.2487 28.1855 57.2604 28.1816 57.2633 28.1806C 57.2686 28.1789 57.2652 28.1801 57.2605 28.1814L 57.0074 27.3178C 56.9942 27.3216 56.9826 27.3256 56.9796 27.3265C 56.9743 27.3283 56.9777 27.3271 56.9824 27.3257L 57.2356 28.1894ZM 57.2401 28.1869C 57.8447 28.0395 58.4463 27.963 59.0936 27.9639L 59.0936 27.0639C 58.3895 27.0648 57.6817 27.1544 57.0278 27.3123L 57.2401 28.1869ZM 59.0936 27.9639C 59.2478 27.9638 59.3958 27.9684 59.5508 27.9775L 59.6034 27.0791C 59.436 27.0693 59.2617 27.0639 59.0936 27.0639L 59.0936 27.9639ZM 59.5511 27.9775C 59.5727 27.9786 59.6071 27.9826 59.6544 27.9855L 59.7063 27.087C 59.6848 27.0859 59.6503 27.082 59.6031 27.079L 59.5511 27.9775ZM 59.6455 27.9849C 59.7772 27.9951 59.9015 28.0061 60.0278 28.0217L 60.1374 27.1284C 59.9962 27.1111 59.852 27.0982 59.7153 27.0876L 59.6455 27.9849ZM 60.038 28.0228C 60.0547 28.0244 60.0747 28.0272 60.1013 28.0305L 60.2126 27.1374C 60.1913 27.1348 60.1603 27.1306 60.1272 27.1273L 60.038 28.0228ZM 60.0986 28.0302C 61.0635 28.1544 61.9627 28.4432 62.8158 28.9106L 63.2466 28.1205C 62.3173 27.616 61.2603 27.2762 60.2152 27.1378L 60.0986 28.0302ZM 62.8136 28.9094L 63.0286 29.0283L 63.464 28.2406L 63.2489 28.1217L 62.8136 28.9094ZM 42.0043 60.1496C 41.8076 60.4021 41.613 60.6618 41.4275 60.9232L 42.1614 61.4441C 42.3401 61.1922 42.5228 60.9486 42.7143 60.7027L 42.0043 60.1496ZM 41.6579 60.7548C 38.7198 61.6916 35.6889 62.1614 32.5768 62.1601L 32.5768 63.0601C 35.7581 63.0588 38.9259 62.5677 41.9309 61.6124L 41.6579 60.7548ZM 32.5767 62.1601C 16.1485 62.1611 2.78586 48.8397 2.78586 32.4691L 1.88586 32.4691C 1.88586 49.3396 15.6543 63.0611 32.5768 63.0601L 32.5767 62.1601ZM 2.78586 32.4691C 2.78586 16.0985 16.148 2.77768 32.5768 2.77768L 32.5768 1.87768C 15.6538 1.87768 1.88586 15.5987 1.88586 32.4691L 2.78586 32.4691ZM 32.5768 2.77768C 39.7336 2.77065 46.5869 5.3034 51.9996 9.95615L 52.5856 9.27307C 47.043 4.52757 39.8921 1.88471 32.5768 1.87768L 32.5768 2.77768ZM 51.9995 9.95612C 56.8282 14.092 60.1615 19.5868 61.5886 25.7046L 62.4649 25.4994C 60.9947 19.2466 57.5145 13.5099 52.5856 9.2731L 51.9995 9.95612ZM 62.1514 25.1696C 61.7968 25.0675 61.424 24.9807 61.0566 24.9144L 60.8971 25.8002C 61.2422 25.8622 61.57 25.9385 61.9021 26.0344L 62.1514 25.1696ZM 61.0537 24.9139C 61.0275 24.9094 61.0002 24.905 60.9745 24.9012L 60.8424 25.7915C 60.8636 25.7946 60.8802 25.7972 60.9 25.8007L 61.0537 24.9139ZM 60.9896 24.9037C 60.8786 24.8834 60.7637 24.8651 60.6531 24.8492L 60.5251 25.74C 60.629 25.755 60.7267 25.7705 60.8273 25.789L 60.9896 24.9037ZM 60.6525 24.8491C 60.5829 24.8392 60.5153 24.8316 60.454 24.8244L 60.3479 25.7181C 60.4124 25.7257 60.4695 25.7321 60.5256 25.7401L 60.6525 24.8491ZM 60.4573 24.8248C 60.3325 24.809 60.2021 24.7941 60.0722 24.783L 59.9962 25.6798C 60.1128 25.6897 60.2249 25.7026 60.3447 25.7177L 60.4573 24.8248ZM 60.0775 24.7835C 59.9682 24.773 59.8572 24.7655 59.7523 24.7589L 59.6963 25.6572C 59.799 25.6636 59.8946 25.67 59.9908 25.6793L 60.0775 24.7835ZM 59.7496 24.7588C 59.7008 24.756 59.645 24.7519 59.5842 24.7491L 59.5431 25.6481C 59.591 25.6503 59.642 25.6541 59.699 25.6574L 59.7496 24.7588ZM 59.5822 24.749C 59.4233 24.7424 59.2558 24.7372 59.0916 24.7372L 59.0916 25.6372C 59.2417 25.6371 59.3906 25.6419 59.5451 25.6482L 59.5822 24.749ZM 59.0916 24.7372C 58.5937 24.7375 58.0927 24.7749 57.6161 24.8375L 57.7337 25.7298C 58.1852 25.6701 58.6273 25.6369 59.0916 25.6372L 59.0916 24.7372ZM 58.1072 25.159C 56.5964 19.9403 53.4146 15.1823 49.1297 11.7648L 48.5692 12.4689C 52.7524 15.7918 55.7803 20.3196 57.2425 25.4084L 58.1072 25.159ZM 49.1295 11.7647C 44.4009 8.01139 38.6325 6.0007 32.5758 5.99439L 32.5758 6.89439C 38.4823 6.88808 43.9665 8.79962 48.5693 12.469L 49.1295 11.7647ZM 32.5758 5.99439C 25.3423 5.99439 18.5778 8.84339 13.5334 14.0134L 14.1775 14.6419C 19.0524 9.64574 25.5845 6.89439 32.5758 6.89439L 32.5758 5.99439ZM 13.5335 14.0133C 12.9097 14.6523 12.924 15.6745 13.565 16.2968L 14.1919 15.6511C 13.9077 15.3752 13.9021 14.9241 14.1775 14.642L 13.5335 14.0133ZM 13.5657 16.2975C 14.2054 16.9159 15.2284 16.9047 15.8515 16.2651L 15.2068 15.6371C 14.9316 15.9195 14.4766 15.9263 14.1912 15.6504L 13.5657 16.2975ZM 15.8512 16.2653C 20.2825 11.7232 26.2202 9.22207 32.5758 9.22207L 32.5758 8.32207C 25.978 8.32207 19.8079 10.9209 15.207 15.6368L 15.8512 16.2653ZM 32.5758 9.22207C 37.9463 9.21575 42.9275 10.9522 47.1112 14.2884L 47.6715 13.5841C 43.362 10.164 38.0966 8.32838 32.5758 8.32207L 32.5758 9.22207ZM 47.1112 14.2884C 50.8964 17.2927 53.637 21.3756 54.975 25.9719L 55.8388 25.7194C 54.4522 20.9941 51.558 16.6825 47.6715 13.5841L 47.1112 14.2884ZM 55.2511 25.4235C 55.0073 25.5136 54.7637 25.6158 54.5309 25.7213L 54.9026 26.541C 55.1239 26.4406 55.3374 26.3509 55.5627 26.2679L 55.2511 25.4235ZM 54.5311 25.7213C 54.4966 25.7369 54.4633 25.7523 54.4326 25.766L 54.7993 26.5879C 54.8355 26.5717 54.8711 26.5553 54.9025 26.5411L 54.5311 25.7213ZM 54.4241 25.7699C 54.3409 25.8091 54.2556 25.8498 54.1722 25.8911L 54.5717 26.6976C 54.649 26.6592 54.7264 26.6224 54.8078 26.584L 54.4241 25.7699ZM 54.1734 25.8905C 54.0947 25.9292 54.015 25.9703 53.9385 26.0109L 54.3612 26.8055C 54.4325 26.7676 54.4994 26.7331 54.5705 26.6981L 54.1734 25.8905ZM 53.9341 26.0133C 53.8912 26.0369 53.836 26.0639 53.7734 26.0989L 54.2139 26.8837C 54.2541 26.8609 54.3047 26.8363 54.3656 26.8031L 53.9341 26.0133ZM 53.7782 26.0962C 51.1154 27.549 49.1678 30.0337 48.4007 32.9577L 49.2712 33.1861C 49.9752 30.5029 51.7631 28.2208 54.2092 26.8863L 53.7782 26.0962ZM 48.4026 32.9508C 48.393 32.9852 48.3821 33.0276 48.3734 33.0674L 49.2535 33.2556C 49.2579 33.2347 49.262 33.2194 49.2693 33.1931L 48.4026 32.9508ZM 48.3774 33.0505C 48.3422 33.1888 48.3071 33.3354 48.2779 33.4811L 49.1604 33.6575C 49.1861 33.5286 49.2159 33.4047 49.2496 33.2725L 48.3774 33.0505ZM 48.2822 33.4618C 48.2741 33.4952 48.2673 33.5267 48.2616 33.5527L 49.1408 33.7451C 49.1471 33.7164 49.1513 33.6962 49.1561 33.6768L 48.2822 33.4618ZM 48.2601 33.5598C 48.227 33.724 48.1951 33.8963 48.169 34.067L 49.0587 34.2026C 49.0826 34.0461 49.1106 33.8951 49.1423 33.7379L 48.2601 33.5598ZM 48.1698 34.0623C 48.1648 34.0932 48.1617 34.1185 48.1595 34.1341L 49.0503 34.2618C 49.0541 34.2357 49.056 34.2192 49.058 34.2073L 48.1698 34.0623ZM 48.1598 34.1316C 48.1386 34.274 48.12 34.4218 48.1046 34.5645L 48.9994 34.6611C 49.0139 34.5263 49.0303 34.3965 49.05 34.2643L 48.1598 34.1316ZM 48.1047 34.5634C 48.099 34.6152 48.0936 34.669 48.0888 34.7219L 48.9852 34.8021C 48.9895 34.7545 48.994 34.7099 48.9993 34.6621L 48.1047 34.5634ZM 48.0888 34.7218C 48.0781 34.8418 48.0686 34.9669 48.0614 35.0885L 48.9598 35.1417C 48.9665 35.0276 48.975 34.916 48.9852 34.8022L 48.0888 34.7218ZM 48.0614 35.0878C 48.0586 35.1346 48.0549 35.1858 48.0522 35.2403L 48.951 35.2854C 48.9533 35.2405 48.9566 35.1941 48.9598 35.1424L 48.0614 35.0878ZM 48.0521 35.2408C 48.0439 35.4083 48.0392 35.5824 48.0391 35.7542L 48.9391 35.7542C 48.9391 35.5948 48.9433 35.4427 48.9511 35.2849L 48.0521 35.2408ZM 48.0391 35.7542L 48.0391 43.8454L 48.9391 43.8454L 48.9391 35.7542L 48.0391 35.7542ZM 48.0391 43.8454C 48.0392 43.9647 48.0418 44.0875 48.0459 44.2044L 48.9453 44.1728C 48.9414 44.0619 48.9391 43.9549 48.9391 43.8454L 48.0391 43.8454ZM 48.0456 44.1886C 48.0456 44.2101 48.0468 44.2291 48.0471 44.234C 48.0475 44.2425 48.0471 44.2369 48.0471 44.2294L 48.9471 44.2294C 48.9471 44.2079 48.9459 44.1889 48.9457 44.184C 48.9452 44.1755 48.9456 44.1811 48.9456 44.1886L 48.0456 44.1886ZM 48.0473 44.2433C 48.0486 44.2825 48.0508 44.3182 48.0521 44.3474L 48.9511 44.3064C 48.9495 44.2699 48.9476 44.2409 48.9469 44.2155L 48.0473 44.2433ZM 48.0523 44.3526C 48.054 44.381 48.0552 44.4188 48.0582 44.4635L 48.956 44.4001C 48.954 44.3742 48.9532 44.3424 48.9509 44.3011L 48.0523 44.3526ZM 48.0577 44.4559C 48.066 44.6093 48.0777 44.7669 48.0927 44.9198L 48.9884 44.8321C 48.9744 44.6896 48.9642 44.5518 48.9564 44.4077L 48.0577 44.4559ZM 48.0928 44.9209C 48.0981 44.9733 48.1038 45.0154 48.1068 45.0497L 49.0032 44.9688C 48.9982 44.9146 48.9919 44.8681 48.9883 44.831L 48.0928 44.9209ZM 48.1077 45.058C 48.1205 45.1762 48.1363 45.3009 48.1547 45.4204L 49.0442 45.2834C 49.0276 45.1762 49.0144 45.0711 49.0023 44.9605L 48.1077 45.058ZM 48.1536 45.4134C 48.1629 45.4807 48.1734 45.5518 48.1852 45.6212L 49.0725 45.4706C 49.0623 45.4107 49.0539 45.3535 49.0452 45.2905L 48.1536 45.4134ZM 48.1849 45.6194C 48.2027 45.7271 48.2224 45.8385 48.2436 45.9473L 49.1269 45.7742C 49.1072 45.674 49.0899 45.5756 49.0728 45.4724L 48.1849 45.6194ZM 48.2433 45.9458C 48.2576 46.0198 48.2736 46.1 48.2914 46.1783L 49.1689 45.9779C 49.1537 45.9119 49.1408 45.8469 49.1271 45.7757L 48.2433 45.9458ZM 48.2896 46.1698C 48.3052 46.2443 48.3231 46.3182 48.3388 46.3841L 49.2143 46.1759C 49.1981 46.1076 49.1831 46.0462 49.1707 45.9864L 48.2896 46.1698ZM 48.3389 46.3846C 48.3725 46.5251 48.4099 46.668 48.4476 46.8046L 49.3151 46.5652C 49.279 46.4342 49.2455 46.3065 49.2142 46.1755L 48.3389 46.3846ZM 48.4497 46.8122C 48.4594 46.8448 48.4679 46.8742 48.4762 46.9043L 49.3434 46.6634C 49.3338 46.6289 49.3233 46.5926 49.313 46.5575L 48.4497 46.8122ZM 48.4777 46.9095C 48.6951 47.655 48.9972 48.3912 49.3599 49.0622L 50.1513 48.6336C 49.8104 48.0055 49.5447 47.3581 49.3419 46.6582L 48.4777 46.9095ZM 49.431 48.5363C 47.9267 50.1048 46.2424 51.4346 44.3651 52.532L 44.8197 53.3088C 46.7498 52.178 48.5316 50.7712 50.0802 49.1596L 49.431 48.5363ZM 44.3648 52.5321C 43.5953 52.9831 43.335 53.9724 43.7891 54.7421L 44.5643 54.2848C 44.3647 53.9464 44.4777 53.5092 44.8199 53.3086L 44.3648 52.5321ZM 43.7888 54.7416C 44.0902 55.254 44.6315 55.5384 45.1842 55.5384L 45.1842 54.6384C 44.9364 54.6384 44.6973 54.5109 44.5646 54.2853L 43.7888 54.7416ZM 45.1842 55.5384C 45.441 55.5349 45.7598 55.4532 46.002 55.3168L 45.5481 54.5397C 45.419 54.6202 45.3296 54.6419 45.1842 54.6384L 45.1842 55.5384ZM 46.0023 55.3167C 47.9825 54.1569 49.8159 52.7296 51.4309 51.1081L 50.793 50.4732C 49.2193 52.0557 47.4777 53.4118 45.5478 54.5398L 46.0023 55.3167ZM 50.7738 51.0875C 51.5097 51.9239 52.3946 52.6726 53.3519 53.2574L 53.8201 52.4888C 52.9211 51.9426 52.1403 51.2818 51.4501 50.4938L 50.7738 51.0875ZM 53.4634 52.4401C 48.8846 53.7426 44.82 56.5376 42.0041 60.1499L 42.7145 60.7024C 45.4376 57.1924 49.2673 54.5572 53.7086 53.3061L 53.4634 52.4401ZM 62.3912 69.4357L 58.7883 72.7218L 59.3948 73.3868L 62.9976 70.1007L 62.3912 69.4357ZM 59.3948 72.7218L 55.792 69.4357L 55.1855 70.1007L 58.7883 73.3868L 59.3948 72.7218ZM 55.9272 69.8695L 58.1932 60.0649L 57.3163 59.8623L 55.0503 69.6669L 55.9272 69.8695ZM 57.7547 60.4136L 60.4284 60.4136L 60.4284 59.5136L 57.7547 59.5136L 57.7547 60.4136ZM 59.99 60.0649L 62.256 69.8695L 63.1328 69.6669L 60.8668 59.8623L 59.99 60.0649ZM 56.1061 55.1441C 56.2035 55.1257 56.3039 55.1093 56.4086 55.091L 56.2535 54.2045C 56.1536 54.222 56.0474 54.2394 55.9392 54.2598L 56.1061 55.1441ZM 56.3997 55.0925C 56.4744 55.0809 56.5407 55.0695 56.6047 55.0605L 56.4796 54.1693C 56.4018 54.1802 56.3294 54.1927 56.2624 54.203L 56.3997 55.0925ZM 56.6129 55.0593C 56.7416 55.0388 56.867 55.0203 56.9953 55.0033L 56.8774 54.1111C 56.7422 54.129 56.6051 54.1492 56.4714 54.1705L 56.6129 55.0593ZM 56.9973 55.0031C 57.1564 54.9813 57.3136 54.9631 57.4755 54.9453L 57.3773 54.0507C 57.2128 54.0688 57.0436 54.0884 56.8754 54.1114L 56.9973 55.0031ZM 57.4718 54.9457C 57.5517 54.9376 57.6268 54.9294 57.7007 54.9229L 57.6211 54.0264C 57.5383 54.0338 57.4577 54.0425 57.3809 54.0503L 57.4718 54.9457ZM 57.7016 54.9228C 57.9031 54.9045 58.099 54.8877 58.2965 54.8761L 58.2439 53.9777C 58.0342 53.99 57.8239 54.008 57.6202 54.0265L 57.7016 54.9228ZM 58.294 54.8763C 58.341 54.8738 58.3852 54.8714 58.4292 54.8695L 58.3906 53.9704C 58.3418 53.9725 58.2931 53.9751 58.2464 53.9775L 58.294 54.8763ZM 58.4355 54.8692C 58.5664 54.8617 58.7018 54.8593 58.846 54.8542L 58.8141 53.9548C 58.6779 53.9597 58.5329 53.9623 58.3843 53.9707L 58.4355 54.8692ZM 58.8147 54.8543C 58.8981 54.8571 58.9926 54.8618 59.0916 54.862L 59.0916 53.962C 59.0158 53.9621 58.9367 53.9579 58.8454 53.9548L 58.8147 54.8543ZM 59.0916 54.862C 59.1903 54.8618 59.2859 54.8571 59.3686 54.8543L 59.3375 53.9548C 59.2475 53.9579 59.1674 53.9621 59.0916 53.962L 59.0916 54.862ZM 59.3371 54.8542C 59.4805 54.8593 59.6172 54.8622 59.7491 54.8693L 59.7973 53.9706C 59.6508 53.9628 59.506 53.9597 59.369 53.9548L 59.3371 54.8542ZM 59.7541 54.8695C 59.7987 54.8714 59.8431 54.8738 59.8893 54.8763L 59.9375 53.9775C 59.891 53.9751 59.8416 53.9724 59.7923 53.9703L 59.7541 54.8695ZM 59.888 54.8762C 60.0831 54.8872 60.2791 54.9045 60.4816 54.9228L 60.5628 54.0265C 60.3591 54.008 60.148 53.9895 59.9389 53.9776L 59.888 54.8762ZM 60.4824 54.9229C 60.5563 54.9294 60.6315 54.9376 60.7121 54.9458L 60.8024 54.0503C 60.7253 54.0425 60.6448 54.0338 60.5621 54.0264L 60.4824 54.9229ZM 60.7082 54.9453C 60.87 54.9631 61.0271 54.9813 61.1856 55.003L 61.3079 54.1114C 61.1401 54.0884 60.9709 54.0688 60.8063 54.0507L 60.7082 54.9453ZM 61.188 55.0034C 61.3166 55.0203 61.4414 55.0388 61.5703 55.0593L 61.7117 54.1705C 61.5781 54.1492 61.4414 54.129 61.3055 54.1111L 61.188 55.0034ZM 61.5749 55.06C 61.6422 55.07 61.7108 55.0812 61.7819 55.0923L 61.9212 54.2032C 61.8526 54.1924 61.7805 54.1807 61.7071 54.1698L 61.5749 55.06ZM 61.7747 55.0911C 61.8799 55.1094 61.9796 55.1257 62.0779 55.1442L 62.244 54.2597C 62.1357 54.2394 62.0298 54.2219 61.9284 54.2043L 61.7747 55.0911ZM 61.7611 54.4954L 60.2457 57.4294L 61.0453 57.8424L 62.5608 54.9085L 61.7611 54.4954ZM 60.6455 57.1859L 57.5381 57.1859L 57.5381 58.0859L 60.6455 58.0859L 60.6455 57.1859ZM 57.938 57.4294L 56.4225 54.4954L 55.6228 54.9085L 57.1383 57.8424L 57.938 57.4294ZM 59.4263 51.6266C 59.3258 51.6232 59.2205 51.619 59.1124 51.6179L 59.1036 52.5179C 59.1981 52.5187 59.2925 52.5226 59.3955 52.5261L 59.4263 51.6266ZM 59.108 51.6179C 59.0975 51.6179 59.0866 51.6179 59.0766 51.6179L 59.0766 52.5179C 59.0866 52.5179 59.0975 52.5179 59.108 52.5179L 59.108 51.6179ZM 59.0722 51.6179C 58.9637 51.619 58.8573 51.6232 58.7581 51.6266L 58.7893 52.5261C 58.8907 52.5226 58.9859 52.5187 59.081 52.5179L 59.0722 51.6179ZM 58.7914 51.6267C 58.2206 51.6049 57.688 51.5276 57.1553 51.3911L 56.9329 52.2632C 57.512 52.4102 58.1382 52.5011 58.756 52.526L 58.7914 51.6267ZM 57.1712 51.3955L 56.8738 51.3079L 56.6197 52.1713L 56.9171 52.2589L 57.1712 51.3955ZM 56.8751 51.3083C 53.8981 50.4224 51.7315 47.8297 51.3401 44.8224L 50.4476 44.9385C 50.8845 48.2955 53.2979 51.1828 56.6184 52.1709L 56.8751 51.3083ZM 51.3415 44.8344C 51.3388 44.8085 51.3362 44.7891 51.3349 44.776L 50.4398 44.8705C 50.4425 44.8952 50.4449 44.9135 50.4462 44.9265L 51.3415 44.8344ZM 51.3334 44.7639C 51.3236 44.6907 51.317 44.6163 51.3089 44.532L 50.413 44.6181C 50.4209 44.6999 50.4292 44.7906 50.4413 44.8826L 51.3334 44.7639ZM 51.309 44.5335C 51.3038 44.4782 51.2997 44.4228 51.2952 44.3621L 50.3977 44.428C 50.4022 44.4896 50.407 44.5535 50.4128 44.6166L 51.309 44.5335ZM 51.2957 44.3692C 51.2925 44.3129 51.2885 44.2606 51.2858 44.2113L 50.3872 44.2614C 50.3904 44.3196 50.3944 44.3726 50.3972 44.4208L 51.2957 44.3692ZM 51.2865 44.2363C 51.2865 44.2106 51.2844 44.1897 51.2841 44.1867C 51.284 44.1853 51.284 44.186 51.2841 44.1865C 51.2842 44.1873 51.2843 44.1894 51.2845 44.1921C 51.2849 44.1975 51.2855 44.2072 51.2855 44.2194L 50.3855 44.2194C 50.3855 44.2344 50.3862 44.2467 50.3867 44.2549C 50.387 44.2581 50.3873 44.2626 50.3875 44.2645C 50.3876 44.2663 50.3878 44.2679 50.3878 44.2684C 50.388 44.2708 50.3865 44.2556 50.3865 44.2363L 51.2865 44.2363ZM 51.2851 44.2014C 51.2802 44.0789 51.2764 43.9631 51.2765 43.8454L 50.3765 43.8454C 50.3765 43.9774 50.3808 44.1113 50.3858 44.2375L 51.2851 44.2014ZM 51.2765 43.8454L 51.2765 40.9274L 50.3765 40.9274L 50.3765 43.8454L 51.2765 43.8454ZM 50.854 41.3765C 56.2739 41.0439 59.4824 38.4939 61.0737 36.7213L 60.4039 36.1201C 58.9322 37.7595 55.9311 40.1632 50.7989 40.4782L 50.854 41.3765ZM 60.3601 36.6639C 61.4712 38.3941 63.66 40.8535 67.2997 41.3298L 67.4165 40.4374C 64.154 40.0105 62.1621 37.8045 61.1174 36.1776L 60.3601 36.6639ZM 66.9081 40.8836L 66.9081 43.8454L 67.8081 43.8454L 67.8081 40.8836L 66.9081 40.8836ZM 66.9081 43.8454C 66.9077 48.0361 63.5648 51.4672 59.3937 51.6267L 59.4281 52.526C 64.0775 52.3483 67.8076 48.5248 67.8081 43.8455L 66.9081 43.8454Z"/>
<path id="path3_fill" d="M 35.8847 38.079C 35.6596 37.4772 34.987 37.1688 34.3827 37.3936C 31.7399 38.3715 28.9569 38.8678 26.1106 38.8678C 13.0007 38.8678 2.33536 28.2376 2.33536 15.1713C 2.33536 10.3786 3.76302 5.76157 6.46415 1.82044C 6.82793 1.28925 6.6912 0.566076 6.15926 0.202998C 5.62732 -0.159583 4.90076 -0.0233041 4.53598 0.506889C 1.56888 4.83747 9.13711e-08 9.90713 9.13711e-08 15.1703C 9.13711e-08 29.5203 11.7127 41.1945 26.1101 41.1945C 29.2354 41.1945 32.2918 40.6494 35.196 39.5741C 35.8003 39.3513 36.1087 38.6818 35.8847 38.079Z"/>
<path id="path4_stroke" d="M 35.8847 38.079L 36.3065 37.9222L 36.3062 37.9214L 35.8847 38.079ZM 34.3827 37.3936L 34.5388 37.8157L 34.5396 37.8154L 34.3827 37.3936ZM 6.46415 1.82044L 6.83534 2.07484L 6.83543 2.0747L 6.46415 1.82044ZM 6.15926 0.202998L 6.41295 -0.168678L 6.41271 -0.168839L 6.15926 0.202998ZM 4.53598 0.506889L 4.16525 0.251824L 4.16476 0.252544L 4.53598 0.506889ZM 35.196 39.5741L 35.0404 39.1519L 35.0398 39.1521L 35.196 39.5741ZM 36.3062 37.9214C 35.9942 37.0872 35.0629 36.6604 34.2258 36.9719L 34.5396 37.8154C 34.911 37.6772 35.325 37.8671 35.4632 38.2366L 36.3062 37.9214ZM 34.2265 36.9716C 31.6219 37.9372 28.9173 38.4196 26.1106 38.4178L 26.1106 39.3178C 28.9966 39.3161 31.858 38.8057 34.5388 37.8157L 34.2265 36.9716ZM 26.1106 38.4178C 13.2478 38.4178 2.78536 27.9877 2.78536 15.1713L 1.88536 15.1713C 1.88536 28.4875 12.7535 39.3178 26.1106 39.3178L 26.1106 38.4178ZM 2.78536 15.1713C 2.78031 10.4459 4.16815 5.95746 6.83534 2.07484L 6.09297 1.56604C 3.35789 5.56569 1.89041 10.3114 1.88536 15.1713L 2.78536 15.1713ZM 6.83543 2.0747C 7.34017 1.33769 7.14983 0.334286 6.41295 -0.168677L 5.90557 0.574673C 6.23257 0.797866 6.31569 1.24081 6.09287 1.56617L 6.83543 2.0747ZM 6.41271 -0.168839C 5.67588 -0.671077 4.67035 -0.482328 4.16525 0.251825L 4.90672 0.761954C 5.13117 0.43572 5.57876 0.351911 5.90581 0.574835L 6.41271 -0.168839ZM 4.16476 0.252544C 1.16376 4.64157 -0.444943 9.83986 -0.45 15.1703L 0.45 15.1703C 0.444943 9.9744 1.974 5.03336 4.90721 0.761235L 4.16476 0.252544ZM -0.45 15.1703C -0.45 29.7702 11.4656 41.6445 26.1101 41.6445L 26.1101 40.7445C 11.9599 40.7445 0.45 29.2704 0.45 15.1703L -0.45 15.1703ZM 26.1101 41.6445C 29.2751 41.6428 32.4099 41.0836 35.3523 39.9961L 35.0398 39.1521C 32.1737 40.2152 29.1957 40.7463 26.1101 40.7445L 26.1101 41.6445ZM 35.3517 39.9963C 36.189 39.6876 36.6175 38.7591 36.3065 37.9222L 35.4629 38.2358C 35.5999 38.6046 35.4117 39.015 35.0404 39.1519L 35.3517 39.9963Z"/>
<path id="path5_fill" d="M 11.5384 9.24606L 11.5384 1.16334C 11.5384 0.520744 11.0159 5.16067e-07 10.3712 5.16067e-07C 9.72549 5.16067e-07 9.20303 0.520744 9.20303 1.16334L 9.20303 9.24606C 7.06677 9.76979 5.47693 11.6946 5.47693 13.9825C 5.47693 15.0782 5.84071 16.0903 6.45499 16.9055L 0.307705 23.5742C -0.128429 24.0472 -0.097489 24.7838 0.378565 25.219C 0.60262 25.4249 0.885057 25.5259 1.16799 25.5259C 1.48337 25.5259 1.79725 25.3996 2.02779 25.1494L 8.26339 18.3842C 8.90212 18.6896 9.6172 18.8612 10.3717 18.8612C 13.0703 18.8612 15.2665 16.6727 15.2665 13.982C 15.266 11.6941 13.6746 9.76929 11.5384 9.24606ZM 10.3712 16.534C 8.95951 16.534 7.81229 15.389 7.81229 13.9835C 7.81229 12.5769 8.95951 11.4335 10.3712 11.4335C 11.7819 11.4335 12.9301 12.5769 12.9301 13.9835C 12.9301 15.389 11.7819 16.534 10.3712 16.534Z"/>
<path id="path6_stroke" d="M 11.5384 9.24606L 11.0884 9.24606L 11.0884 9.59914L 11.4313 9.68314L 11.5384 9.24606ZM 9.20303 9.24606L 9.31018 9.68312L 9.65303 9.59906L 9.65303 9.24606L 9.20303 9.24606ZM 6.45499 16.9055L 6.78586 17.2105L 7.04029 16.9345L 6.81437 16.6347L 6.45499 16.9055ZM 0.307705 23.5742L 0.638533 23.8793L 0.638575 23.8792L 0.307705 23.5742ZM 0.378565 25.219L 0.683065 24.8877L 0.682191 24.8869L 0.378565 25.219ZM 2.02779 25.1494L 1.6969 24.8444L 1.69687 24.8444L 2.02779 25.1494ZM 8.26339 18.3842L 8.4575 17.9782L 8.15771 17.8349L 7.93251 18.0792L 8.26339 18.3842ZM 15.2665 13.982L 15.7165 13.982L 15.7165 13.9819L 15.2665 13.982ZM 11.9884 9.24606L 11.9884 1.16334L 11.0884 1.16334L 11.0884 9.24606L 11.9884 9.24606ZM 11.9884 1.16334C 11.9884 0.270819 11.2631 -0.449999 10.3712 -0.449999L 10.3712 0.45C 10.7688 0.45 11.0884 0.77067 11.0884 1.16334L 11.9884 1.16334ZM 10.3712 -0.449999C 9.47861 -0.449999 8.75303 0.27057 8.75303 1.16334L 9.65303 1.16334C 9.65303 0.770919 9.97237 0.45 10.3712 0.45L 10.3712 -0.449999ZM 8.75303 1.16334L 8.75303 9.24606L 9.65303 9.24606L 9.65303 1.16334L 8.75303 1.16334ZM 9.09588 8.809C 6.76455 9.38055 5.02693 11.481 5.02693 13.9825L 5.92693 13.9825C 5.92693 11.9082 7.36899 10.159 9.31018 9.68312L 9.09588 8.809ZM 5.02693 13.9825C 5.03361 15.1554 5.44481 16.3042 6.0956 17.1763L 6.81437 16.6347C 6.23661 15.8764 5.92025 15.0009 5.92693 13.9825L 5.02693 13.9825ZM 6.12412 16.6005L -0.0231656 23.2692L 0.638575 23.8792L 6.78586 17.2105L 6.12412 16.6005ZM -0.0231237 23.2692C -0.628271 23.9255 -0.585067 24.9478 0.0749389 25.5511L 0.682191 24.8869C 0.390089 24.6198 0.371414 24.169 0.638533 23.8793L -0.0231237 23.2692ZM 0.0740659 25.5503C 0.369997 25.8101 0.808189 25.9693 1.16799 25.9759L 1.16799 25.0759C 0.961924 25.0825 0.835242 25.0397 0.683064 24.8877L 0.0740659 25.5503ZM 1.16799 25.9759C 1.60358 25.9759 2.0393 25.8009 2.35871 25.4543L 1.69687 24.8444C 1.55519 24.9982 1.36316 25.0759 1.16799 25.0759L 1.16799 25.9759ZM 2.35867 25.4544L 8.59428 18.6892L 7.93251 18.0792L 1.6969 24.8444L 2.35867 25.4544ZM 8.06929 18.7902C 8.75174 19.1137 9.56433 19.308 10.3717 19.3112L 10.3717 18.4112C 9.67007 18.4143 9.05251 18.2654 8.4575 17.9782L 8.06929 18.7902ZM 10.3717 19.3112C 13.3175 19.3112 15.7165 16.9227 15.7165 13.982L 14.8165 13.982C 14.8165 16.4228 12.8232 18.4112 10.3717 18.4112L 10.3717 19.3112ZM 15.7165 13.9819C 15.7159 11.4803 13.9767 9.37996 11.6454 8.80898L 11.4313 9.68314C 13.3726 10.1586 14.816 11.9079 14.8165 13.9821L 15.7165 13.9819ZM 10.3712 16.084C 9.20681 16.084 8.26229 15.1393 8.26229 13.9835L 7.36229 13.9835C 7.36229 15.6388 8.71221 16.984 10.3712 16.984L 10.3712 16.084ZM 8.26229 13.9835C 8.26229 12.8269 9.20658 11.8835 10.3712 11.8835L 10.3712 10.9835C 8.71244 10.9835 7.36229 12.3269 7.36229 13.9835L 8.26229 13.9835ZM 10.3712 11.8835C 11.5349 11.8835 12.4801 12.827 12.4801 13.9835L 13.3801 13.9835C 13.3801 12.3268 12.0289 10.9835 10.3712 10.9835L 10.3712 11.8835ZM 12.4801 13.9835C 12.4801 15.1392 11.5347 16.084 10.3712 16.084L 10.3712 16.984C 12.0291 16.984 13.3801 15.6389 13.3801 13.9835L 12.4801 13.9835Z"/>
<path id="path7_fill" d="M 1.70265 0.00648162L 1.68668 0.00598832C 0.830385 -0.0686168 0.0813713 0.562545 0.00602105 1.41702C -0.0693292 2.2715 0.571396 3.0255 1.42919 3.10061C 1.4756 3.10608 1.52251 3.10807 1.56742 3.10807C 2.36683 3.10807 3.04698 2.49879 3.11834 1.69057C 3.19319 0.836588 2.55945 0.0830762 1.70265 0.00648162Z"/>
<path id="path8_stroke" d="M 1.70265 0.00648162L 1.74272 -0.441731L 1.72966 -0.442899L 1.71655 -0.443304L 1.70265 0.00648162ZM 1.68668 0.00598832L 1.64762 0.45429L 1.66018 0.455384L 1.67279 0.455774L 1.68668 0.00598832ZM 1.42919 3.10061L 1.4819 2.6535L 1.46844 2.65232L 1.42919 3.10061ZM 3.11834 1.69057L 3.56659 1.73014L 3.56662 1.72986L 3.11834 1.69057ZM 1.71655 -0.443304L 1.70058 -0.443797L 1.67279 0.455774L 1.68875 0.456267L 1.71655 -0.443304ZM 1.72574 -0.442313C 0.621194 -0.538547 -0.345149 0.276476 -0.442239 1.37749L 0.454282 1.45655C 0.507891 0.848614 1.03958 0.401314 1.64762 0.45429L 1.72574 -0.442313ZM -0.442239 1.37749C -0.539789 2.48371 0.288539 3.45246 1.38994 3.54889L 1.46844 2.65232C 0.854253 2.59855 0.40113 2.05929 0.454282 1.45655L -0.442239 1.37749ZM 1.37651 3.54751C 1.4397 3.55464 1.51297 3.55797 1.56742 3.55807L 1.56742 2.65807C 1.53204 2.65817 1.5115 2.65751 1.48188 2.6537L 1.37651 3.54751ZM 1.56742 3.55807C 2.59683 3.55807 3.47445 2.77382 3.56659 1.73014L 2.67008 1.65099C 2.61951 2.22376 2.13683 2.65807 1.56742 2.65807L 1.56742 3.55807ZM 3.56662 1.72986C 3.66329 0.626919 2.84506 -0.343185 1.74272 -0.441731L 1.66258 0.454694C 2.27383 0.509337 2.72308 1.04626 2.67005 1.65128L 3.56662 1.72986Z"/>
<path id="path9_fill" d="M 1.70265 0.00648541L 1.68668 0.00598832C 0.830384 -0.0686168 0.0813722 0.562542 0.00602195 1.41702C -0.0693283 2.2715 0.571399 3.0255 1.42919 3.10061C 1.4756 3.10608 1.52251 3.10807 1.56742 3.10807C 2.36683 3.10807 3.04698 2.49879 3.11833 1.69057C 3.19319 0.836591 2.55895 0.08308 1.70265 0.00648541Z"/>
<path id="path10_stroke" d="M 1.70265 0.00648541L 1.74274 -0.441725L 1.72972 -0.44289L 1.71665 -0.443297L 1.70265 0.00648541ZM 1.68668 0.00598832L 1.64762 0.45429L 1.66013 0.45538L 1.67268 0.45577L 1.68668 0.00598832ZM 1.42919 3.10061L 1.4819 2.6535L 1.46844 2.65232L 1.42919 3.10061ZM 3.11833 1.69057L 3.56659 1.73015L 3.56662 1.72986L 3.11833 1.69057ZM 1.71665 -0.443297L 1.70068 -0.443794L 1.67268 0.45577L 1.68865 0.456267L 1.71665 -0.443297ZM 1.72574 -0.442313C 0.621193 -0.538547 -0.345148 0.276473 -0.442239 1.37749L 0.454282 1.45655C 0.507892 0.848612 1.03957 0.401314 1.64762 0.45429L 1.72574 -0.442313ZM -0.442239 1.37749C -0.539788 2.48371 0.288542 3.45246 1.38995 3.54889L 1.46844 2.65232C 0.854256 2.59855 0.401131 2.05929 0.454282 1.45655L -0.442239 1.37749ZM 1.37651 3.54751C 1.4397 3.55464 1.51297 3.55797 1.56742 3.55807L 1.56742 2.65807C 1.53204 2.65817 1.5115 2.65751 1.48188 2.6537L 1.37651 3.54751ZM 1.56742 3.55807C 2.59683 3.55807 3.47444 2.77382 3.56659 1.73015L 2.67008 1.65099C 2.61951 2.22377 2.13683 2.65807 1.56742 2.65807L 1.56742 3.55807ZM 3.56662 1.72986C 3.6633 0.626808 2.84445 -0.343178 1.74274 -0.441725L 1.66256 0.454696C 2.27344 0.509338 2.72307 1.04637 2.67005 1.65128L 3.56662 1.72986Z"/>
</defs>
</svg>
